<svg xmlns="http://www.w3.org/2000/svg" width="264.426" height="285.509" viewBox="0 0 264.426 285.509">
  <g id="Grupo_106476" data-name="Grupo 106476" transform="translate(-24.026 -347.941)">
    <g id="Grupo_106459" data-name="Grupo 106459" transform="translate(38.826 389.592)">
      <path id="Trazado_162209" data-name="Trazado 162209" d="M249.816,427.071a28.021,28.021,0,0,0-11.2,2.327,26.857,26.857,0,0,0-34.609-31.917,33.939,33.939,0,0,0-65.508-4.555,44.345,44.345,0,1,0-82.254,31.829,29.359,29.359,0,0,0,1.5,58.68h192.07a28.182,28.182,0,0,0,0-56.363Z" transform="translate(-28.37 -360.166)" fill="#1db2cc"/>
      <path id="Trazado_162210" data-name="Trazado 162210" d="M77.063,448.444h31.209V412.787h21.372L92.668,374.793,55.691,412.787H77.063Z" transform="translate(37.394 -324.959)" fill="#c1c1c1" opacity="0.5" style="mix-blend-mode: multiply;isolation: isolate"/>
      <path id="Trazado_162211" data-name="Trazado 162211" d="M125.011,412.787,88.035,374.793,51.058,412.787H72.43v50.207h31.209V412.787Z" transform="translate(26.242 -324.959)" fill="#f9f9f9"/>
      <path id="Trazado_162212" data-name="Trazado 162212" d="M90.614,430.73h20.66V407.125h14.148l-24.478-25.152L76.466,407.125H90.614Z" transform="translate(87.4 -307.675)" fill="#c1c1c1" opacity="0.5" style="mix-blend-mode: multiply;isolation: isolate"/>
      <path id="Trazado_162213" data-name="Trazado 162213" d="M122.356,407.125,97.877,381.973,73.4,407.125H87.547v33.237h20.661V407.125Z" transform="translate(80.017 -307.675)" fill="#f9f9f9"/>
      <path id="Trazado_162214" data-name="Trazado 162214" d="M51.4,430.73H72.057V407.125H86.205L61.727,381.973,37.248,407.125H51.4Z" transform="translate(-7 -307.675)" fill="#c1c1c1" opacity="0.5" style="mix-blend-mode: multiply;isolation: isolate"/>
      <path id="Trazado_162215" data-name="Trazado 162215" d="M83.138,407.125,58.659,381.973,34.181,407.125H48.329v33.237H68.99V407.125Z" transform="translate(-14.383 -307.675)" fill="#f9f9f9"/>
    </g>
    <g id="Grupo_106463" data-name="Grupo 106463" transform="translate(42.162 503.784)">
      <path id="Trazado_162216" data-name="Trazado 162216" d="M113.729,469.085c-2.511-4.572-20.122-9.175-23.335-9.979l-1.543-.974a28.393,28.393,0,0,1-.416-3.669v-.037a23.339,23.339,0,0,1,.037-2.641,19.742,19.742,0,0,0,5.8-7.029,30.637,30.637,0,0,0,2.2-6.48c1.189.692,3.145.978,2.841-1.455-.446-3.543,1.877-7.036.889-9.588a1.18,1.18,0,0,0-.583-.726c-.027-10.334-.5-17.052-8.634-20.589a36.916,36.916,0,0,0-9.686-1.86,36.916,36.916,0,0,0-9.686,1.86C63.4,409.492,63,416.323,62.98,426.851a1.984,1.984,0,0,0-.194.382c-.991,2.552,1.336,6.044.889,9.588-.3,2.4,1.588,2.153,2.784,1.485a41.671,41.671,0,0,0,2.194,6.45,18.917,18.917,0,0,0,5.877,7.121,26.34,26.34,0,0,1-.371,6.242L72.9,459v-.034s-21.12,5.083-23.884,10.119c-1,1.816-4.044,19.567-6.116,29.287h76.945C117.773,488.734,114.727,470.9,113.729,469.085ZM81.406,490.71h.29l-.129.354Z" transform="translate(3.267 -368.706)" fill="#91909a"/>
      <path id="Trazado_162217" data-name="Trazado 162217" d="M136.935,469.085c-2.514-4.572-20.126-9.175-23.335-9.979l-1.547-.974a28.4,28.4,0,0,1-.416-3.669v-.037a23.34,23.34,0,0,1,.037-2.641,19.752,19.752,0,0,0,5.8-7.029,30.805,30.805,0,0,0,2.2-6.48c1.193.692,3.145.978,2.842-1.455-.446-3.543,1.877-7.036.889-9.588a1.18,1.18,0,0,0-.583-.726c-.027-10.334-.5-17.052-8.634-20.589a36.916,36.916,0,0,0-9.686-1.86,36.863,36.863,0,0,0-9.683,1.86c-8.221,3.574-8.616,10.405-8.637,20.933a1.984,1.984,0,0,0-.194.382c-.988,2.552,1.336,6.044.889,9.588-.3,2.4,1.588,2.153,2.784,1.485a41.73,41.73,0,0,0,2.2,6.45,18.876,18.876,0,0,0,5.874,7.121,26.3,26.3,0,0,1-.368,6.242L96.1,459l0-.034s-21.124,5.083-23.887,10.119c-1,1.816-4.044,19.567-6.116,29.287h76.945C140.976,488.734,137.93,470.9,136.935,469.085ZM104.609,490.71h.29l-.129.354Z" transform="translate(59.118 -368.706)" fill="#91909a"/>
      <g id="Grupo_106460" data-name="Grupo 106460" transform="translate(0 25.921)">
        <path id="Trazado_162218" data-name="Trazado 162218" d="M66.639,403.338a40.593,40.593,0,0,0-10.654-2.047,40.593,40.593,0,0,0-10.654,2.047c-9.386,4.082-9.5,12.007-9.5,24.354H76.138C76.138,415.344,76.025,407.419,66.639,403.338Z" transform="translate(-13.744 -401.29)" fill="#aaa"/>
        <path id="Trazado_162219" data-name="Trazado 162219" d="M61.483,416.3H45.862a29.864,29.864,0,0,1-8.981,24.793l16.04,19.379h1.5l16.04-19.379A29.864,29.864,0,0,1,61.483,416.3Z" transform="translate(-11.219 -365.157)" fill="#fcc083"/>
        <path id="Trazado_162220" data-name="Trazado 162220" d="M39.518,416.3H55.143a28.817,28.817,0,0,0,2,14.422c-6.525-2.545-11.727-7.915-17.468-12.848C39.617,416.877,39.518,416.3,39.518,416.3Z" transform="translate(-4.871 -365.157)" fill="#e8aa63"/>
        <path id="Trazado_162221" data-name="Trazado 162221" d="M45.017,419.522a30.364,30.364,0,0,1-8.136,13.819l16.04,19.379h1.5l16.04-19.379a30.334,30.334,0,0,1-8.136-13.819l-8.576,4.739Z" transform="translate(-11.219 -357.404)" fill="#e5e5e5"/>
        <path id="Trazado_162222" data-name="Trazado 162222" d="M77.122,421.433c-.606-1.554-1.656-.75-2.477.272.235-12.068-6.136-18.194-6.136-18.194H44.574s-6.412,6.112-6.211,18.105c-.807-.978-1.816-1.693-2.4-.184-1.087,2.807,1.468,6.651.981,10.548-.33,2.634,1.748,2.368,3.063,1.632a45.525,45.525,0,0,0,2.412,7.094c2.5,5.819,9.683,11.121,14.088,11.121s11.482-5.342,14.088-11.121a33.954,33.954,0,0,0,2.422-7.124c1.308.76,3.462,1.073,3.124-1.6C75.65,428.084,78.209,424.241,77.122,421.433Z" transform="translate(-14.088 -395.942)" fill="#fcc083"/>
        <path id="Trazado_162223" data-name="Trazado 162223" d="M41.832,426.137l4.693,6.389L54.033,421.4l-4.216-2.658Z" transform="translate(0.7 -359.281)" fill="#fff"/>
        <path id="Trazado_162224" data-name="Trazado 162224" d="M50.552,426.137l-4.693,6.389L38.21,421.678l4.2-2.936Z" transform="translate(-8.02 -359.281)" fill="#fff"/>
        <path id="Trazado_162225" data-name="Trazado 162225" d="M113.987,462.363c-2.276-10.6-5.628-30.217-6.726-32.214-3.043-5.54-26.275-11.131-26.275-11.131l.007.085-.293-.085c0,.027.763,7.693-2.811,18.647-1.189,3.632-2.521,7.318-3.68,10.4-.457,1.213-2.327,6.259-2.327,6.259s-2.3-5.046-2.756-6.259c-1.158-3.08-2.491-6.766-3.68-10.4-3.574-10.954-2.811-18.62-2.811-18.647l-.29.085,0-.085s-23.233,5.591-26.275,11.131c-1.1,2-4.45,21.522-6.726,32.214Z" transform="translate(-29.349 -358.617)" fill="#1db2cc"/>
        <path id="Trazado_162226" data-name="Trazado 162226" d="M37.291,408.585s12.313,25.73,33.168.692C70.459,409.277,53.311,392.936,37.291,408.585Z" transform="translate(-10.232 -400.05)" fill="#aaa"/>
        <path id="Trazado_162227" data-name="Trazado 162227" d="M40.975,433.942c-.865-7.448-1.6-24.868,9.547-29.73l-3.41-1.649s-9.972,2.017-10.889,17.42L38.9,436.242h.024A2.063,2.063,0,0,0,40.975,433.942Z" transform="translate(-12.805 -398.226)" fill="#aaa"/>
        <path id="Trazado_162228" data-name="Trazado 162228" d="M54.713,436.17h.112l2.658-16.156c-.917-15.4-10.892-17.42-10.892-17.42l-3.41,1.652C54.318,409.1,53.6,426.5,52.73,433.952A1.991,1.991,0,0,0,54.713,436.17Z" transform="translate(3.943 -398.154)" fill="#aaa"/>
      </g>
      <path id="Trazado_162229" data-name="Trazado 162229" d="M54.982,419.621c-4.855,14.2-7.72,27.56-11.717,41.29H80.491c-2.276-10.6-5.628-30.217-6.726-32.214C71.857,425.226,62.045,421.74,54.982,419.621Z" transform="translate(4.148 -331.245)" fill="#b3aab0" opacity="0.5" style="mix-blend-mode: multiply;isolation: isolate"/>
      <g id="Grupo_106461" data-name="Grupo 106461" transform="translate(155.213 25.921)">
        <path id="Trazado_162230" data-name="Trazado 162230" d="M112.195,403.338a40.593,40.593,0,0,0-10.654-2.047,40.593,40.593,0,0,0-10.654,2.047c-9.387,4.082-9.5,12.007-9.5,24.354h40.306C121.694,415.344,121.581,407.419,112.195,403.338Z" transform="translate(-59.3 -401.29)" fill="#ddab60"/>
        <path id="Trazado_162231" data-name="Trazado 162231" d="M107.039,416.3H91.418a29.864,29.864,0,0,1-8.981,24.793l16.04,19.379h1.5l16.04-19.379A29.864,29.864,0,0,1,107.039,416.3Z" transform="translate(-56.775 -365.157)" fill="#fcc083"/>
        <path id="Trazado_162232" data-name="Trazado 162232" d="M85.074,416.3H100.7a28.817,28.817,0,0,0,2,14.422c-6.525-2.545-11.727-7.915-17.468-12.848C85.173,416.877,85.074,416.3,85.074,416.3Z" transform="translate(-50.427 -365.157)" fill="#e8aa63"/>
        <path id="Trazado_162233" data-name="Trazado 162233" d="M90.573,419.522a30.364,30.364,0,0,1-8.136,13.819l16.04,19.379h1.5l16.04-19.379a30.364,30.364,0,0,1-8.136-13.819l-8.576,4.739Z" transform="translate(-56.775 -357.404)" fill="#e5e5e5"/>
        <path id="Trazado_162234" data-name="Trazado 162234" d="M122.678,421.433c-.6-1.554-1.659-.75-2.477.272.235-12.068-6.136-18.194-6.136-18.194H90.13s-6.412,6.112-6.211,18.105c-.807-.978-1.816-1.693-2.4-.184-1.087,2.807,1.468,6.651.981,10.548-.331,2.634,1.748,2.368,3.063,1.632a45.524,45.524,0,0,0,2.412,7.094c2.5,5.819,9.683,11.121,14.088,11.121s11.482-5.342,14.088-11.121a33.758,33.758,0,0,0,2.422-7.124c1.312.76,3.462,1.073,3.124-1.6C121.21,428.084,123.765,424.241,122.678,421.433Z" transform="translate(-59.644 -395.942)" fill="#fcc083"/>
        <path id="Trazado_162235" data-name="Trazado 162235" d="M87.388,426.137l4.694,6.389L99.589,421.4l-4.216-2.658Z" transform="translate(-44.856 -359.281)" fill="#fff"/>
        <path id="Trazado_162236" data-name="Trazado 162236" d="M96.108,426.137l-4.693,6.389-7.649-10.848,4.2-2.936Z" transform="translate(-53.576 -359.281)" fill="#fff"/>
        <path id="Trazado_162237" data-name="Trazado 162237" d="M159.544,462.363c-2.276-10.6-5.628-30.217-6.726-32.214-3.043-5.54-26.275-11.131-26.275-11.131l.007.085-.293-.085c0,.027.763,7.693-2.814,18.647-1.186,3.632-2.518,7.318-3.676,10.4-.457,1.213-2.327,6.259-2.327,6.259s-2.3-5.046-2.756-6.259c-1.158-3.08-2.491-6.766-3.676-10.4-3.577-10.954-2.814-18.62-2.811-18.647l-.293.085,0-.085s-23.233,5.591-26.275,11.131c-1.1,2-4.45,21.522-6.726,32.214Z" transform="translate(-74.905 -358.617)" fill="#f65138"/>
        <path id="Trazado_162238" data-name="Trazado 162238" d="M82.847,408.585s12.317,25.73,33.168.692C116.015,409.277,98.87,392.936,82.847,408.585Z" transform="translate(-55.788 -400.05)" fill="#ddab60"/>
        <path id="Trazado_162239" data-name="Trazado 162239" d="M86.531,433.942c-.865-7.448-1.6-24.868,9.55-29.73l-3.414-1.649s-9.973,2.017-10.889,17.42l2.675,16.259h.024A2.063,2.063,0,0,0,86.531,433.942Z" transform="translate(-58.361 -398.226)" fill="#ddab60"/>
        <path id="Trazado_162240" data-name="Trazado 162240" d="M100.269,436.17h.112l2.658-16.156c-.916-15.4-10.889-17.42-10.889-17.42l-3.414,1.652c11.141,4.855,10.415,22.252,9.55,29.706A1.991,1.991,0,0,0,100.269,436.17Z" transform="translate(-41.613 -398.154)" fill="#ddab60"/>
      </g>
      <path id="Trazado_162241" data-name="Trazado 162241" d="M101.068,419.565c-7.107,2.1-17.471,5.69-19.437,9.267-1.1,2-4.45,21.522-6.726,32.214h34.323C108.243,447.033,101.068,419.565,101.068,419.565Z" transform="translate(80.308 -331.38)" fill="#d1aa81" opacity="0.5" style="mix-blend-mode: multiply;isolation: isolate"/>
      <g id="Grupo_106462" data-name="Grupo 106462" transform="translate(66.932)">
        <path id="Trazado_162242" data-name="Trazado 162242" d="M95.6,396.241a50.665,50.665,0,0,0-13.315-2.559,50.61,50.61,0,0,0-13.315,2.559c-11.734,5.1-11.874,15.008-11.874,30.442h50.374C107.471,411.249,107.331,401.345,95.6,396.241Z" transform="translate(-29.49 -393.682)" fill="#474656"/>
        <path id="Trazado_162243" data-name="Trazado 162243" d="M89.157,412.444H69.631a37.326,37.326,0,0,1-11.223,30.987l20.047,24.221h1.877l20.047-24.221A37.326,37.326,0,0,1,89.157,412.444Z" transform="translate(-26.334 -348.521)" fill="#fcc083"/>
        <path id="Trazado_162244" data-name="Trazado 162244" d="M61.7,412.444H81.23a36.046,36.046,0,0,0,2.508,18.027c-8.157-3.182-14.657-9.894-21.833-16.061C61.827,413.163,61.7,412.444,61.7,412.444Z" transform="translate(-18.4 -348.521)" fill="#e8aa63"/>
        <path id="Trazado_162245" data-name="Trazado 162245" d="M68.578,416.47a37.98,37.98,0,0,1-10.17,17.271l20.047,24.221h1.877L100.38,433.74A37.98,37.98,0,0,1,90.21,416.47l-10.719,5.922Z" transform="translate(-26.334 -338.83)" fill="#e5e5e5"/>
        <path id="Trazado_162246" data-name="Trazado 162246" d="M108.7,418.86c-.753-1.945-2.071-.94-3.1.341.3-15.083-7.669-22.742-7.669-22.742H68.025s-8.017,7.642-7.761,22.633c-1.012-1.226-2.273-2.119-3.005-.232-1.359,3.506,1.836,8.31,1.227,13.182-.416,3.291,2.184,2.961,3.826,2.041a57.2,57.2,0,0,0,3.019,8.865c3.128,7.274,12.1,13.9,17.608,13.9s14.347-6.675,17.6-13.9a42.118,42.118,0,0,0,3.029-8.906c1.639.951,4.327,1.342,3.908-2C106.865,427.17,110.061,422.366,108.7,418.86Z" transform="translate(-29.92 -386.998)" fill="#fcc083"/>
        <path id="Trazado_162247" data-name="Trazado 162247" d="M64.6,424.738l5.866,7.985,9.382-13.906-5.27-3.322Z" transform="translate(-11.438 -341.177)" fill="#fff"/>
        <path id="Trazado_162248" data-name="Trazado 162248" d="M75.495,424.738l-5.866,7.985-9.56-13.558,5.251-3.669Z" transform="translate(-22.336 -341.177)" fill="#fff"/>
        <path id="Trazado_162249" data-name="Trazado 162249" d="M154.777,470.015c-2.845-13.25-7.032-37.767-8.405-40.265-3.8-6.92-32.837-13.911-32.837-13.911l.007.109-.368-.109c0,.038.957,9.615-3.513,23.3-1.482,4.542-3.148,9.151-4.6,13-.569,1.513-2.91,7.819-2.91,7.819s-2.869-6.307-3.441-7.819c-1.448-3.85-3.114-8.46-4.6-13-4.47-13.69-3.516-23.267-3.513-23.3l-.368.109.007-.109S61.2,422.83,57.4,429.75c-1.37,2.5-5.56,26.9-8.405,40.265Z" transform="translate(-48.994 -340.348)" fill="#474656"/>
        <path id="Trazado_162250" data-name="Trazado 162250" d="M58.92,402.8s15.393,32.159,41.454.862C100.374,403.662,78.947,383.243,58.92,402.8Z" transform="translate(-25.101 -392.132)" fill="#474656"/>
        <path id="Trazado_162251" data-name="Trazado 162251" d="M63.523,434.492c-1.08-9.308-2-31.079,11.935-37.154l-4.266-2.065s-12.463,2.521-13.608,21.775l3.342,20.32h.031A2.575,2.575,0,0,0,63.523,434.492Z" transform="translate(-28.317 -389.852)" fill="#474656"/>
        <path id="Trazado_162252" data-name="Trazado 162252" d="M80.7,437.276h.136l3.322-20.194c-1.145-19.25-13.611-21.771-13.611-21.771l-4.266,2.065c13.925,6.068,13.018,27.809,11.938,37.13A2.488,2.488,0,0,0,80.7,437.276Z" transform="translate(-7.385 -389.761)" fill="#474656"/>
      </g>
    </g>
    <g id="Grupo_106464" data-name="Grupo 106464" transform="translate(179.416 347.941)">
      <path id="Trazado_162253" data-name="Trazado 162253" d="M100.693,361.239c10.773.872,20.579,5.533,20.579,16.306H103.313c-.1-4.078-4.269-4.95-6.889-4.95-1.652,0-6.988,0-6.988,3.3,0,7.376,33.1-.293,33.1,20.575,0,12.521-9.8,17.178-21.839,18.054l.777,13.3H90.5l.678-13.4c-11.162-1.165-21.546-6.409-21.546-17.666H87.589v.388c.1,4.951,5.628,5.922,8.446,5.922,2.719,0,8.054-.2,8.054-3.785,0-7.669-33.1-.681-33.1-20.868,0-11.649,9.025-16.112,20.187-17.083l-.678-13.4H101.47Z" transform="translate(-69.634 -347.941)" fill="#ffd64b"/>
    </g>
    <g id="Grupo_106465" data-name="Grupo 106465" transform="translate(76.566 355.808)">
      <path id="Trazado_162254" data-name="Trazado 162254" d="M62.779,360.24c8.1.654,15.458,4.153,15.458,12.248H64.748c-.072-3.063-3.209-3.717-5.175-3.717-1.24,0-5.25,0-5.25,2.48,0,5.54,24.861-.221,24.861,15.455,0,9.407-7.363,12.906-16.405,13.563l.583,9.99H55.123l.511-10.064c-8.385-.872-16.187-4.814-16.187-13.267H52.936v.29c.075,3.717,4.228,4.45,6.344,4.45,2.041,0,6.051-.15,6.051-2.845,0-5.761-24.861-.511-24.861-15.676,0-8.753,6.78-12.1,15.165-12.834l-.511-10.061h8.238Z" transform="translate(-39.447 -350.25)" fill="#ffd64b"/>
    </g>
    <g id="Grupo_106466" data-name="Grupo 106466" transform="translate(24.026 416.042)">
      <path id="Trazado_162255" data-name="Trazado 162255" d="M47.358,377.919c8.1.654,15.458,4.153,15.458,12.249H49.327c-.072-3.063-3.206-3.717-5.175-3.717-1.24,0-5.25,0-5.25,2.48,0,5.54,24.861-.221,24.861,15.454,0,9.407-7.363,12.906-16.405,13.563l.583,9.99H39.7l.511-10.064c-8.385-.872-16.187-4.814-16.187-13.267H37.515v.29c.075,3.717,4.228,4.45,6.344,4.45,2.041,0,6.051-.15,6.051-2.845,0-5.761-24.861-.511-24.861-15.676,0-8.753,6.78-12.1,15.165-12.834L39.7,367.929H47.94Z" transform="translate(-24.026 -367.929)" fill="#ffd64b"/>
    </g>
    <g id="Grupo_106467" data-name="Grupo 106467" transform="translate(244.498 416.042)">
      <path id="Trazado_162256" data-name="Trazado 162256" d="M112.068,377.919c8.092.654,15.458,4.153,15.458,12.249H114.037c-.075-3.063-3.209-3.717-5.179-3.717-1.237,0-5.25,0-5.25,2.48,0,5.54,24.865-.221,24.865,15.454,0,9.407-7.366,12.906-16.405,13.563l.583,9.99h-8.238l.511-10.064c-8.388-.872-16.187-4.814-16.187-13.267h13.489v.29c.072,3.717,4.228,4.45,6.344,4.45,2.041,0,6.051-.15,6.051-2.845,0-5.761-24.861-.511-24.861-15.676,0-8.753,6.777-12.1,15.165-12.834l-.511-10.061h8.238Z" transform="translate(-88.736 -367.929)" fill="#ffd64b"/>
    </g>
    <g id="Grupo_106468" data-name="Grupo 106468" transform="translate(136.091 364.142)">
      <path id="Trazado_162257" data-name="Trazado 162257" d="M73.773,359.912c5.843.474,11.162,3,11.162,8.845H75.194c-.055-2.211-2.317-2.685-3.738-2.685-.9,0-3.792,0-3.792,1.792,0,4,17.955-.16,17.955,11.162,0,6.794-5.318,9.322-11.846,9.8l.419,7.216H68.243l.368-7.267c-6.058-.634-11.693-3.479-11.693-9.584h9.744v.208c.051,2.688,3.053,3.213,4.583,3.213,1.472,0,4.368-.106,4.368-2.055,0-4.16-17.955-.368-17.955-11.322,0-6.32,4.9-8.739,10.954-9.267l-.368-7.267h5.949Z" transform="translate(-56.918 -352.696)" fill="#ffd64b"/>
    </g>
  </g>
</svg>
