<svg xmlns="http://www.w3.org/2000/svg" width="189" height="198" viewBox="0 0 189 198">
  <g id="Grupo_112872" data-name="Grupo 112872" transform="translate(1995 9016)">
    <g id="Grupo_112871" data-name="Grupo 112871" transform="translate(84 -123)">
      <g id="Trazado_168243" data-name="Trazado 168243" transform="translate(-2079 -8893)" fill="#fff">
        <path d="M 187.5 196.5 L 1.5 196.5 L 1.5 1.5 L 187.5 1.5 L 187.5 196.5 Z" stroke="none"/>
        <path d="M 3 3 L 3 195 L 186 195 L 186 3 L 3 3 M 0 0 L 189 0 L 189 198 L 0 198 L 0 0 Z" stroke="none" fill="#3da5f4"/>
      </g>
      <path id="Trazado_168244" data-name="Trazado 168244" d="M27.168,12.4H24.5V17H22.988V5.625h3.766a4.457,4.457,0,0,1,2.957.875,3.148,3.148,0,0,1,1.035,2.547,3.062,3.062,0,0,1-.574,1.852,3.428,3.428,0,0,1-1.6,1.18l2.672,4.828V17H29.637ZM24.5,11.172h2.3a2.6,2.6,0,0,0,1.777-.579,1.959,1.959,0,0,0,.66-1.55,2.062,2.062,0,0,0-.629-1.62,2.663,2.663,0,0,0-1.816-.571H24.5Zm11.633,5.984a3.693,3.693,0,0,1-2.8-1.129,4.19,4.19,0,0,1-1.078-3.02v-.266a5.073,5.073,0,0,1,.48-2.246,3.748,3.748,0,0,1,1.344-1.547,3.378,3.378,0,0,1,1.871-.559,3.166,3.166,0,0,1,2.563,1.086,4.7,4.7,0,0,1,.914,3.109v.6H33.7a3,3,0,0,0,.73,2.02,2.3,2.3,0,0,0,1.777.77,2.517,2.517,0,0,0,1.3-.312,3.259,3.259,0,0,0,.93-.828l.883.688A3.55,3.55,0,0,1,36.129,17.156Zm-.18-7.578a1.928,1.928,0,0,0-1.469.637A3.1,3.1,0,0,0,33.746,12H37.98v-.109a2.753,2.753,0,0,0-.594-1.707A1.815,1.815,0,0,0,35.949,9.578Zm8.656,7.578a3.693,3.693,0,0,1-2.8-1.129,4.19,4.19,0,0,1-1.078-3.02v-.266a5.073,5.073,0,0,1,.48-2.246,3.748,3.748,0,0,1,1.344-1.547,3.378,3.378,0,0,1,1.871-.559,3.166,3.166,0,0,1,2.563,1.086,4.7,4.7,0,0,1,.914,3.109v.6H42.176a3,3,0,0,0,.73,2.02,2.3,2.3,0,0,0,1.777.77,2.517,2.517,0,0,0,1.3-.312,3.259,3.259,0,0,0,.93-.828l.883.688A3.55,3.55,0,0,1,44.605,17.156Zm-.18-7.578a1.928,1.928,0,0,0-1.469.637A3.1,3.1,0,0,0,42.223,12h4.234v-.109a2.753,2.753,0,0,0-.594-1.707A1.815,1.815,0,0,0,44.426,9.578Zm6.508-1.031.039.938A3.122,3.122,0,0,1,53.48,8.391,2.417,2.417,0,0,1,55.895,9.75a3.2,3.2,0,0,1,1.1-.984,3.242,3.242,0,0,1,1.6-.375q2.781,0,2.828,2.945V17H59.973V11.422a1.941,1.941,0,0,0-.414-1.355,1.823,1.823,0,0,0-1.391-.449,1.917,1.917,0,0,0-1.336.48,1.949,1.949,0,0,0-.617,1.293V17H54.762V11.461a1.613,1.613,0,0,0-1.8-1.844,1.934,1.934,0,0,0-1.945,1.211V17H49.566V8.547Zm19.82,4.32a5.026,5.026,0,0,1-.891,3.113,2.846,2.846,0,0,1-2.391,1.176A2.947,2.947,0,0,1,65,16.023l-.07.977H63.6V5h1.445V9.477a2.93,2.93,0,0,1,2.414-1.086,2.863,2.863,0,0,1,2.418,1.164,5.177,5.177,0,0,1,.879,3.188ZM69.309,12.7a3.906,3.906,0,0,0-.57-2.281,1.888,1.888,0,0,0-1.641-.8,2.122,2.122,0,0,0-2.055,1.328V14.6a2.181,2.181,0,0,0,2.07,1.328,1.878,1.878,0,0,0,1.617-.8A4.153,4.153,0,0,0,69.309,12.7Zm2.883-.008a4.993,4.993,0,0,1,.488-2.234A3.643,3.643,0,0,1,74.039,8.93a3.7,3.7,0,0,1,1.988-.539,3.565,3.565,0,0,1,2.793,1.2,4.6,4.6,0,0,1,1.066,3.18v.1a5.036,5.036,0,0,1-.473,2.215,3.589,3.589,0,0,1-1.352,1.527,3.743,3.743,0,0,1-2.02.547,3.556,3.556,0,0,1-2.785-1.2A4.575,4.575,0,0,1,72.191,12.8Zm1.453.172a3.616,3.616,0,0,0,.652,2.258,2.211,2.211,0,0,0,3.5-.012,3.955,3.955,0,0,0,.648-2.418,3.61,3.61,0,0,0-.66-2.254,2.1,2.1,0,0,0-1.754-.863,2.075,2.075,0,0,0-1.727.852A3.925,3.925,0,0,0,73.645,12.867ZM83.27,17H81.824V5H83.27ZM90.5,14.758a1.064,1.064,0,0,0-.441-.91,4.249,4.249,0,0,0-1.539-.559,7.277,7.277,0,0,1-1.742-.562,2.479,2.479,0,0,1-.953-.781,1.869,1.869,0,0,1-.309-1.078A2.193,2.193,0,0,1,86.4,9.109a3.432,3.432,0,0,1,2.246-.719,3.532,3.532,0,0,1,2.332.742,2.357,2.357,0,0,1,.895,1.9H90.418a1.3,1.3,0,0,0-.5-1.023,1.888,1.888,0,0,0-1.27-.43,1.976,1.976,0,0,0-1.234.344,1.082,1.082,0,0,0-.445.9.877.877,0,0,0,.414.789,5.1,5.1,0,0,0,1.5.508,7.8,7.8,0,0,1,1.754.578,2.558,2.558,0,0,1,1,.809,1.988,1.988,0,0,1,.324,1.152,2.163,2.163,0,0,1-.906,1.816,3.8,3.8,0,0,1-2.352.684,4.257,4.257,0,0,1-1.8-.359,2.922,2.922,0,0,1-1.223-1A2.42,2.42,0,0,1,85.23,14.4h1.445a1.5,1.5,0,0,0,.582,1.152,2.258,2.258,0,0,0,1.434.426,2.331,2.331,0,0,0,1.316-.332A1.02,1.02,0,0,0,90.5,14.758ZM93.449,12.7a4.993,4.993,0,0,1,.488-2.234A3.643,3.643,0,0,1,95.3,8.93a3.7,3.7,0,0,1,1.988-.539,3.565,3.565,0,0,1,2.793,1.2,4.6,4.6,0,0,1,1.066,3.18v.1a5.036,5.036,0,0,1-.473,2.215,3.589,3.589,0,0,1-1.352,1.527,3.743,3.743,0,0,1-2.02.547,3.556,3.556,0,0,1-2.785-1.2A4.575,4.575,0,0,1,93.449,12.8Zm1.453.172a3.616,3.616,0,0,0,.652,2.258,2.211,2.211,0,0,0,3.5-.012A3.955,3.955,0,0,0,99.7,12.7a3.61,3.61,0,0,0-.66-2.254,2.1,2.1,0,0,0-1.754-.863,2.075,2.075,0,0,0-1.727.852A3.925,3.925,0,0,0,94.9,12.867Zm11.664-.164a4.952,4.952,0,0,1,.922-3.129,3.137,3.137,0,0,1,4.766-.168V5H113.7V17h-1.328l-.07-.906a2.943,2.943,0,0,1-2.414,1.063,2.887,2.887,0,0,1-2.395-1.2,5.008,5.008,0,0,1-.926-3.141Zm1.445.164a3.749,3.749,0,0,0,.594,2.25,1.92,1.92,0,0,0,1.641.813,2.108,2.108,0,0,0,2.008-1.234V10.813a2.125,2.125,0,0,0-1.992-1.2,1.929,1.929,0,0,0-1.656.82A4.128,4.128,0,0,0,108.012,12.867Zm11.438,4.289a3.693,3.693,0,0,1-2.8-1.129,4.19,4.19,0,0,1-1.078-3.02v-.266a5.073,5.073,0,0,1,.48-2.246A3.748,3.748,0,0,1,117.4,8.949a3.378,3.378,0,0,1,1.871-.559,3.166,3.166,0,0,1,2.563,1.086,4.7,4.7,0,0,1,.914,3.109v.6H117.02a3,3,0,0,0,.73,2.02,2.3,2.3,0,0,0,1.777.77,2.517,2.517,0,0,0,1.3-.312,3.259,3.259,0,0,0,.93-.828l.883.688A3.55,3.55,0,0,1,119.449,17.156Zm-.18-7.578a1.928,1.928,0,0,0-1.469.637A3.1,3.1,0,0,0,117.066,12H121.3v-.109a2.753,2.753,0,0,0-.594-1.707A1.815,1.815,0,0,0,119.27,9.578ZM23.824,41H22.379V32.547h1.445ZM22.262,30.3a.863.863,0,0,1,.215-.594.807.807,0,0,1,.637-.242.819.819,0,0,1,.641.242.854.854,0,0,1,.219.594.826.826,0,0,1-.219.586.834.834,0,0,1-.641.234.821.821,0,0,1-.637-.234A.834.834,0,0,1,22.262,30.3ZM27.5,32.547l.039.938a3.122,3.122,0,0,1,2.508-1.094,2.417,2.417,0,0,1,2.414,1.359,3.2,3.2,0,0,1,1.1-.984,3.242,3.242,0,0,1,1.6-.375q2.781,0,2.828,2.945V41H36.535V35.422a1.941,1.941,0,0,0-.414-1.355,1.823,1.823,0,0,0-1.391-.449,1.916,1.916,0,0,0-1.336.48,1.949,1.949,0,0,0-.617,1.293V41H31.324V35.461a1.613,1.613,0,0,0-1.8-1.844,1.934,1.934,0,0,0-1.945,1.211V41H26.129V32.547Zm19.8,4.32a5.062,5.062,0,0,1-.883,3.109,2.829,2.829,0,0,1-2.391,1.18,3.1,3.1,0,0,1-2.422-.977v4.07H40.16v-11.7h1.32l.07.938A2.977,2.977,0,0,1,44,32.391a2.882,2.882,0,0,1,2.41,1.148,5.117,5.117,0,0,1,.887,3.2ZM45.855,36.7a3.735,3.735,0,0,0-.609-2.258,1.963,1.963,0,0,0-1.672-.828,2.125,2.125,0,0,0-1.969,1.164V38.82a2.129,2.129,0,0,0,1.984,1.156,1.954,1.954,0,0,0,1.652-.824A4.077,4.077,0,0,0,45.855,36.7Zm2.9-.008a4.993,4.993,0,0,1,.488-2.234A3.643,3.643,0,0,1,50.6,32.93a3.7,3.7,0,0,1,1.988-.539,3.565,3.565,0,0,1,2.793,1.2,4.6,4.6,0,0,1,1.066,3.18v.1a5.036,5.036,0,0,1-.473,2.215,3.589,3.589,0,0,1-1.352,1.527,3.743,3.743,0,0,1-2.02.547,3.556,3.556,0,0,1-2.785-1.2A4.575,4.575,0,0,1,48.754,36.8Zm1.453.172a3.616,3.616,0,0,0,.652,2.258,2.211,2.211,0,0,0,3.5-.012A3.955,3.955,0,0,0,55,36.7a3.61,3.61,0,0,0-.66-2.254,2.1,2.1,0,0,0-1.754-.863,2.075,2.075,0,0,0-1.727.852A3.925,3.925,0,0,0,50.207,36.867Zm12.141-3.023a4.331,4.331,0,0,0-.711-.055A1.9,1.9,0,0,0,59.707,35v6H58.262V32.547h1.406l.023.977a2.251,2.251,0,0,1,2.016-1.133,1.477,1.477,0,0,1,.641.109Zm3.68-3.344v2.047h1.578v1.117H66.027v5.249a1.173,1.173,0,0,0,.211.763.888.888,0,0,0,.719.254,3.5,3.5,0,0,0,.688-.094V41a4.215,4.215,0,0,1-1.109.155,1.8,1.8,0,0,1-1.461-.586,2.517,2.517,0,0,1-.492-1.664V33.664H63.043V32.547h1.539V30.5ZM74.512,41a3.036,3.036,0,0,1-.2-.891A3.225,3.225,0,0,1,71.9,41.156a2.984,2.984,0,0,1-2.051-.707,2.288,2.288,0,0,1-.8-1.793,2.39,2.39,0,0,1,1-2.051,4.733,4.733,0,0,1,2.824-.73h1.406v-.664A1.623,1.623,0,0,0,73.832,34a1.821,1.821,0,0,0-1.336-.449,2.107,2.107,0,0,0-1.3.391,1.151,1.151,0,0,0-.523.945H69.223a2,2,0,0,1,.449-1.223,3.066,3.066,0,0,1,1.219-.934,4.1,4.1,0,0,1,1.691-.344,3.342,3.342,0,0,1,2.289.73,2.635,2.635,0,0,1,.859,2.012v3.891a4.757,4.757,0,0,0,.3,1.852V41Zm-2.4-1.1a2.54,2.54,0,0,0,1.289-.352,2.127,2.127,0,0,0,.883-.914V36.9H73.152q-2.656,0-2.656,1.555a1.316,1.316,0,0,0,.453,1.063A1.742,1.742,0,0,0,72.113,39.9Zm9.273.078a2.082,2.082,0,0,0,1.352-.469,1.649,1.649,0,0,0,.641-1.172h1.367a2.621,2.621,0,0,1-.5,1.383,3.293,3.293,0,0,1-1.23,1.047,3.55,3.55,0,0,1-1.629.391A3.482,3.482,0,0,1,78.641,40a4.59,4.59,0,0,1-1.02-3.152v-.242a5.089,5.089,0,0,1,.453-2.2,3.451,3.451,0,0,1,1.3-1.492,3.7,3.7,0,0,1,2-.531,3.39,3.39,0,0,1,2.363.852,3.043,3.043,0,0,1,1,2.211H83.379a1.992,1.992,0,0,0-.621-1.348,1.932,1.932,0,0,0-1.379-.527,2.023,2.023,0,0,0-1.707.793,3.724,3.724,0,0,0-.605,2.293v.273a3.65,3.65,0,0,0,.6,2.25A2.033,2.033,0,0,0,81.387,39.977ZM87.941,41H86.5V32.547h1.445ZM86.379,30.3a.863.863,0,0,1,.215-.594.807.807,0,0,1,.637-.242.819.819,0,0,1,.641.242.854.854,0,0,1,.219.594.826.826,0,0,1-.219.586.834.834,0,0,1-.641.234.821.821,0,0,1-.637-.234A.834.834,0,0,1,86.379,30.3ZM89.871,36.7a4.993,4.993,0,0,1,.488-2.234,3.643,3.643,0,0,1,1.359-1.531,3.7,3.7,0,0,1,1.988-.539,3.565,3.565,0,0,1,2.793,1.2,4.6,4.6,0,0,1,1.066,3.18v.1a5.036,5.036,0,0,1-.473,2.215,3.589,3.589,0,0,1-1.352,1.527,3.743,3.743,0,0,1-2.02.547,3.556,3.556,0,0,1-2.785-1.2A4.575,4.575,0,0,1,89.871,36.8Zm1.453.172a3.616,3.616,0,0,0,.652,2.258,2.211,2.211,0,0,0,3.5-.012,3.955,3.955,0,0,0,.648-2.418,3.61,3.61,0,0,0-.66-2.254,2.1,2.1,0,0,0-1.754-.863,2.075,2.075,0,0,0-1.727.852A3.925,3.925,0,0,0,91.324,36.867Zm9.422-4.32.047,1.063a3.08,3.08,0,0,1,2.531-1.219q2.68,0,2.7,3.023V41h-1.445V35.406a1.946,1.946,0,0,0-.418-1.352,1.675,1.675,0,0,0-1.277-.437,2.086,2.086,0,0,0-1.234.375,2.546,2.546,0,0,0-.828.984V41H99.379V32.547Zm10.969,8.609a3.693,3.693,0,0,1-2.8-1.129,4.19,4.19,0,0,1-1.078-3.02v-.266a5.073,5.073,0,0,1,.48-2.246,3.748,3.748,0,0,1,1.344-1.547,3.378,3.378,0,0,1,1.871-.559,3.166,3.166,0,0,1,2.563,1.086,4.7,4.7,0,0,1,.914,3.109v.6h-5.727a3,3,0,0,0,.73,2.02,2.3,2.3,0,0,0,1.777.77,2.517,2.517,0,0,0,1.3-.312,3.259,3.259,0,0,0,.93-.828l.883.688A3.55,3.55,0,0,1,111.715,41.156Zm-.18-7.578a1.928,1.928,0,0,0-1.469.637A3.1,3.1,0,0,0,109.332,36h4.234v-.109a2.753,2.753,0,0,0-.594-1.707A1.815,1.815,0,0,0,111.535,33.578Zm10.07,5.18a1.064,1.064,0,0,0-.441-.91,4.249,4.249,0,0,0-1.539-.559,7.277,7.277,0,0,1-1.742-.562,2.479,2.479,0,0,1-.953-.781,1.869,1.869,0,0,1-.309-1.078,2.193,2.193,0,0,1,.879-1.758,3.432,3.432,0,0,1,2.246-.719,3.532,3.532,0,0,1,2.332.742,2.357,2.357,0,0,1,.895,1.9H121.52a1.3,1.3,0,0,0-.5-1.023,1.888,1.888,0,0,0-1.27-.43,1.976,1.976,0,0,0-1.234.344,1.082,1.082,0,0,0-.445.9.877.877,0,0,0,.414.789,5.1,5.1,0,0,0,1.5.508,7.8,7.8,0,0,1,1.754.578,2.558,2.558,0,0,1,1,.809,1.988,1.988,0,0,1,.324,1.152,2.163,2.163,0,0,1-.906,1.816,3.8,3.8,0,0,1-2.352.684A4.257,4.257,0,0,1,118,40.8a2.922,2.922,0,0,1-1.223-1,2.42,2.42,0,0,1-.441-1.395h1.445a1.5,1.5,0,0,0,.582,1.152,2.258,2.258,0,0,0,1.434.426,2.331,2.331,0,0,0,1.316-.332A1.02,1.02,0,0,0,121.605,38.758Z" transform="translate(-2057 -8788)" fill="#12263f"/>
      <path id="Trazado_162209" data-name="Trazado 162209" d="M93.366,379.8a8.224,8.224,0,0,0-3.287.683,7.883,7.883,0,0,0-10.158-9.368,9.961,9.961,0,0,0-19.227-1.337,13.016,13.016,0,1,0-24.142,9.342,8.617,8.617,0,0,0,.44,17.223H93.366a8.271,8.271,0,0,0,0-16.543Z" transform="translate(-2044.026 -9225.74)" fill="#1db2cc"/>
      <path id="Trazado_162210" data-name="Trazado 162210" d="M61.964,396.41h9.16V385.944H77.4L66.544,374.793,55.691,385.944h6.273Z" transform="translate(-2044.026 -9225.74)" fill="#c1c1c1" opacity="0.5" style="mix-blend-mode: multiply;isolation: isolate"/>
      <path id="Trazado_162211" data-name="Trazado 162211" d="M72.764,385.944,61.911,374.793,51.058,385.944h6.273V400.68h9.16V385.944Z" transform="translate(-2044.026 -9225.74)" fill="#f9f9f9"/>
      <path id="Trazado_162212" data-name="Trazado 162212" d="M80.618,396.284h6.064v-6.928h4.153l-7.185-7.382-7.185,7.382h4.153Z" transform="translate(-2044.026 -9225.74)" fill="#c1c1c1" opacity="0.5" style="mix-blend-mode: multiply;isolation: isolate"/>
      <path id="Trazado_162213" data-name="Trazado 162213" d="M87.768,389.355l-7.185-7.382L73.4,389.355h4.153v9.755h6.064v-9.755Z" transform="translate(-2044.026 -9225.74)" fill="#f9f9f9"/>
      <path id="Trazado_162214" data-name="Trazado 162214" d="M41.4,396.284h6.064v-6.928h4.153l-7.185-7.382-7.185,7.382H41.4Z" transform="translate(-2044.026 -9225.74)" fill="#c1c1c1" opacity="0.5" style="mix-blend-mode: multiply;isolation: isolate"/>
      <path id="Trazado_162215" data-name="Trazado 162215" d="M48.55,389.355l-7.185-7.382-7.185,7.382h4.153v9.755H44.4v-9.755Z" transform="translate(-2044.026 -9225.74)" fill="#f9f9f9"/>
      <path id="Trazado_162216" data-name="Trazado 162216" d="M63.688,423.144c-.737-1.342-5.906-2.693-6.849-2.929l-.453-.286a8.334,8.334,0,0,1-.122-1.077v-.011a6.849,6.849,0,0,1,.011-.775,5.8,5.8,0,0,0,1.7-2.063,8.993,8.993,0,0,0,.647-1.9c.349.2.923.287.834-.427-.131-1.04.551-2.065.261-2.814a.346.346,0,0,0-.171-.213c-.008-3.033-.148-5.005-2.534-6.043a10.836,10.836,0,0,0-2.843-.546,10.836,10.836,0,0,0-2.843.546c-2.412,1.049-2.529,3.054-2.534,6.144a.583.583,0,0,0-.057.112c-.291.749.392,1.774.261,2.814-.088.7.466.632.817.436A12.23,12.23,0,0,0,50.458,416a5.552,5.552,0,0,0,1.725,2.09,7.731,7.731,0,0,1-.109,1.832l-.37.259v-.01s-6.2,1.492-7.01,2.97c-.293.533-1.187,5.743-1.8,8.6H65.483C64.875,428.911,63.981,423.677,63.688,423.144ZM54.2,429.491h.085l-.038.1Z" transform="translate(-2044.026 -9225.74)" fill="#91909a"/>
      <path id="Trazado_162217" data-name="Trazado 162217" d="M86.892,423.144c-.738-1.342-5.907-2.693-6.849-2.929l-.454-.286a8.333,8.333,0,0,1-.122-1.077v-.011a6.849,6.849,0,0,1,.011-.775A5.8,5.8,0,0,0,81.18,416a9.042,9.042,0,0,0,.646-1.9c.35.2.923.287.834-.427-.131-1.04.551-2.065.261-2.814a.346.346,0,0,0-.171-.213c-.008-3.033-.148-5.005-2.534-6.043a10.836,10.836,0,0,0-2.843-.546,10.82,10.82,0,0,0-2.842.546C72.118,405.653,72,407.658,72,410.748a.583.583,0,0,0-.057.112c-.29.749.392,1.774.261,2.814-.088.7.466.632.817.436A12.247,12.247,0,0,0,73.662,416a5.54,5.54,0,0,0,1.724,2.09,7.718,7.718,0,0,1-.108,1.832l-.371.259v-.01s-6.2,1.492-7.011,2.97c-.293.533-1.187,5.743-1.8,8.6H88.686C88.078,428.911,87.184,423.677,86.892,423.144ZM77.4,429.491h.085l-.038.1Z" transform="translate(-2044.026 -9225.74)" fill="#91909a"/>
      <g id="Grupo_106460" data-name="Grupo 106460" transform="translate(-2044.026 -9225.74)">
        <path id="Trazado_162218" data-name="Trazado 162218" d="M44.874,401.891a11.913,11.913,0,0,0-3.127-.6,11.913,11.913,0,0,0-3.127.6c-2.755,1.2-2.788,3.524-2.788,7.148h11.83C47.662,405.415,47.629,403.089,44.874,401.891Z" fill="#aaa"/>
        <path id="Trazado_162219" data-name="Trazado 162219" d="M44.1,416.3H39.517a8.765,8.765,0,0,1-2.636,7.277l4.708,5.688h.441l4.708-5.688A8.765,8.765,0,0,1,44.1,416.3Z" fill="#fcc083"/>
        <path id="Trazado_162220" data-name="Trazado 162220" d="M39.518,416.3H44.1a8.458,8.458,0,0,0,.588,4.233c-1.915-.747-3.442-2.323-5.127-3.771C39.547,416.47,39.518,416.3,39.518,416.3Z" fill="#e8aa63"/>
        <path id="Trazado_162221" data-name="Trazado 162221" d="M39.269,419.522a8.912,8.912,0,0,1-2.388,4.056l4.708,5.688h.441l4.708-5.688a8.9,8.9,0,0,1-2.388-4.056l-2.517,1.391Z" fill="#e5e5e5"/>
        <path id="Trazado_162222" data-name="Trazado 162222" d="M47.85,408.772c-.178-.456-.486-.22-.727.08a7.431,7.431,0,0,0-1.8-5.34H38.3a7.4,7.4,0,0,0-1.823,5.314c-.237-.287-.533-.5-.7-.054-.319.824.431,1.952.288,3.1-.1.773.513.695.9.479a13.362,13.362,0,0,0,.708,2.082c.735,1.708,2.842,3.264,4.135,3.264s3.37-1.568,4.135-3.264a9.966,9.966,0,0,0,.711-2.091c.384.223,1.016.315.917-.47C47.418,410.724,48.169,409.6,47.85,408.772Z" fill="#fcc083"/>
        <path id="Trazado_162223" data-name="Trazado 162223" d="M41.833,420.913l1.377,1.875,2.2-3.266-1.237-.78Z" fill="#fff"/>
        <path id="Trazado_162224" data-name="Trazado 162224" d="M41.833,420.913l-1.377,1.875L38.21,419.6l1.233-.862Z" fill="#fff"/>
        <path id="Trazado_162225" data-name="Trazado 162225" d="M54.191,431.74c-.668-3.112-1.652-8.869-1.974-9.455-.893-1.626-7.712-3.267-7.712-3.267l0,.025-.086-.025a14.7,14.7,0,0,1-.825,5.473c-.349,1.066-.74,2.148-1.08,3.052-.134.356-.683,1.837-.683,1.837s-.675-1.481-.809-1.837c-.34-.9-.731-1.986-1.08-3.052a14.7,14.7,0,0,1-.825-5.473l-.085.025v-.025s-6.819,1.641-7.712,3.267c-.322.586-1.306,6.317-1.974,9.455Z" fill="#1db2cc"/>
        <path id="Trazado_162226" data-name="Trazado 162226" d="M37.291,403.8s3.614,7.552,9.735.2C47.026,404,41.993,399.2,37.291,403.8Z" fill="#aaa"/>
        <path id="Trazado_162227" data-name="Trazado 162227" d="M37.617,411.773c-.254-2.186-.47-7.3,2.8-8.726l-1-.484s-2.927.592-3.2,5.113l.785,4.772h.007A.606.606,0,0,0,37.617,411.773Z" fill="#aaa"/>
        <path id="Trazado_162228" data-name="Trazado 162228" d="M46.565,412.448H46.6l.78-4.742c-.269-4.521-3.2-5.113-3.2-5.113l-1,.485c3.269,1.425,3.057,6.531,2.8,8.719A.584.584,0,0,0,46.565,412.448Z" fill="#aaa"/>
      </g>
      <path id="Trazado_162229" data-name="Trazado 162229" d="M46.7,419.621c-1.425,4.169-2.266,8.089-3.439,12.119H54.191c-.668-3.112-1.652-8.869-1.974-9.455C51.657,421.266,48.777,420.243,46.7,419.621Z" transform="translate(-2044.026 -9225.74)" fill="#b3aab0" opacity="0.5" style="mix-blend-mode: multiply;isolation: isolate"/>
      <g id="Grupo_106461" data-name="Grupo 106461" transform="translate(-2044.026 -9225.74)">
        <path id="Trazado_162230" data-name="Trazado 162230" d="M90.43,401.891a11.913,11.913,0,0,0-3.127-.6,11.913,11.913,0,0,0-3.127.6c-2.755,1.2-2.788,3.524-2.788,7.148h11.83C93.218,405.415,93.185,403.089,90.43,401.891Z" fill="#ddab60"/>
        <path id="Trazado_162231" data-name="Trazado 162231" d="M89.658,416.3H85.073a8.765,8.765,0,0,1-2.636,7.277l4.708,5.688h.441l4.708-5.688A8.765,8.765,0,0,1,89.658,416.3Z" fill="#fcc083"/>
        <path id="Trazado_162232" data-name="Trazado 162232" d="M85.074,416.3H89.66a8.458,8.458,0,0,0,.588,4.233c-1.915-.747-3.442-2.323-5.127-3.771C85.1,416.47,85.074,416.3,85.074,416.3Z" fill="#e8aa63"/>
        <path id="Trazado_162233" data-name="Trazado 162233" d="M84.825,419.522a8.912,8.912,0,0,1-2.388,4.056l4.708,5.688h.441l4.708-5.688a8.912,8.912,0,0,1-2.388-4.056l-2.517,1.391Z" fill="#e5e5e5"/>
        <path id="Trazado_162234" data-name="Trazado 162234" d="M93.406,408.772c-.177-.456-.487-.22-.727.08a7.431,7.431,0,0,0-1.8-5.34H83.853a7.4,7.4,0,0,0-1.823,5.314c-.237-.287-.533-.5-.705-.054-.319.824.431,1.952.288,3.1-.1.773.513.695.9.479a13.361,13.361,0,0,0,.708,2.082c.735,1.708,2.842,3.264,4.135,3.264s3.37-1.568,4.135-3.264a9.909,9.909,0,0,0,.711-2.091c.385.223,1.016.315.917-.47C92.975,410.724,93.725,409.6,93.406,408.772Z" fill="#fcc083"/>
        <path id="Trazado_162235" data-name="Trazado 162235" d="M87.388,420.913l1.378,1.875,2.2-3.266-1.237-.78Z" fill="#fff"/>
        <path id="Trazado_162236" data-name="Trazado 162236" d="M87.388,420.913l-1.377,1.875L83.766,419.6,85,418.742Z" fill="#fff"/>
        <path id="Trazado_162237" data-name="Trazado 162237" d="M99.747,431.74c-.668-3.112-1.652-8.869-1.974-9.455-.893-1.626-7.712-3.267-7.712-3.267l0,.025-.086-.025a14.7,14.7,0,0,1-.826,5.473c-.348,1.066-.739,2.148-1.079,3.052-.134.356-.683,1.837-.683,1.837s-.675-1.481-.809-1.837c-.34-.9-.731-1.986-1.079-3.052a14.653,14.653,0,0,1-.825-5.473l-.086.025v-.025s-6.819,1.641-7.712,3.267c-.322.586-1.306,6.317-1.974,9.455Z" fill="#f65138"/>
        <path id="Trazado_162238" data-name="Trazado 162238" d="M82.847,403.8s3.615,7.552,9.735.2C92.582,404,87.55,399.2,82.847,403.8Z" fill="#ddab60"/>
        <path id="Trazado_162239" data-name="Trazado 162239" d="M83.173,411.773c-.254-2.186-.47-7.3,2.8-8.726l-1-.484s-2.927.592-3.2,5.113l.785,4.772h.007A.606.606,0,0,0,83.173,411.773Z" fill="#ddab60"/>
        <path id="Trazado_162240" data-name="Trazado 162240" d="M92.121,412.448h.033l.78-4.742c-.269-4.521-3.2-5.113-3.2-5.113l-1,.485c3.27,1.425,3.057,6.531,2.8,8.719A.584.584,0,0,0,92.121,412.448Z" fill="#ddab60"/>
      </g>
      <path id="Trazado_162241" data-name="Trazado 162241" d="M82.584,419.565c-2.086.616-5.128,1.67-5.705,2.72-.322.586-1.306,6.317-1.974,9.455H84.979C84.69,427.627,82.584,419.565,82.584,419.565Z" transform="translate(-2044.026 -9225.74)" fill="#d1aa81" opacity="0.5" style="mix-blend-mode: multiply;isolation: isolate"/>
      <g id="Grupo_106462" data-name="Grupo 106462" transform="translate(-2044.026 -9225.74)">
        <path id="Trazado_162242" data-name="Trazado 162242" d="M68.4,394.433a14.871,14.871,0,0,0-3.908-.751,14.855,14.855,0,0,0-3.908.751c-3.444,1.5-3.485,4.4-3.485,8.935H71.882C71.882,398.838,71.841,395.931,68.4,394.433Z" fill="#474656"/>
        <path id="Trazado_162243" data-name="Trazado 162243" d="M67.433,412.444H61.7a10.956,10.956,0,0,1-3.294,9.1l5.884,7.109h.551l5.884-7.109A10.956,10.956,0,0,1,67.433,412.444Z" fill="#fcc083"/>
        <path id="Trazado_162244" data-name="Trazado 162244" d="M61.7,412.444h5.731a10.58,10.58,0,0,0,.736,5.291c-2.394-.934-4.3-2.9-6.408-4.714C61.74,412.655,61.7,412.444,61.7,412.444Z" fill="#e8aa63"/>
        <path id="Trazado_162245" data-name="Trazado 162245" d="M61.393,416.47a11.147,11.147,0,0,1-2.985,5.069l5.884,7.109h.551l5.884-7.109a11.147,11.147,0,0,1-2.985-5.069L64.6,418.208Z" fill="#e5e5e5"/>
        <path id="Trazado_162246" data-name="Trazado 162246" d="M72.117,403.034c-.221-.571-.608-.276-.909.1a9.287,9.287,0,0,0-2.251-6.675H60.178A9.242,9.242,0,0,0,57.9,403.1c-.3-.36-.667-.622-.882-.068-.4,1.029.539,2.439.36,3.869-.122.966.641.869,1.123.6a16.788,16.788,0,0,0,.886,2.6c.918,2.135,3.551,4.079,5.168,4.079s4.211-1.959,5.167-4.079a12.361,12.361,0,0,0,.889-2.614c.481.279,1.27.394,1.147-.587C71.578,405.473,72.516,404.063,72.117,403.034Z" fill="#fcc083"/>
        <path id="Trazado_162247" data-name="Trazado 162247" d="M64.6,418.208l1.722,2.344,2.754-4.081-1.547-.975Z" fill="#fff"/>
        <path id="Trazado_162248" data-name="Trazado 162248" d="M64.6,418.208l-1.722,2.344-2.806-3.979,1.541-1.077Z" fill="#fff"/>
        <path id="Trazado_162249" data-name="Trazado 162249" d="M80.042,431.74c-.835-3.889-2.064-11.085-2.467-11.818-1.116-2.031-9.638-4.083-9.638-4.083l0,.032-.108-.032a18.324,18.324,0,0,1-1.031,6.84c-.435,1.333-.924,2.686-1.35,3.816-.167.444-.854,2.3-.854,2.3s-.842-1.851-1.01-2.3c-.425-1.13-.914-2.483-1.349-3.816a18.323,18.323,0,0,1-1.031-6.84l-.108.032,0-.032s-8.523,2.052-9.639,4.083c-.4.733-1.632,7.9-2.467,11.818Z" fill="#474656"/>
        <path id="Trazado_162250" data-name="Trazado 162250" d="M58.92,396.813s4.518,9.439,12.167.253C71.087,397.066,64.8,391.073,58.92,396.813Z" fill="#474656"/>
        <path id="Trazado_162251" data-name="Trazado 162251" d="M59.327,406.784c-.317-2.732-.587-9.122,3.5-10.9l-1.252-.606s-3.658.74-3.994,6.391l.981,5.964h.009A.756.756,0,0,0,59.327,406.784Z" fill="#474656"/>
        <path id="Trazado_162252" data-name="Trazado 162252" d="M70.512,407.628h.04l.975-5.927c-.336-5.65-4-6.39-4-6.39l-1.252.606c4.087,1.781,3.821,8.162,3.5,10.9A.73.73,0,0,0,70.512,407.628Z" fill="#474656"/>
      </g>
      <path id="Trazado_162253" data-name="Trazado 162253" d="M78.75,351.844c3.162.256,6.04,1.624,6.04,4.786H79.519c-.028-1.2-1.253-1.453-2.022-1.453-.485,0-2.051,0-2.051.969,0,2.165,9.714-.086,9.714,6.039,0,3.675-2.877,5.042-6.41,5.3l.228,3.9H75.759l.2-3.932c-3.276-.342-6.324-1.881-6.324-5.185H74.9v.114c.029,1.453,1.652,1.738,2.479,1.738.8,0,2.364-.058,2.364-1.111,0-2.251-9.714-.2-9.714-6.125,0-3.419,2.649-4.729,5.925-5.014l-.2-3.932h3.219Z" transform="translate(-2044.026 -9225.74)" fill="#ffd64b"/>
      <path id="Trazado_162254" data-name="Trazado 162254" d="M46.295,353.182c2.376.192,4.537,1.219,4.537,3.6H46.873c-.021-.9-.942-1.091-1.519-1.091-.364,0-1.541,0-1.541.728,0,1.626,7.3-.065,7.3,4.536,0,2.761-2.161,3.788-4.815,3.981l.171,2.932H44.048l.15-2.954c-2.461-.256-4.751-1.413-4.751-3.894h3.959v.085c.022,1.091,1.241,1.306,1.862,1.306.6,0,1.776-.044,1.776-.835,0-1.691-7.3-.15-7.3-4.6,0-2.569,1.99-3.552,4.451-3.767l-.15-2.953h2.418Z" transform="translate(-2044.026 -9225.74)" fill="#ffd64b"/>
      <path id="Trazado_162255" data-name="Trazado 162255" d="M30.874,370.861c2.376.192,4.537,1.219,4.537,3.6H31.452c-.021-.9-.941-1.091-1.519-1.091-.364,0-1.541,0-1.541.728,0,1.626,7.3-.065,7.3,4.536,0,2.761-2.161,3.788-4.815,3.981l.171,2.932H28.627l.15-2.954c-2.461-.256-4.751-1.413-4.751-3.894h3.959v.085c.022,1.091,1.241,1.306,1.862,1.306.6,0,1.776-.044,1.776-.835,0-1.691-7.3-.15-7.3-4.6,0-2.569,1.99-3.552,4.451-3.767l-.15-2.953h2.418Z" transform="translate(-2044.026 -9225.74)" fill="#ffd64b"/>
      <path id="Trazado_162256" data-name="Trazado 162256" d="M95.584,370.861c2.375.192,4.537,1.219,4.537,3.6H96.162c-.022-.9-.942-1.091-1.52-1.091-.363,0-1.541,0-1.541.728,0,1.626,7.3-.065,7.3,4.536,0,2.761-2.162,3.788-4.815,3.981l.171,2.932H93.337l.15-2.954c-2.462-.256-4.751-1.413-4.751-3.894h3.959v.085c.021,1.091,1.241,1.306,1.862,1.306.6,0,1.776-.044,1.776-.835,0-1.691-7.3-.15-7.3-4.6,0-2.569,1.989-3.552,4.451-3.767l-.15-2.953h2.418Z" transform="translate(-2044.026 -9225.74)" fill="#ffd64b"/>
      <path id="Trazado_162257" data-name="Trazado 162257" d="M61.865,354.814c1.715.139,3.276.88,3.276,2.6H62.282c-.016-.649-.68-.788-1.1-.788-.263,0-1.113,0-1.113.526,0,1.174,5.27-.047,5.27,3.276,0,1.994-1.561,2.736-3.477,2.875l.123,2.118H60.242l.108-2.133c-1.778-.186-3.432-1.021-3.432-2.813h2.86v.061c.015.789.9.943,1.345.943.432,0,1.282-.031,1.282-.6,0-1.221-5.27-.108-5.27-3.323,0-1.855,1.437-2.565,3.215-2.72l-.108-2.133h1.746Z" transform="translate(-2044.026 -9225.74)" fill="#ffd64b"/>
    </g>
  </g>
</svg>
