<svg xmlns="http://www.w3.org/2000/svg" width="315.426" height="245.917" viewBox="0 0 315.426 245.917">
  <g id="Grupo_106470" data-name="Grupo 106470" transform="translate(-236.529 -136.942)">
    <path id="Trazado_162129" data-name="Trazado 162129" d="M340.452,199.452c-2.014-2-4.05-9.847-6.054-11.938-12.265-12.791-23.406-26.582-22.693-33.867,1.558-15.871,36.031,8.355,36.031,8.355s-1.525-25.06,17.158-25.06S382.048,162,382.048,162s34.477-24.226,36.031-8.355c.713,7.263-10.358,20.991-22.579,33.749-2.04,2.128-4.113,10.016-6.168,12.056,41.42,12.251,68.505,39.476,75.338,92.36,2.323,17.981,3.558,42.684-3.359,57.725-5.565,12.111-13.166,20.892-26.9,24.814-1.981.562-14.816.9-16.856,1.187a450.349,450.349,0,0,1-59.07,4.062c-24.148,0-40.229-2.628-46.529-3.885a43.207,43.207,0,0,1-5.127-1.327c-14.8-4.881-21.223-11.618-26.81-23.3a120.037,120.037,0,0,1-11.552-51.8C268.466,248.554,299.032,211.7,340.452,199.452Z" transform="translate(85.451 0)" fill="#75bd38"/>
    <path id="Trazado_162130" data-name="Trazado 162130" d="M280.4,209.368a42.5,42.5,0,1,0,42.5-42.5A42.492,42.492,0,0,0,280.4,209.368Z" transform="translate(117.373 80.077)" fill="#474656"/>
    <path id="Trazado_162131" data-name="Trazado 162131" d="M327.739,214.894c-.114-11.339-12.387-12.92-12.387-12.92-1.709-.026-3.264-.125-4.679-.276V184.237c6.612,1.819,4.414,8.237,4.414,8.237h10.549s4.315-16.375-14.963-18.7v-1.445a3.692,3.692,0,0,0-7.38,0v1.242c-16.959,1.007-17.209,12.089-17,18.382.217,6.134,1.444,13.864,17,17.036v17.444c-6.377-2.33-4.808-10.74-4.808-10.74H286.341c-.489,5.62-.125,16.2,16.952,17.735v2.94a3.692,3.692,0,0,0,7.38,0v-2.83C322.777,232.868,327.889,227.851,327.739,214.894Zm-30.581-22.421s-.342-6.553,6.135-8.285v15.717C296.761,197.112,297.158,192.473,297.158,192.473ZM310.673,226.5V210.469C320.744,213.862,318.781,224.083,310.673,226.5Z" transform="translate(132.975 85.088)" fill="#e5e5e5"/>
    <path id="Trazado_162132" data-name="Trazado 162132" d="M386.642,283.571c-6.028-46.669-27.85-73.335-61.36-87.383-.551-.114-1.081-.279-1.639-.382h.136a103.752,103.752,0,0,0-12.475-4.594c1.161-1.15,2.327-4.161,3.488-6.951l.044-.107.022-.052a18.706,18.706,0,0,1,2.614-4.947c1-1.04,1.977-2.088,2.955-3.135l.011-.015q1.886-2.029,3.731-4.1c.176-.195.342-.393.518-.592.886-1,1.757-2.018,2.621-3.04.356-.423.717-.849,1.066-1.268,1.059-1.283,2.1-2.58,3.1-3.907l.2-.257q1.709-2.255,3.286-4.606c.107-.162.228-.342.346-.522,3.183-4.9,5.05-9.2,4.745-12.309a6,6,0,0,0-1.584-3.79,5.183,5.183,0,0,0-.555-.5h0a6.013,6.013,0,0,0-.834-.5c-3.826-1.757-10.7.581-17.191,3.753l-.426.21c.974,5.08-2.771,10.49-5.473,14.445a152.722,152.722,0,0,1-15.327,18.4h0c-2.86,3.775.683,15.382,4.859,18.378H303.2a99.271,99.271,0,0,1,53.748,58.559,115.816,115.816,0,0,1,5.495,46.753c-1.36,16.775-5.84,34.844-15.43,48.9-5.013,7.351-11.5,14.537-19.455,18.742,5.245-.562,9.358-1.1,11.971-1.463,2.04-.287,14.875-.625,16.856-1.187,13.736-3.922,21.337-12.7,26.9-24.814C390.2,326.255,388.965,301.552,386.642,283.571Z" transform="translate(163.48 8.241)" fill="#598e38" opacity="0.5" style="mix-blend-mode: multiply;isolation: isolate"/>
    <path id="Trazado_162133" data-name="Trazado 162133" d="M302.566,159.755c-20.5,18.69-33.661,46.437-34.087,80.315l0,.011a123.248,123.248,0,0,0,3.168,26.126c.029.121.066.239.092.36q.695,2.933,1.521,5.8c.107.379.239.742.353,1.121.5,1.65,1.007,3.293,1.569,4.907.283.8.6,1.573.9,2.363.441,1.18.867,2.371,1.345,3.529q1.18,2.861,2.5,5.631l.055.125c1.7,3.562,6.219,9.38,12.089,15.9a48.45,48.45,0,0,0,14.721,7.4,43.2,43.2,0,0,0,5.127,1.327c5.947,1.184,20.627,3.595,42.574,3.859,6.851-27.258,1.93-66.825-6.443-94.558C338.065,190.909,325.807,173.333,302.566,159.755Z" transform="translate(85.486 61.038)" fill="#598e38" opacity="0.55" style="mix-blend-mode: multiply;isolation: isolate"/>
    <g id="Grupo_106375" data-name="Grupo 106375" transform="translate(236.529 189.95)">
      <g id="Grupo_106373" data-name="Grupo 106373" transform="translate(12.881 17.396)">
        <path id="Trazado_162134" data-name="Trazado 162134" d="M381.972,249.242c-5.138,34.282-22.634,58.783-58.875,67.524-3.991.963-30.084.676-30.084.676s-50.4-40.736-45-84.659,59.427-74.4,59.427-74.4c5.069.621,29.4,8.549,33.992,10.4C370.342,180.428,387.632,211.471,381.972,249.242Z" transform="translate(-219.777 -149.992)" fill="#d21b00"/>
        <ellipse id="Elipse_502" data-name="Elipse 502" cx="80.127" cy="67.484" rx="80.127" ry="67.484" transform="translate(0 159.058) rotate(-82.997)" fill="#f65138"/>
        <ellipse id="Elipse_503" data-name="Elipse 503" cx="61.569" cy="51.854" rx="61.569" ry="51.854" transform="matrix(0.122, -0.993, 0.993, 0.122, 17.776, 142.544)" fill="#fff"/>
        <ellipse id="Elipse_504" data-name="Elipse 504" cx="45.872" cy="38.634" rx="45.872" ry="38.634" transform="matrix(0.122, -0.993, 0.993, 0.122, 32.811, 128.577)" fill="#f65138"/>
        <path id="Trazado_162135" data-name="Trazado 162135" d="M305.783,205.61c-2.08,16.952-15.342,29.272-29.621,27.519S252,216.21,254.082,199.258s15.345-29.268,29.621-27.515S307.867,188.658,305.783,205.61Z" transform="translate(-203.183 -114.678)" fill="#fff"/>
        <path id="Trazado_162136" data-name="Trazado 162136" d="M284.264,193.315c-1.084,8.821-7.983,15.232-15.415,14.32s-12.57-8.8-11.49-17.624,7.987-15.235,15.415-14.32S285.348,184.493,284.264,193.315Z" transform="translate(-194.062 -103.904)" fill="#f65138"/>
      </g>
      <path id="Trazado_162137" data-name="Trazado 162137" d="M294.912,203.375l-.922,1-31.184-24.421c-.54.184-1.077.375-1.61.577-.213.1-.426.206-.625.3l24.023,34.021-1.143,1.242,20.385,24.45a81.234,81.234,0,0,0,12.4-15.676Z" transform="translate(-172.201 -74.858)" fill="#b35c45" opacity="0.67" style="mix-blend-mode: multiply;isolation: isolate"/>
      <g id="Grupo_106374" data-name="Grupo 106374">
        <path id="Trazado_162138" data-name="Trazado 162138" d="M280.31,203.1c.184-.059.364-.121.537-.18l-21.465-31.338-5.5,4.484,25.064,27.361C279.4,203.321,279.858,203.215,280.31,203.1Z" transform="translate(-190.106 -97.276)" fill="#5c5248"/>
        <rect id="Rectángulo_33906" data-name="Rectángulo 33906" width="8.583" height="81.099" transform="translate(16.009 21.265) rotate(-39.174)" fill="#51555d"/>
        <path id="Trazado_162139" data-name="Trazado 162139" d="M241.261,165.648s-4.036-15.393,9.266-14.221,19.319,33.128,16.79,46.2Z" transform="translate(-225.407 -151.364)" fill="#f65138"/>
        <path id="Trazado_162140" data-name="Trazado 162140" d="M252.383,156.618s-14.258-7.064-15.8,6.2,28.544,25.615,41.854,25.78Z" transform="translate(-236.529 -142.334)" fill="#d21b00"/>
        <path id="Trazado_162141" data-name="Trazado 162141" d="M238.46,152.325s6.072,15.533,34.811,42.728C252.445,161.411,238.46,152.325,238.46,152.325Z" transform="translate(-231.361 -148.792)" fill="#f86f5b"/>
      </g>
    </g>
    <path id="Trazado_162142" data-name="Trazado 162142" d="M358.812,168.577H284.606c4.172-3,7.719-14.6,4.859-18.378h64.491C351.1,153.974,354.64,165.581,358.812,168.577Z" transform="translate(128.634 35.47)" fill="#474656"/>
  </g>
</svg>
