<svg xmlns="http://www.w3.org/2000/svg" width="189" height="198" viewBox="0 0 189 198">
  <g id="Grupo_112869" data-name="Grupo 112869" transform="translate(2700 9299)">
    <g id="Trazado_168237" data-name="Trazado 168237" transform="translate(-2700 -9299)" fill="#fff">
      <path d="M 187.5 196.5 L 1.5 196.5 L 1.5 1.5 L 187.5 1.5 L 187.5 196.5 Z" stroke="none"/>
      <path d="M 3 3 L 3 195 L 186 195 L 186 3 L 3 3 M 0 0 L 189 0 L 189 198 L 0 198 L 0 0 Z" stroke="none" fill="#45208f"/>
    </g>
    <path id="Trazado_168238" data-name="Trazado 168238" d="M24.563,11.742h-4.93v4.031h5.727V17H18.133V5.625h7.148V6.852H19.633v3.664h4.93Zm3.8-3.2.047,1.063a3.08,3.08,0,0,1,2.531-1.219q2.68,0,2.7,3.023V17H32.2V11.406a1.946,1.946,0,0,0-.418-1.352,1.675,1.675,0,0,0-1.277-.437,2.086,2.086,0,0,0-1.234.375,2.546,2.546,0,0,0-.828.984V17H27V8.547ZM35.477,12.7A4.952,4.952,0,0,1,36.4,9.574a3.137,3.137,0,0,1,4.766-.168V5h1.445V17H41.281l-.07-.906A2.943,2.943,0,0,1,38.8,17.156a2.887,2.887,0,0,1-2.395-1.2,5.008,5.008,0,0,1-.926-3.141Zm1.445.164a3.749,3.749,0,0,0,.594,2.25,1.92,1.92,0,0,0,1.641.813A2.108,2.108,0,0,0,41.164,14.7V10.813a2.125,2.125,0,0,0-1.992-1.2,1.929,1.929,0,0,0-1.656.82A4.128,4.128,0,0,0,36.922,12.867Zm11.438,4.289a3.693,3.693,0,0,1-2.8-1.129,4.19,4.19,0,0,1-1.078-3.02v-.266a5.073,5.073,0,0,1,.48-2.246,3.748,3.748,0,0,1,1.344-1.547,3.378,3.378,0,0,1,1.871-.559,3.166,3.166,0,0,1,2.563,1.086,4.7,4.7,0,0,1,.914,3.109v.6H45.93a3,3,0,0,0,.73,2.02,2.3,2.3,0,0,0,1.777.77,2.517,2.517,0,0,0,1.3-.312,3.259,3.259,0,0,0,.93-.828l.883.688A3.55,3.55,0,0,1,48.359,17.156Zm-.18-7.578a1.928,1.928,0,0,0-1.469.637A3.1,3.1,0,0,0,45.977,12h4.234v-.109a2.753,2.753,0,0,0-.594-1.707A1.815,1.815,0,0,0,48.18,9.578Zm10.367,6.586a3.07,3.07,0,0,1-2.477.992,2.628,2.628,0,0,1-2.059-.785,3.4,3.4,0,0,1-.715-2.324v-5.5h1.445v5.461q0,1.922,1.563,1.922a2.163,2.163,0,0,0,2.2-1.234V8.547h1.445V17H58.578ZM61.8,12.7a4.952,4.952,0,0,1,.922-3.129,3.137,3.137,0,0,1,4.766-.168V5H68.93V17H67.6l-.07-.906a2.943,2.943,0,0,1-2.414,1.063,2.887,2.887,0,0,1-2.395-1.2,5.008,5.008,0,0,1-.926-3.141Zm1.445.164a3.749,3.749,0,0,0,.594,2.25,1.92,1.92,0,0,0,1.641.813A2.108,2.108,0,0,0,67.484,14.7V10.813a2.125,2.125,0,0,0-1.992-1.2,1.929,1.929,0,0,0-1.656.82A4.128,4.128,0,0,0,63.242,12.867ZM76.391,17a3.036,3.036,0,0,1-.2-.891,3.225,3.225,0,0,1-2.406,1.047,2.984,2.984,0,0,1-2.051-.707,2.288,2.288,0,0,1-.8-1.793,2.39,2.39,0,0,1,1-2.051,4.733,4.733,0,0,1,2.824-.73h1.406v-.664A1.623,1.623,0,0,0,75.711,10a1.821,1.821,0,0,0-1.336-.449,2.108,2.108,0,0,0-1.3.391,1.151,1.151,0,0,0-.523.945H71.1a2,2,0,0,1,.449-1.223,3.066,3.066,0,0,1,1.219-.934,4.1,4.1,0,0,1,1.691-.344,3.342,3.342,0,0,1,2.289.73,2.635,2.635,0,0,1,.859,2.012v3.891a4.757,4.757,0,0,0,.3,1.852V17Zm-2.4-1.1a2.54,2.54,0,0,0,1.289-.352,2.127,2.127,0,0,0,.883-.914V12.9H75.031q-2.656,0-2.656,1.555a1.316,1.316,0,0,0,.453,1.063A1.742,1.742,0,0,0,73.992,15.9Zm7.242-7.352.039.938a3.122,3.122,0,0,1,2.508-1.094A2.417,2.417,0,0,1,86.2,9.75a3.2,3.2,0,0,1,1.1-.984,3.242,3.242,0,0,1,1.6-.375q2.781,0,2.828,2.945V17H90.273V11.422a1.941,1.941,0,0,0-.414-1.355,1.823,1.823,0,0,0-1.391-.449,1.916,1.916,0,0,0-1.336.48,1.949,1.949,0,0,0-.617,1.293V17H85.063V11.461a1.613,1.613,0,0,0-1.8-1.844,1.934,1.934,0,0,0-1.945,1.211V17H79.867V8.547ZM95.469,17H94.023V8.547h1.445ZM93.906,6.3a.863.863,0,0,1,.215-.594.807.807,0,0,1,.637-.242.819.819,0,0,1,.641.242.854.854,0,0,1,.219.594.826.826,0,0,1-.219.586.834.834,0,0,1-.641.234.821.821,0,0,1-.637-.234A.834.834,0,0,1,93.906,6.3Zm7.383,10.852a3.693,3.693,0,0,1-2.8-1.129,4.19,4.19,0,0,1-1.078-3.02v-.266a5.073,5.073,0,0,1,.48-2.246,3.748,3.748,0,0,1,1.344-1.547,3.378,3.378,0,0,1,1.871-.559,3.166,3.166,0,0,1,2.563,1.086,4.7,4.7,0,0,1,.914,3.109v.6H98.859a3,3,0,0,0,.73,2.02,2.3,2.3,0,0,0,1.777.77,2.517,2.517,0,0,0,1.3-.312,3.259,3.259,0,0,0,.93-.828l.883.688A3.55,3.55,0,0,1,101.289,17.156Zm-.18-7.578a1.928,1.928,0,0,0-1.469.637A3.1,3.1,0,0,0,98.906,12h4.234v-.109a2.753,2.753,0,0,0-.594-1.707A1.815,1.815,0,0,0,101.109,9.578Zm6.516-1.031.047,1.063A3.08,3.08,0,0,1,110.2,8.391q2.68,0,2.7,3.023V17h-1.445V11.406a1.946,1.946,0,0,0-.418-1.352,1.675,1.675,0,0,0-1.277-.437,2.086,2.086,0,0,0-1.234.375,2.546,2.546,0,0,0-.828.984V17h-1.445V8.547ZM117.047,6.5V8.547h1.578V9.664h-1.578v5.249a1.173,1.173,0,0,0,.211.763.888.888,0,0,0,.719.254,3.5,3.5,0,0,0,.688-.094V17a4.215,4.215,0,0,1-1.109.155,1.8,1.8,0,0,1-1.461-.586,2.517,2.517,0,0,1-.492-1.664V9.664h-1.539V8.547H115.6V6.5Zm2.727,6.2a4.993,4.993,0,0,1,.488-2.234,3.643,3.643,0,0,1,1.359-1.531,3.7,3.7,0,0,1,1.988-.539,3.565,3.565,0,0,1,2.793,1.2,4.6,4.6,0,0,1,1.066,3.18v.1A5.036,5.036,0,0,1,127,15.082a3.589,3.589,0,0,1-1.352,1.527,3.743,3.743,0,0,1-2.02.547,3.556,3.556,0,0,1-2.785-1.2,4.575,4.575,0,0,1-1.066-3.164Zm1.453.172a3.616,3.616,0,0,0,.652,2.258,2.211,2.211,0,0,0,3.5-.012,3.955,3.955,0,0,0,.648-2.418,3.61,3.61,0,0,0-.66-2.254,2.1,2.1,0,0,0-1.754-.863,2.075,2.075,0,0,0-1.727.852A3.925,3.925,0,0,0,121.227,12.867ZM50.363,41.156a3.693,3.693,0,0,1-2.8-1.129,4.19,4.19,0,0,1-1.078-3.02v-.266a5.073,5.073,0,0,1,.48-2.246,3.748,3.748,0,0,1,1.344-1.547,3.378,3.378,0,0,1,1.871-.559,3.166,3.166,0,0,1,2.563,1.086,4.7,4.7,0,0,1,.914,3.109v.6H47.934a3,3,0,0,0,.73,2.02,2.3,2.3,0,0,0,1.777.77,2.517,2.517,0,0,0,1.3-.312,3.258,3.258,0,0,0,.93-.828l.883.688A3.55,3.55,0,0,1,50.363,41.156Zm-.18-7.578a1.928,1.928,0,0,0-1.469.637A3.1,3.1,0,0,0,47.98,36h4.234v-.109a2.753,2.753,0,0,0-.594-1.707A1.815,1.815,0,0,0,50.184,33.578Zm7.984,2.055,1.875-3.086H61.73l-2.766,4.18L61.816,41H60.145l-1.953-3.164L56.238,41h-1.68l2.852-4.273-2.766-4.18h1.672ZM65.223,30.5v2.047H66.8v1.117H65.223v5.249a1.173,1.173,0,0,0,.211.763.888.888,0,0,0,.719.254,3.5,3.5,0,0,0,.688-.094V41a4.215,4.215,0,0,1-1.109.155,1.8,1.8,0,0,1-1.461-.586,2.517,2.517,0,0,1-.492-1.664V33.664H62.238V32.547h1.539V30.5ZM72,41.156a3.693,3.693,0,0,1-2.8-1.129,4.19,4.19,0,0,1-1.078-3.02v-.266A5.073,5.073,0,0,1,68.6,34.5a3.748,3.748,0,0,1,1.344-1.547,3.378,3.378,0,0,1,1.871-.559,3.166,3.166,0,0,1,2.563,1.086,4.7,4.7,0,0,1,.914,3.109v.6H69.566a3,3,0,0,0,.73,2.02,2.3,2.3,0,0,0,1.777.77,2.517,2.517,0,0,0,1.3-.312,3.259,3.259,0,0,0,.93-.828l.883.688A3.55,3.55,0,0,1,72,41.156Zm-.18-7.578a1.928,1.928,0,0,0-1.469.637A3.1,3.1,0,0,0,69.613,36h4.234v-.109a2.753,2.753,0,0,0-.594-1.707A1.815,1.815,0,0,0,71.816,33.578Zm9.234.266a4.331,4.331,0,0,0-.711-.055A1.9,1.9,0,0,0,78.41,35v6H76.965V32.547h1.406l.023.977a2.251,2.251,0,0,1,2.016-1.133,1.477,1.477,0,0,1,.641.109Zm2.7-1.3.047,1.063a3.08,3.08,0,0,1,2.531-1.219q2.68,0,2.7,3.023V41H87.582V35.406a1.946,1.946,0,0,0-.418-1.352,1.675,1.675,0,0,0-1.277-.437,2.086,2.086,0,0,0-1.234.375,2.546,2.546,0,0,0-.828.984V41H82.379V32.547ZM90.824,36.7a4.993,4.993,0,0,1,.488-2.234,3.643,3.643,0,0,1,1.359-1.531,3.7,3.7,0,0,1,1.988-.539,3.565,3.565,0,0,1,2.793,1.2,4.6,4.6,0,0,1,1.066,3.18v.1a5.036,5.036,0,0,1-.473,2.215A3.589,3.589,0,0,1,96.7,40.609a3.743,3.743,0,0,1-2.02.547,3.556,3.556,0,0,1-2.785-1.2A4.575,4.575,0,0,1,90.824,36.8Zm1.453.172a3.616,3.616,0,0,0,.652,2.258,2.211,2.211,0,0,0,3.5-.012,3.955,3.955,0,0,0,.648-2.418,3.61,3.61,0,0,0-.66-2.254,2.1,2.1,0,0,0-1.754-.863,2.075,2.075,0,0,0-1.727.852A3.925,3.925,0,0,0,92.277,36.867Z" transform="translate(-2677 -9194)" fill="#12263f"/>
    <path id="Trazado_162129" data-name="Trazado 162129" d="M287.071,153.1c-.521-.518-1.047-2.545-1.565-3.085-3.17-3.306-6.049-6.87-5.865-8.753.4-4.1,9.312,2.159,9.312,2.159s-.394-6.477,4.434-6.477,4.433,6.477,4.433,6.477,8.91-6.261,9.312-2.159c.184,1.877-2.677,5.425-5.835,8.722-.527.55-1.063,2.589-1.594,3.116,10.7,3.166,17.705,10.2,19.471,23.87.6,4.647.92,11.032-.868,14.919-1.438,3.13-3.4,5.4-6.953,6.413-.512.145-3.829.233-4.356.307a116.393,116.393,0,0,1-15.267,1.05,63.221,63.221,0,0,1-12.025-1,11.167,11.167,0,0,1-1.325-.343,10.241,10.241,0,0,1-6.929-6.023,31.023,31.023,0,0,1-2.986-13.389C268.466,165.788,276.366,156.264,287.071,153.1Z" transform="translate(-2893.127 -9407.785)" fill="#75bd38"/>
    <path id="Trazado_162130" data-name="Trazado 162130" d="M280.4,177.854a10.984,10.984,0,1,0,10.984-10.983A10.982,10.982,0,0,0,280.4,177.854Z" transform="translate(-2893.724 -9409.283)" fill="#474656"/>
    <path id="Trazado_162131" data-name="Trazado 162131" d="M296.957,180.672c-.029-2.931-3.2-3.339-3.2-3.339-.442-.007-.844-.032-1.209-.071v-4.513a1.6,1.6,0,0,1,1.141,2.129h2.726s1.115-4.232-3.867-4.834v-.373a.954.954,0,0,0-1.908,0v.321c-4.383.26-4.448,3.124-4.393,4.751.056,1.585.373,3.583,4.393,4.4v4.508c-1.648-.6-1.243-2.776-1.243-2.776h-3.139c-.126,1.452-.032,4.187,4.381,4.583v.76a.954.954,0,0,0,1.908,0v-.731C295.674,185.317,297,184.02,296.957,180.672Zm-7.9-5.795a2.137,2.137,0,0,1,1.585-2.141V176.8C288.951,176.076,289.053,174.877,289.053,174.877Zm3.493,8.794v-4.143C295.149,180.4,294.642,183.046,292.546,183.67Z" transform="translate(-2894.016 -9409.377)" fill="#e5e5e5"/>
    <path id="Trazado_162132" data-name="Trazado 162132" d="M320.635,177.122c-1.558-12.061-7.2-18.953-15.858-22.584-.143-.029-.279-.072-.424-.1h.035a26.814,26.814,0,0,0-3.224-1.187,6.981,6.981,0,0,0,.9-1.8l.011-.028.006-.013a4.834,4.834,0,0,1,.675-1.279c.257-.269.511-.54.764-.81l0,0q.487-.524.964-1.059c.046-.05.088-.1.134-.153.229-.258.454-.522.677-.786l.275-.328c.274-.332.541-.667.8-1.01l.051-.066q.442-.583.849-1.19l.089-.135a5.717,5.717,0,0,0,1.226-3.181,1.55,1.55,0,0,0-.409-.979,1.337,1.337,0,0,0-.143-.128h0a1.553,1.553,0,0,0-.216-.128c-.989-.454-2.764.15-4.443.97l-.11.054c.252,1.313-.716,2.711-1.414,3.733a39.473,39.473,0,0,1-3.961,4.754h0c-.739.976.177,3.976,1.256,4.75h-.085a25.657,25.657,0,0,1,13.891,15.135,29.933,29.933,0,0,1,1.42,12.083,26.556,26.556,0,0,1-3.988,12.638,14.8,14.8,0,0,1-5.028,4.844c1.356-.145,2.419-.284,3.094-.378.527-.074,3.844-.161,4.356-.307,3.55-1.014,5.514-3.283,6.953-6.413C321.554,188.154,321.235,181.769,320.635,177.122Z" transform="translate(-2894.587 -9407.939)" fill="#598e38" opacity="0.5" style="mix-blend-mode: multiply;isolation: isolate"/>
    <path id="Trazado_162133" data-name="Trazado 162133" d="M277.289,159.755c-5.3,4.83-8.7,12-8.81,20.757v0a31.853,31.853,0,0,0,.819,6.752c.008.031.017.062.024.093q.18.758.393,1.5c.028.1.062.192.091.29.128.427.26.851.406,1.268.073.206.156.407.232.611.114.3.224.613.348.912q.3.74.646,1.455l.014.032a21.859,21.859,0,0,0,3.124,4.11,12.522,12.522,0,0,0,3.8,1.912,11.167,11.167,0,0,0,1.325.343,61.693,61.693,0,0,0,11,1c1.771-7.045.5-17.271-1.665-24.438C286.463,167.807,283.3,163.264,277.289,159.755Z" transform="translate(-2893.128 -9408.927)" fill="#598e38" opacity="0.55" style="mix-blend-mode: multiply;isolation: isolate"/>
    <g id="Grupo_106373" data-name="Grupo 106373" transform="translate(-2651.671 -9252.647)">
      <path id="Trazado_162134" data-name="Trazado 162134" d="M282.331,181.862c-1.328,8.86-5.85,15.192-15.216,17.451-1.032.249-7.775.175-7.775.175s-13.026-10.528-11.631-21.88,15.359-19.23,15.359-19.23a82.92,82.92,0,0,1,8.785,2.687C279.326,164.077,283.794,172.1,282.331,181.862Z" transform="translate(-240.412 -156.211)" fill="#d21b00"/>
      <ellipse id="Elipse_502" data-name="Elipse 502" cx="20.709" cy="17.441" rx="20.709" ry="17.441" transform="translate(0 41.108) rotate(-82.997)" fill="#f65138"/>
      <ellipse id="Elipse_503" data-name="Elipse 503" cx="15.912" cy="13.402" rx="15.912" ry="13.402" transform="matrix(0.122, -0.993, 0.993, 0.122, 4.594, 36.84)" fill="#fff"/>
      <ellipse id="Elipse_504" data-name="Elipse 504" cx="11.856" cy="9.985" rx="11.856" ry="9.985" transform="matrix(0.122, -0.993, 0.993, 0.122, 8.48, 33.23)" fill="#f65138"/>
      <path id="Trazado_162135" data-name="Trazado 162135" d="M267.239,180.373c-.538,4.381-3.965,7.565-7.656,7.112s-6.244-4.373-5.706-8.754,3.966-7.564,7.656-7.111S267.778,175.991,267.239,180.373Z" transform="translate(-240.723 -156.871)" fill="#fff"/>
      <path id="Trazado_162136" data-name="Trazado 162136" d="M264.206,180.181c-.28,2.28-2.063,3.937-3.984,3.7s-3.249-2.275-2.97-4.555,2.064-3.938,3.984-3.7S264.486,177.9,264.206,180.181Z" transform="translate(-240.893 -157.073)" fill="#f65138"/>
    </g>
    <path id="Trazado_162137" data-name="Trazado 162137" d="M269.446,186.01l-.238.259-8.059-6.311c-.14.048-.278.1-.416.149l-.161.079,6.209,8.793-.3.321,5.268,6.319a21,21,0,0,0,3.2-4.052Z" transform="translate(-2892.732 -9409.938)" fill="#b35c45" opacity="0.67" style="mix-blend-mode: multiply;isolation: isolate"/>
    <g id="Grupo_106374" data-name="Grupo 106374" transform="translate(-2655 -9257.144)">
      <path id="Trazado_162138" data-name="Trazado 162138" d="M260.71,179.725l.139-.047-5.548-8.1-1.422,1.159,6.478,7.071C260.475,179.783,260.593,179.755,260.71,179.725Z" transform="translate(-237.397 -152.376)" fill="#5c5248"/>
      <rect id="Rectángulo_33906" data-name="Rectángulo 33906" width="2.218" height="20.96" transform="translate(4.138 5.496) rotate(-39.174)" fill="#51555d"/>
      <path id="Trazado_162139" data-name="Trazado 162139" d="M240.834,155.055s-1.043-3.978,2.395-3.675,4.993,8.562,4.339,11.94Z" transform="translate(-236.737 -151.364)" fill="#f65138"/>
      <path id="Trazado_162140" data-name="Trazado 162140" d="M240.626,155.224s-3.685-1.826-4.083,1.6,7.377,6.62,10.817,6.663Z" transform="translate(-236.529 -151.533)" fill="#d21b00"/>
      <path id="Trazado_162141" data-name="Trazado 162141" d="M238.46,152.325s1.569,4.014,9,11.043C242.075,154.673,238.46,152.325,238.46,152.325Z" transform="translate(-236.625 -151.412)" fill="#f86f5b"/>
    </g>
    <path id="Trazado_162142" data-name="Trazado 162142" d="M303.784,154.949H284.606c1.078-.774,1.995-3.774,1.256-4.75H302.53C301.791,151.175,302.706,154.175,303.784,154.949Z" transform="translate(-2893.935 -9408.449)" fill="#474656"/>
  </g>
</svg>
