<svg xmlns="http://www.w3.org/2000/svg" width="295" height="281.131" viewBox="0 0 295 281.131">
  <g id="Grupo_106471" data-name="Grupo 106471" transform="translate(-355.198 -132.676)">
    <path id="Trazado_162165" data-name="Trazado 162165" d="M468.527,245.3h-86.21l8.406-57.96h69.4Z" transform="translate(77.276 155.758)" fill="#bbb"/>
    <path id="Trazado_162166" data-name="Trazado 162166" d="M462.113,216.317,383.093,224.7l5.419-37.364h69.4Z" transform="translate(79.487 155.758)" fill="#bbb" opacity="0.5" style="mix-blend-mode: multiply;isolation: isolate"/>
    <rect id="Rectángulo_33927" data-name="Rectángulo 33927" width="295" height="220.733" rx="1.794" transform="translate(355.198 132.676)" fill="#e5e5e5"/>
    <path id="Trazado_162167" data-name="Trazado 162167" d="M509.416,217.01l-130.368-.131c-3.022,0-4.192-1.667-2.675-3.626l6.795-8.8c1.178-1.524,4.138-2.714,6.656-2.71l108.9.112c2.525,0,5.493,1.2,6.66,2.737l6.721,8.815C513.6,215.366,512.426,217.014,509.416,217.01Z" transform="translate(58.45 196.797)" fill="#474656"/>
    <rect id="Rectángulo_33928" data-name="Rectángulo 33928" width="259.139" height="161.567" transform="translate(372.188 147.911)" fill="#474656"/>
    <rect id="Rectángulo_33929" data-name="Rectángulo 33929" width="247.678" height="148.315" transform="translate(377.919 154.536)" fill="#ededed"/>
    <circle id="Elipse_505" data-name="Elipse 505" cx="5.373" cy="5.373" r="5.373" transform="translate(497.325 328.692)" fill="#bbb"/>
    <g id="Grupo_106457" data-name="Grupo 106457" transform="translate(402.82 148.349)">
      <g id="Grupo_106394" data-name="Grupo 106394" transform="translate(0 23.284)">
        <g id="Grupo_106393" data-name="Grupo 106393">
          <path id="Trazado_162168" data-name="Trazado 162168" d="M372.817,263.525h54.906c.651-2.756.909-6.937-1.578-8.892-2.214-1.744-6.1-2.448-7.476-5.093-.843-1.617.527-2.918,1.3-4.219a6.979,6.979,0,0,0,.343-6.848c-1.6-3.28-5.705-5.6-6.521-9.239-.916-4.1,4.13-7.768,6.609-10.174,1.871-1.817,3.719-3.665,5.466-5.6a17.087,17.087,0,0,0,3.388-4.554c.439-1.074-.254-1.4-1.251-1.216-2.325.42-4.288,1.24-6.714.8a9.236,9.236,0,0,1-5.162-2.768,43.682,43.682,0,0,0-.982-6.236,3.693,3.693,0,0,0-1.124-2.183c-1.267-.866-2.179-.882-3.049-2.418a17.7,17.7,0,0,0-2.3-3.827,14,14,0,0,0-3.28-2.364c-2.09-1.193-3.788-2.452-3.411-5.12.647-4.589,3.984-8.442,5.02-12.981.3-1.309.477-5.028-1.694-2.864a13.5,13.5,0,0,0-2.51,4.023c-.373.812-.9,2.171-1.8,2.575-1.459.662-.393-3.865-.285-4.215,2.514-8.238,9.67-12.746,15.833-18.081.531-.458,4.346-3.287,3.773-4.223a6.974,6.974,0,0,1-4.254-1.363,99.422,99.422,0,0,0-46.456,105.512A94.413,94.413,0,0,0,372.817,263.525Z" transform="translate(-367.569 -132.387)" fill="#8cd8e5"/>
          <path id="Trazado_162169" data-name="Trazado 162169" d="M387.77,194.23a5.29,5.29,0,0,1,3.245.72c-1.64,1.528-3.422,2.876-5.085,4.365-.77.689-1.278,1.382,0,1.74,1.263.354,3.272.146,4.207,1.216.8.924-.092,2.606-.423,3.545-.766,2.2-2.225,7.272,0,9.158,1.632,1.386,5.655-.412,7.383-.793,8.527-1.875,17.889-1.532,22.955,6.625.8,1.29,1.266,2.749,2.44,3.769a15.747,15.747,0,0,0,4.327,2.321c1.059.45,2.4.947,3.018,1.986.947,1.6-.693,3.611-1.4,4.939-1.155,2.175-3.592,5.817-3.122,8.488a.789.789,0,0,0,1.12.643c6.506.223,13.9,2.117,19.251,5.944,1.986,1.421,4.034,3.518,3.9,6.152-.185,3.7-4.038,5.978-6.494,8.153-3.353,2.968-5.909,5.932-7.445,9.747h69.788c.724-1.051,1.9-1.8,2.622-2.9,1.828-2.795,3.1-7.068.624-9.878-.87-.989-2.8-1.54-3.18-2.9-.281-1,.843-1.836,1.505-2.367,2.125-1.7,4.735-3.507,3.842-6.621-.747-2.61-3.118.462-4.608.339-2.029-.169-1.428-4.361-1.744-5.732-.354-1.532-5.528.647-6.278.855-3.114.858-7.734,2.36-10.448-.269-2.29-2.221-2.618-5.917-3.8-8.731-1.517-3.619-4.381-6.179-6.54-9.358-1.713-2.529,2.229-1.744,3.723-2.329,2.929-1.139,3.414-4.623,3.441-7.38.027-2.518-.4-4.993-.547-7.5-.081-1.463-.219-3.245.474-4.6,1.02-1.994,3.9-1.274,5.624-2.029,1.363-.593,1.355-2,1.536-3.264.273-1.956,1.54-2.294,3.261-2.718,3.357-.828,6.606-3.049,10.128-3.064a2.6,2.6,0,0,1,2.749,2.006c.239.939-.146,3.091.585,3.838.285.3,1.22.239,1.617.447,2.025,1.036,3.453,3.218,4.831,4.947.458.574,1.351,2.206,2.225,2.267.766.05,1.848-1.174,2.441-1.548,1.586-1,3.93-1.474,5.035-3.091,1.028-1.509-1.016-2.525-2.175-2.918-2.3-.785-4.746-.477-7.041-1.136-1.363-.389-1.313-1.224-1.309-2.421,0-1.6-1.286-2.441-2.645-2.983a9.667,9.667,0,0,1-4.858-4.1c-.8-1.34-3.811-5.8-5.262-2.733-1.393,2.945-2.695,5.543-6.536,5.4-3.153-.119-5.59-3.122-5.636-6.175-.058-3.707,4.966-3.5,4.562-7.441-.447-4.327-5.436-6.775-8.788-8.642-.15-.085-2.4-1.32-2.083-1.528,1.1-.712,3.984.481,4.966.993,2.048,1.07,4.981,5.466,7.718,3.769,2.776-1.721-3.091-6.383-4.365-7.022-1.363-.677-3.407-.527-4.423-1.767-.866-1.062-.824-2.691-1.355-3.923-1.424-3.311-5.851-5.589-9.281-6.2-2.548-.454-5.994-1.971-6.244-4.862-.843-.316-1.694-.6-2.544-.885-3.053,1.421-5.9,3.245-8.973,4.619-1.382.62-4.019,1.983-5.539.982-2.433-1.6.466-6.421-1.478-8.511-1.424-1.532-4.643-.235-6.417-.239-.45,0-2.133-.558-2.379.058-.219.551.327,1.424.535,1.906.828,1.932.674,3.672-1.994,3.291-2-.289-3.719-1.882-4.854-3.476l-4.385,1.9c2.437,5.874-12.8-.373-13.585,2.614-.258.966,1.559,2.129,2.36,2.106.539-.015,1.582-1.086,2.021-.7.97.866,1.024,3.334,1.124,4.546.015.192-.092,1.782.27,1.447,2.456-2.29,5.563-3.545,8.053-5.79a7.376,7.376,0,0,1,2.7-2c1.382-.354,2.706.962,3.6,1.825,3.222,3.145,6.871,7.788,6.363,12.619-.073.724-.4,2.213-1.436,2.04-1.409-.243-2.206-2.745-3.11-3.661-1.933-1.956-7.076-4.192-8.611-.539-1.032,2.452,2.5,3.684,4.157,4.469.577.273,1.805.693,1.983,1.409.246,1-2.117,1.574-2.695,1.655-3.137.431-5.474-2.167-7.641-3.988-2.009-1.69-.966,1.725-.216,2.587.208.239,1.009.878.758,1.266-.508.8-2.883.716-3.645.789A24.848,24.848,0,0,0,411.5,174.5a36.973,36.973,0,0,0-6.771,6.2c-.131.154-.262.312-.389.473a58.485,58.485,0,0,1-3.307,10.525c-.855,1.8-1.27.751-1.328-.739-.127-3.391.858-7.518-1.3-10.486-3.9-5.343-12.677,2.275-15.587,5.131-2.348,2.3-6.248,7-3.457,10.386C382.091,199.319,384.983,194.515,387.77,194.23Z" transform="translate(-336.732 -141.811)" fill="#8cd8e5"/>
          <path id="Trazado_162170" data-name="Trazado 162170" d="M378.649,182.165c3.815-8.327,7.245-5.278,1.147,6.536s3.207,8,6.356,15.236c3.168,7.233,4.311-1.521,5.828,12.2,0,0,3.826,4.569,10.675,2.283s-1.143,6.09-8.384,12.954-4.954,9.135-1.143,13.331,5.339,7.618,1.909,12.2c-3.426,4.566,5.332,6.086,7.618,8.754,1.282,1.494,1.705,4.9.9,8.28h38.561c.974-2.791,3.245-6.244,10.436-12.084,12.184-9.913-8.384-17.531-19.421-17.912,0,0-4.05,1.651,3.049-11.052,3.095-5.547-6.1-4.184-8.38-9.135s-7.618-10.667-18.289-9.531-13.727,4.962-14.093-1.517c-.381-6.483,4.562-9.52-.77-10.286s-2.668-1.147,3.06-6.483a5.41,5.41,0,0,0-6.864,1.147c-3.434,3.434-9.531-1.9-2.291-9.516s18.666-13.346,17.908,1.136,4.573-6.536,4.573-6.536,8-10.228,17.912-10.983c9.889-.766,3.8-1.147,3.8-4.581,0-3.418,4.566,5.717,10.1,3.434,5.516-2.294-5.917-3.049-4.77-6.852s7.63-2.679,10.286,2.283,5.717-2.664-1.136-10.675c-6.864-7.992-5.717-3.041-12.2.381s-3.8,5.332-4.951-.381-1.52.381-4.569-2.656,5.435-1.644,9.9-1.151,3.053-2.668,3.053-2.668l4.385-1.9s2.86,4.188,6.282,3.422c3.418-.751-2.287-6.1,1.136-5.332s8-2.287,8.38,2.294-2.664,10.667,9.912,3.8c2.537-1.378,4.231-2.279,5.39-2.818a99.241,99.241,0,0,0-82.014,9.085,6.976,6.976,0,0,0,4.235,1.351s1.909,0-10.278,9.52S374.838,190.48,378.649,182.165Z" transform="translate(-343.425 -142.796)" fill="#75bd38"/>
          <path id="Trazado_162171" data-name="Trazado 162171" d="M404.1,147.39c4.954,3.041,3.434.373,9.9,4.184,6.483,3.815,2.287,8,7.237,8.765s9.528,7.618,5.728,8c-3.815.385-4.2-4.184-9.9-4.958-5.728-.755,2.283,1.9,6.086,5.343,3.815,3.422,3.815,7.483,0,9.081s-.993,10.351,5.22,9.2,3.915-7.618,7.349-6.09,2.283,5.324,8,7.618-.766,5.324,6.1,5.7,10.282,3.049,4.188,5.717-3.041,4.95-8.384-1.532c-5.335-6.467-4.8-.27-5.335-6.467-.516-6.2-9.135-.385-13.7.381s-.762,5.335-4.958,6.086c-4.2.766-6.1-.37-4.954,9.531s-1.52,12.188-6.1,12.188,3.826,5.332,6.1,12.2c2.287,6.852,2.679,11.052,12.58,8.384s6.852-2.668,8,2.668,5.335-3.053,6.09,2.283-9.52,6.479-3.815,9.9,1.54,11.433-1.136,13.335a2.74,2.74,0,0,0-.558.662h24.883a99.371,99.371,0,0,0-60.58-125.248A3.738,3.738,0,0,0,404.1,147.39Z" transform="translate(-269.066 -138.436)" fill="#75bd38"/>
          <path id="Trazado_162172" data-name="Trazado 162172" d="M401.7,144.169c.566.189,1.117.4,1.675.6v-.015C402.818,144.546,402.26,144.361,401.7,144.169Z" transform="translate(-270.305 -138.884)" fill="#fff"/>
        </g>
      </g>
      <g id="Grupo_106396" data-name="Grupo 106396" transform="translate(77.887 23.979)" style="mix-blend-mode: multiply;isolation: isolate">
        <path id="Trazado_162173" data-name="Trazado 162173" d="M402.138,144.326c38.341,13.8,0,0,0,0Z" transform="translate(-346.95 -139.131)" fill="#b9cece"/>
        <g id="Grupo_106395" data-name="Grupo 106395">
          <path id="Trazado_162174" data-name="Trazado 162174" d="M440.442,273.42h63.1a100.038,100.038,0,0,0,4.612-42.822h0l-.108-.947.108.943c-4.146-37.213-29.953-69.75-65.161-82.422l0-.015c-.427-.162-.912-.285-1.347-.466a96.865,96.865,0,0,0-21.3-4.689,102.851,102.851,0,0,0-14.686.708c-12.5,8.153-13.889,22.366-17.531,38.8-2.036,9.177,6.163,40.724,6.163,40.724Z" transform="translate(-387.802 -142.977)" fill="#b9cece"/>
          <path id="Trazado_162175" data-name="Trazado 162175" d="M419.219,167.133c-.081-.724-.162-1.471-.246-2.217C419.046,165.574,419.131,166.325,419.219,167.133Z" transform="translate(-298.978 -80.459)" fill="#b9cece"/>
        </g>
      </g>
      <g id="Grupo_106456" data-name="Grupo 106456" transform="translate(72.651)">
        <circle id="Elipse_506" data-name="Elipse 506" cx="64.077" cy="64.077" r="64.077" transform="translate(3.034)" fill="#fff"/>
        <g id="Grupo_106454" data-name="Grupo 106454" transform="translate(0.463 14.072)">
          <g id="Grupo_106453" data-name="Grupo 106453">
            <g id="Grupo_106399" data-name="Grupo 106399" transform="translate(55.015)">
              <g id="Grupo_106397" data-name="Grupo 106397" transform="translate(4.227)">
                <path id="Trazado_162176" data-name="Trazado 162176" d="M405.881,148.268a3.932,3.932,0,1,0-3.93-3.93A3.933,3.933,0,0,0,405.881,148.268Z" transform="translate(-401.951 -140.403)" fill="#8e8d97"/>
              </g>
              <g id="Grupo_106398" data-name="Grupo 106398" transform="translate(0 8.611)">
                <path id="Trazado_162177" data-name="Trazado 162177" d="M417.167,144.927c0-1.263-1.393-2.287-3.114-2.287H403.967c-1.721,0-3.114,1.024-3.114,2.287V153.7c0,1.343.6,1.886,1.344,1.886h.027c.743,0,1.343-.543,1.343-1.886v-6.76a.408.408,0,0,1,.42-.408H404a.407.407,0,0,1,.4.408v20.83c0,1.894.862,3.43,1.925,3.43h.039c1.062,0,1.925-1.536,1.925-3.43v-8.546a.416.416,0,0,1,.416-.412c.2,0,.424,0,.616,0a.413.413,0,0,1,.416.412v8.546c0,1.894.862,3.43,1.925,3.43h.038c1.062,0,1.925-1.536,1.925-3.43V146.94a.407.407,0,0,1,.4-.408h.012a.408.408,0,0,1,.42.408v6.76c0,1.343.6,1.886,1.343,1.886h.027c.743,0,1.343-.543,1.343-1.886v-8.773Z" transform="translate(-400.853 -142.64)" fill="#8e8d97"/>
              </g>
            </g>
            <g id="Grupo_106402" data-name="Grupo 106402" transform="translate(74.778)">
              <g id="Grupo_106400" data-name="Grupo 106400" transform="translate(4.223)">
                <path id="Trazado_162178" data-name="Trazado 162178" d="M411.014,148.268a3.932,3.932,0,1,0-3.93-3.93A3.931,3.931,0,0,0,411.014,148.268Z" transform="translate(-407.084 -140.403)" fill="#8e8d97"/>
              </g>
              <g id="Grupo_106401" data-name="Grupo 106401" transform="translate(0 8.611)">
                <path id="Trazado_162179" data-name="Trazado 162179" d="M422.3,144.927c0-1.263-1.393-2.287-3.114-2.287H409.1c-1.717,0-3.11,1.024-3.11,2.287V153.7c0,1.343.6,1.886,1.34,1.886h.027c.743,0,1.343-.543,1.343-1.886v-6.76a.408.408,0,0,1,.42-.408h.012a.41.41,0,0,1,.4.408v20.83c0,1.894.859,3.43,1.921,3.43h.042c1.062,0,1.921-1.536,1.921-3.43v-8.546a.416.416,0,0,1,.416-.412c.2,0,.424,0,.616,0a.413.413,0,0,1,.416.412v8.546c0,1.894.862,3.43,1.925,3.43h.039c1.062,0,1.925-1.536,1.925-3.43V146.94a.41.41,0,0,1,.4-.408h.012a.411.411,0,0,1,.42.408v6.76c0,1.343.6,1.886,1.34,1.886h.027c.743,0,1.343-.543,1.343-1.886v-8.773Z" transform="translate(-405.987 -142.64)" fill="#8e8d97"/>
              </g>
            </g>
            <g id="Grupo_106405" data-name="Grupo 106405" transform="translate(94.538)">
              <g id="Grupo_106403" data-name="Grupo 106403" transform="translate(4.223)">
                <path id="Trazado_162180" data-name="Trazado 162180" d="M416.147,148.268a3.932,3.932,0,1,0-3.93-3.93A3.931,3.931,0,0,0,416.147,148.268Z" transform="translate(-412.217 -140.403)" fill="#8e8d97"/>
              </g>
              <g id="Grupo_106404" data-name="Grupo 106404" transform="translate(0 8.611)">
                <path id="Trazado_162181" data-name="Trazado 162181" d="M427.43,144.927c0-1.263-1.394-2.287-3.11-2.287H414.23c-1.717,0-3.11,1.024-3.11,2.287V153.7c0,1.343.6,1.886,1.34,1.886h.027c.743,0,1.343-.543,1.343-1.886v-6.76a.408.408,0,0,1,.42-.408h.011a.41.41,0,0,1,.4.408v20.83c0,1.894.862,3.43,1.925,3.43h.039c1.062,0,1.925-1.536,1.925-3.43v-8.546a.412.412,0,0,1,.412-.412c.2,0,.424,0,.62,0a.412.412,0,0,1,.412.412v8.546c0,1.894.862,3.43,1.925,3.43h.039c1.062,0,1.925-1.536,1.925-3.43V146.94a.41.41,0,0,1,.4-.408h.012a.408.408,0,0,1,.42.408v6.76c0,1.343.6,1.886,1.34,1.886h.031c.739,0,1.34-.543,1.34-1.886v-8.773Z" transform="translate(-411.12 -142.64)" fill="#8e8d97"/>
              </g>
            </g>
            <g id="Grupo_106407" data-name="Grupo 106407" transform="translate(114.298 12.392)">
              <g id="Grupo_106406" data-name="Grupo 106406">
                <path id="Trazado_162182" data-name="Trazado 162182" d="M419.1,164.147h.038c1.062,0,1.925-1.536,1.925-3.43v-8.546a.413.413,0,0,1,.416-.412h.2c-.189-.273-.358-.562-.562-.824-1.32-1.705-2.625-3.707-3.942-5.82v15.6C417.174,162.611,418.036,164.147,419.1,164.147Z" transform="translate(-413.629 -139.368)" fill="#8e8d97"/>
                <path id="Trazado_162183" data-name="Trazado 162183" d="M417.6,152.788h.027c.739,0,1.34-.547,1.34-1.886v-2.876c-.889-1.447-1.79-2.929-2.71-4.4V150.9C416.253,152.241,416.854,152.788,417.6,152.788Z" transform="translate(-416.253 -143.622)" fill="#8e8d97"/>
                <path id="Trazado_162184" data-name="Trazado 162184" d="M420.481,158.234h.039a1.359,1.359,0,0,0,.982-.5,27.846,27.846,0,0,0-2.941-10.548V154.8C418.56,156.7,419.418,158.234,420.481,158.234Z" transform="translate(-409.679 -133.455)" fill="#8e8d97"/>
              </g>
            </g>
            <g id="Grupo_106409" data-name="Grupo 106409" transform="translate(4.617 21.4)">
              <g id="Grupo_106408" data-name="Grupo 106408">
                <path id="Trazado_162185" data-name="Trazado 162185" d="M389.682,161.733h.038c1.066,0,1.925-1.536,1.925-3.43V145.962a45.664,45.664,0,0,0-3.884,9.281v3.06C387.761,160.2,388.619,161.733,389.682,161.733Z" transform="translate(-387.761 -145.962)" fill="#8e8d97"/>
              </g>
            </g>
            <g id="Grupo_106412" data-name="Grupo 106412" transform="translate(15.496 0.589)">
              <g id="Grupo_106410" data-name="Grupo 106410" transform="translate(5.101)">
                <path id="Trazado_162186" data-name="Trazado 162186" d="M394.969,147.832a3.923,3.923,0,0,0,2.044-7.276c-1.621,1.99-3.353,3.911-5.1,5.794A3.919,3.919,0,0,0,394.969,147.832Z" transform="translate(-391.912 -140.556)" fill="#8e8d97"/>
              </g>
              <g id="Grupo_106411" data-name="Grupo 106411" transform="translate(0 8.022)">
                <path id="Trazado_162187" data-name="Trazado 162187" d="M390.587,153.7c0,1.34.6,1.886,1.343,1.886h.027c.739,0,1.344-.547,1.344-1.886v-6.76a.408.408,0,0,1,.416-.408h.015a.407.407,0,0,1,.4.408v20.83c0,1.894.862,3.43,1.925,3.43h.039c1.062,0,1.925-1.536,1.925-3.43v-8.546a.413.413,0,0,1,.416-.412c.193,0,.42,0,.616,0a.416.416,0,0,1,.416.412v8.546c0,1.894.858,3.43,1.925,3.43h.038c1.063,0,1.925-1.536,1.925-3.43V146.94a.407.407,0,0,1,.4-.408h.012a.408.408,0,0,1,.42.408v6.76c0,1.34.6,1.886,1.343,1.886h.027c.739,0,1.343-.547,1.343-1.886v-8.773c0-1.263-1.393-2.287-3.114-2.287H393.7l-.1.008c-1.028,1.1-2.04,2.194-3.018,3.284Z" transform="translate(-390.587 -142.64)" fill="#8e8d97"/>
              </g>
            </g>
            <g id="Grupo_106415" data-name="Grupo 106415" transform="translate(35.255)">
              <g id="Grupo_106413" data-name="Grupo 106413" transform="translate(4.223)">
                <path id="Trazado_162188" data-name="Trazado 162188" d="M400.751,148.268a3.932,3.932,0,1,0-3.934-3.93A3.933,3.933,0,0,0,400.751,148.268Z" transform="translate(-396.817 -140.403)" fill="#8e8d97"/>
              </g>
              <g id="Grupo_106414" data-name="Grupo 106414" transform="translate(0 8.611)">
                <path id="Trazado_162189" data-name="Trazado 162189" d="M412.034,144.927c0-1.263-1.394-2.287-3.114-2.287H398.834c-1.721,0-3.114,1.024-3.114,2.287V153.7c0,1.343.6,1.886,1.344,1.886h.027c.743,0,1.344-.543,1.344-1.886v-6.76a.408.408,0,0,1,.42-.408h.011a.407.407,0,0,1,.4.408v20.83c0,1.894.862,3.43,1.925,3.43h.039c1.062,0,1.925-1.536,1.925-3.43v-8.546a.413.413,0,0,1,.416-.412c.2,0,.42,0,.616,0a.416.416,0,0,1,.416.412v8.546c0,1.894.862,3.43,1.925,3.43h.038c1.063,0,1.925-1.536,1.925-3.43V146.94a.407.407,0,0,1,.4-.408h.012a.408.408,0,0,1,.42.408v6.76c0,1.343.6,1.886,1.343,1.886h.027c.743,0,1.343-.543,1.343-1.886v-8.773Z" transform="translate(-395.72 -142.64)" fill="#8e8d97"/>
              </g>
            </g>
            <g id="Grupo_106418" data-name="Grupo 106418" transform="translate(25.597 38.456)">
              <g id="Grupo_106416" data-name="Grupo 106416" transform="translate(4.222)">
                <circle id="Elipse_507" data-name="Elipse 507" cx="3.933" cy="3.933" r="3.933" fill="#8e8d97"/>
              </g>
              <g id="Grupo_106417" data-name="Grupo 106417" transform="translate(0 8.612)">
                <path id="Trazado_162190" data-name="Trazado 162190" d="M409.521,154.917c0-1.263-1.394-2.287-3.114-2.287H396.321c-1.717,0-3.11,1.024-3.11,2.287v8.773c0,1.34.6,1.886,1.34,1.886h.027c.743,0,1.343-.547,1.343-1.886v-6.76a.406.406,0,0,1,.42-.408h.012a.41.41,0,0,1,.4.408v20.83c0,1.894.859,3.43,1.921,3.43h.042c1.062,0,1.921-1.536,1.921-3.43v-8.546a.411.411,0,0,1,.416-.412c.2,0,.423,0,.616,0a.408.408,0,0,1,.416.412v8.546c0,1.894.862,3.43,1.925,3.43h.039c1.062,0,1.925-1.536,1.925-3.43V156.93a.407.407,0,0,1,.4-.408h.012a.408.408,0,0,1,.42.408v6.76c0,1.34.6,1.886,1.34,1.886h.027c.743,0,1.344-.547,1.344-1.886v-8.773Z" transform="translate(-393.211 -152.63)" fill="#8e8d97"/>
              </g>
            </g>
            <g id="Grupo_106421" data-name="Grupo 106421" transform="translate(45.356 38.456)">
              <g id="Grupo_106419" data-name="Grupo 106419" transform="translate(4.223)">
                <circle id="Elipse_508" data-name="Elipse 508" cx="3.933" cy="3.933" r="3.933" fill="#8e8d97"/>
              </g>
              <g id="Grupo_106420" data-name="Grupo 106420" transform="translate(0 8.612)">
                <path id="Trazado_162191" data-name="Trazado 162191" d="M414.654,154.917c0-1.263-1.394-2.287-3.11-2.287h-10.09c-1.717,0-3.11,1.024-3.11,2.287v8.773c0,1.34.6,1.886,1.34,1.886h.027c.743,0,1.343-.547,1.343-1.886v-6.76a.406.406,0,0,1,.42-.408h.012a.41.41,0,0,1,.4.408v20.83c0,1.894.862,3.43,1.925,3.43h.038c1.063,0,1.925-1.536,1.925-3.43v-8.546a.408.408,0,0,1,.412-.412c.2,0,.423,0,.62,0a.407.407,0,0,1,.412.412v8.546c0,1.894.862,3.43,1.925,3.43h.039c1.062,0,1.925-1.536,1.925-3.43V156.93a.41.41,0,0,1,.4-.408h.011a.406.406,0,0,1,.42.408v6.76c0,1.34.6,1.886,1.34,1.886h.031c.739,0,1.34-.547,1.34-1.886v-8.773Z" transform="translate(-398.344 -152.63)" fill="#8e8d97"/>
              </g>
            </g>
            <g id="Grupo_106424" data-name="Grupo 106424" transform="translate(65.116 38.456)">
              <g id="Grupo_106422" data-name="Grupo 106422" transform="translate(4.223)">
                <circle id="Elipse_509" data-name="Elipse 509" cx="3.933" cy="3.933" r="3.933" fill="#8e8d97"/>
              </g>
              <g id="Grupo_106423" data-name="Grupo 106423" transform="translate(0 8.612)">
                <path id="Trazado_162192" data-name="Trazado 162192" d="M419.787,154.917c0-1.263-1.394-2.287-3.11-2.287H406.591c-1.721,0-3.114,1.024-3.114,2.287v8.773c0,1.34.6,1.886,1.343,1.886h.027c.739,0,1.34-.547,1.34-1.886v-6.76a.408.408,0,0,1,.42-.408h.012a.41.41,0,0,1,.4.408v20.83c0,1.894.862,3.43,1.925,3.43h.038c1.063,0,1.925-1.536,1.925-3.43v-8.546a.408.408,0,0,1,.416-.412c.193,0,.42,0,.616,0a.411.411,0,0,1,.416.412v8.546c0,1.894.858,3.43,1.921,3.43h.039c1.066,0,1.925-1.536,1.925-3.43V156.93a.41.41,0,0,1,.4-.408h.011a.406.406,0,0,1,.42.408v6.76c0,1.34.6,1.886,1.344,1.886h.027c.739,0,1.34-.547,1.34-1.886v-8.773Z" transform="translate(-403.477 -152.63)" fill="#8e8d97"/>
              </g>
            </g>
            <g id="Grupo_106427" data-name="Grupo 106427" transform="translate(84.876 38.456)">
              <g id="Grupo_106425" data-name="Grupo 106425" transform="translate(4.224)">
                <circle id="Elipse_510" data-name="Elipse 510" cx="3.933" cy="3.933" r="3.933" fill="#8e8d97"/>
              </g>
              <g id="Grupo_106426" data-name="Grupo 106426" transform="translate(0 8.612)">
                <path id="Trazado_162193" data-name="Trazado 162193" d="M424.924,154.917c0-1.263-1.393-2.287-3.114-2.287H411.724c-1.721,0-3.114,1.024-3.114,2.287v8.773c0,1.34.6,1.886,1.344,1.886h.027c.739,0,1.344-.547,1.344-1.886v-6.76a.405.405,0,0,1,.416-.408h.016a.407.407,0,0,1,.4.408v20.83c0,1.894.862,3.43,1.925,3.43h.038c1.063,0,1.925-1.536,1.925-3.43v-8.546a.408.408,0,0,1,.416-.412c.193,0,.42,0,.616,0a.411.411,0,0,1,.416.412v8.546c0,1.894.859,3.43,1.925,3.43h.039c1.062,0,1.925-1.536,1.925-3.43V156.93a.407.407,0,0,1,.4-.408h.011a.406.406,0,0,1,.42.408v6.76c0,1.34.6,1.886,1.344,1.886h.027c.739,0,1.343-.547,1.343-1.886v-8.773Z" transform="translate(-408.61 -152.63)" fill="#8e8d97"/>
              </g>
            </g>
            <g id="Grupo_106430" data-name="Grupo 106430" transform="translate(104.635 38.457)">
              <g id="Grupo_106428" data-name="Grupo 106428" transform="translate(4.223)">
                <path id="Trazado_162194" data-name="Trazado 162194" d="M418.774,158.258a3.932,3.932,0,1,0-3.934-3.934A3.934,3.934,0,0,0,418.774,158.258Z" transform="translate(-414.84 -150.393)" fill="#8e8d97"/>
              </g>
              <g id="Grupo_106429" data-name="Grupo 106429" transform="translate(0 8.611)">
                <path id="Trazado_162195" data-name="Trazado 162195" d="M430.057,154.917c0-1.263-1.393-2.287-3.114-2.287H416.857c-1.721,0-3.114,1.024-3.114,2.287v8.773c0,1.34.6,1.886,1.343,1.886h.027c.743,0,1.344-.547,1.344-1.886v-6.76a.406.406,0,0,1,.42-.408h.012a.407.407,0,0,1,.4.408v20.83c0,1.894.862,3.43,1.925,3.43h.039c1.062,0,1.925-1.536,1.925-3.43v-8.546a.408.408,0,0,1,.416-.412c.192,0,.42,0,.616,0a.411.411,0,0,1,.416.412v8.546c0,1.894.862,3.43,1.925,3.43h.039c1.062,0,1.925-1.536,1.925-3.43V156.93a.407.407,0,0,1,.4-.408h.012a.406.406,0,0,1,.42.408v6.76c0,1.34.6,1.886,1.344,1.886h.027c.743,0,1.343-.547,1.343-1.886v-8.773Z" transform="translate(-413.743 -152.63)" fill="#8e8d97"/>
              </g>
            </g>
            <g id="Grupo_106432" data-name="Grupo 106432" transform="translate(124.395 47.23)">
              <g id="Grupo_106431" data-name="Grupo 106431">
                <path id="Trazado_162196" data-name="Trazado 162196" d="M420.862,152.672a2.422,2.422,0,0,0-1.986,2.125v8.773c0,1.34.6,1.886,1.343,1.886h.027a.766.766,0,0,0,.135-.031c.042-.774.115-1.536.123-2.329C420.523,159.975,420.751,156.387,420.862,152.672Z" transform="translate(-418.876 -152.672)" fill="#8e8d97"/>
              </g>
            </g>
            <g id="Grupo_106434" data-name="Grupo 106434" transform="translate(0 47.457)">
              <g id="Grupo_106433" data-name="Grupo 106433">
                <path id="Trazado_162197" data-name="Trazado 162197" d="M387.579,165.288h.027c.743,0,1.344-.547,1.344-1.886v-8.773a2.207,2.207,0,0,0-1.378-1.9,67.329,67.329,0,0,0-1,12A1.167,1.167,0,0,0,387.579,165.288Z" transform="translate(-386.562 -152.731)" fill="#8e8d97"/>
              </g>
            </g>
            <g id="Grupo_106437" data-name="Grupo 106437" transform="translate(5.833 38.456)">
              <g id="Grupo_106435" data-name="Grupo 106435" transform="translate(4.225)">
                <circle id="Elipse_511" data-name="Elipse 511" cx="3.933" cy="3.933" r="3.933" fill="#8e8d97"/>
              </g>
              <g id="Grupo_106436" data-name="Grupo 106436" transform="translate(0 8.612)">
                <path id="Trazado_162198" data-name="Trazado 162198" d="M404.391,154.917c0-1.263-1.394-2.287-3.114-2.287H391.191c-1.721,0-3.114,1.024-3.114,2.287v8.773c0,1.34.6,1.886,1.343,1.886h.027c.743,0,1.343-.547,1.343-1.886v-6.76a.406.406,0,0,1,.42-.408h.012a.407.407,0,0,1,.4.408v20.83c0,1.894.862,3.43,1.925,3.43h.039c1.062,0,1.925-1.536,1.925-3.43v-8.546a.411.411,0,0,1,.416-.412c.2,0,.423,0,.616,0a.408.408,0,0,1,.416.412v8.546c0,1.894.862,3.43,1.925,3.43h.039c1.062,0,1.925-1.536,1.925-3.43V156.93a.407.407,0,0,1,.4-.408h.012a.406.406,0,0,1,.42.408v6.76c0,1.34.6,1.886,1.344,1.886h.027c.743,0,1.344-.547,1.344-1.886v-8.773Z" transform="translate(-388.077 -152.63)" fill="#8e8d97"/>
              </g>
            </g>
            <g id="Grupo_106440" data-name="Grupo 106440" transform="translate(15.935 76.914)">
              <g id="Grupo_106438" data-name="Grupo 106438" transform="translate(4.223)">
                <path id="Trazado_162199" data-name="Trazado 162199" d="M395.732,168.248a3.932,3.932,0,1,0-3.934-3.934A3.931,3.931,0,0,0,395.732,168.248Z" transform="translate(-391.798 -160.383)" fill="#8e8d97"/>
              </g>
              <g id="Grupo_106439" data-name="Grupo 106439" transform="translate(0 8.611)">
                <path id="Trazado_162200" data-name="Trazado 162200" d="M403.87,166.508h.012a.412.412,0,0,1,.42.412v6.76c0,1.34.6,1.886,1.343,1.886h.027c.739,0,1.34-.547,1.34-1.886v-8.773c0-1.263-1.393-2.287-3.11-2.287H393.815c-1.721,0-3.114,1.024-3.114,2.287v5.6q1.265,1.565,2.71,3.037V166.92a.414.414,0,0,1,.42-.412h.011a.416.416,0,0,1,.4.412v7.43a55.818,55.818,0,0,0,9.22,7.06V166.92A.416.416,0,0,1,403.87,166.508Z" transform="translate(-390.701 -162.62)" fill="#8e8d97"/>
              </g>
            </g>
            <g id="Grupo_106443" data-name="Grupo 106443" transform="translate(35.694 76.913)">
              <g id="Grupo_106441" data-name="Grupo 106441" transform="translate(4.224)">
                <circle id="Elipse_512" data-name="Elipse 512" cx="3.933" cy="3.933" r="3.933" fill="#8e8d97"/>
              </g>
              <g id="Grupo_106442" data-name="Grupo 106442" transform="translate(0 8.612)">
                <path id="Trazado_162201" data-name="Trazado 162201" d="M397.178,175.566h.027c.739,0,1.343-.547,1.343-1.886v-6.76a.411.411,0,0,1,.416-.412h.011a.413.413,0,0,1,.4.412v19.914c1.27.543,2.548,1.066,3.85,1.555a5.851,5.851,0,0,0,.039-.639V179.2a.408.408,0,0,1,.416-.412c.193,0,.42,0,.616,0a.411.411,0,0,1,.416.412v8.546a6.066,6.066,0,0,0,.127,1.213c1.078.381,2.159.747,3.249,1.089a5.072,5.072,0,0,0,.512-2.3V166.92a.412.412,0,0,1,.4-.412h.011a.412.412,0,0,1,.42.412v6.76c0,1.34.6,1.886,1.343,1.886h.027c.739,0,1.343-.547,1.343-1.886v-8.773c0-1.263-1.4-2.287-3.114-2.287H398.948c-1.721,0-3.114,1.024-3.114,2.287v8.773C395.834,175.019,396.434,175.566,397.178,175.566Z" transform="translate(-395.834 -162.62)" fill="#8e8d97"/>
              </g>
            </g>
            <g id="Grupo_106446" data-name="Grupo 106446" transform="translate(55.454 76.914)">
              <g id="Grupo_106444" data-name="Grupo 106444" transform="translate(4.223)">
                <path id="Trazado_162202" data-name="Trazado 162202" d="M406,168.248a3.932,3.932,0,1,0-3.934-3.934A3.934,3.934,0,0,0,406,168.248Z" transform="translate(-402.064 -160.383)" fill="#8e8d97"/>
              </g>
              <g id="Grupo_106445" data-name="Grupo 106445" transform="translate(0 8.611)">
                <path id="Trazado_162203" data-name="Trazado 162203" d="M417.281,164.907c0-1.263-1.393-2.287-3.114-2.287H404.081c-1.721,0-3.114,1.024-3.114,2.287v8.773c0,1.34.6,1.886,1.344,1.886h.027c.743,0,1.343-.547,1.343-1.886v-6.76a.412.412,0,0,1,.42-.412l.011,0a.407.407,0,0,1,.4.408v20.83c0,1.894.862,3.426,1.925,3.426h.039c1.062,0,1.925-1.532,1.925-3.426V179.2a.408.408,0,0,1,.416-.412c.192,0,.42,0,.616,0a.411.411,0,0,1,.416.412v8.546c0,1.894.862,3.426,1.925,3.426h.038c1.062,0,1.925-1.532,1.925-3.426V166.92a.407.407,0,0,1,.4-.408l.011,0a.412.412,0,0,1,.42.412v6.76c0,1.34.6,1.886,1.343,1.886h.027c.743,0,1.343-.547,1.343-1.886v-8.773Z" transform="translate(-400.967 -162.62)" fill="#8e8d97"/>
              </g>
            </g>
            <g id="Grupo_106449" data-name="Grupo 106449" transform="translate(75.213 76.914)">
              <g id="Grupo_106447" data-name="Grupo 106447" transform="translate(4.223)">
                <path id="Trazado_162204" data-name="Trazado 162204" d="M411.131,168.248a3.932,3.932,0,1,0-3.934-3.934A3.934,3.934,0,0,0,411.131,168.248Z" transform="translate(-407.197 -160.383)" fill="#8e8d97"/>
              </g>
              <g id="Grupo_106448" data-name="Grupo 106448" transform="translate(0 8.611)">
                <path id="Trazado_162205" data-name="Trazado 162205" d="M409.245,166.508a.412.412,0,0,1,.4.412v20.83c0,1.894.862,3.426,1.925,3.426h.039c1.062,0,1.925-1.532,1.925-3.426V179.2a.411.411,0,0,1,.416-.412c.2,0,.423,0,.616,0a.408.408,0,0,1,.416.412v8.546a5.269,5.269,0,0,0,.427,2.129,26.463,26.463,0,0,1,3.461-3.022V166.92a.413.413,0,0,1,.4-.412h.011a.412.412,0,0,1,.42.412v6.76c0,1.34.6,1.886,1.343,1.886h.027c.743,0,1.343-.547,1.343-1.886v-8.773c0-1.263-1.393-2.287-3.114-2.287H409.214c-1.721,0-3.114,1.024-3.114,2.287v8.773c0,1.34.6,1.886,1.343,1.886h.027c.743,0,1.343-.547,1.343-1.886v-6.76a.412.412,0,0,1,.42-.412Z" transform="translate(-406.1 -162.62)" fill="#8e8d97"/>
              </g>
            </g>
            <g id="Grupo_106452" data-name="Grupo 106452" transform="translate(94.973 76.913)">
              <g id="Grupo_106450" data-name="Grupo 106450" transform="translate(4.226)">
                <circle id="Elipse_513" data-name="Elipse 513" cx="3.933" cy="3.933" r="3.933" fill="#8e8d97"/>
              </g>
              <g id="Grupo_106451" data-name="Grupo 106451" transform="translate(0 8.612)">
                <path id="Trazado_162206" data-name="Trazado 162206" d="M424,175.285V166.92a.413.413,0,0,1,.4-.412h.011a.411.411,0,0,1,.416.412v6.76a3.152,3.152,0,0,0,.123.9,30.521,30.521,0,0,0,2.591-2.21v-7.46c0-1.263-1.394-2.287-3.114-2.287H414.347c-1.717,0-3.114,1.024-3.114,2.287v8.773c0,1.34.6,1.886,1.343,1.886h.027c.743,0,1.343-.547,1.343-1.886v-6.76a.412.412,0,0,1,.42-.412h.012a.416.416,0,0,1,.4.412v13.8A78.683,78.683,0,0,0,424,175.285Z" transform="translate(-411.233 -162.62)" fill="#8e8d97"/>
              </g>
            </g>
          </g>
        </g>
        <g id="Grupo_106455" data-name="Grupo 106455" transform="translate(0 0.686)">
          <path id="Trazado_162207" data-name="Trazado 162207" d="M472.952,230.35l-.185.169C467.8,235,459.8,232.995,454.336,225.9l-41.1-50.733,10.859-9.8,47.06,45.351C477.66,216.88,477.914,225.869,472.952,230.35Z" transform="translate(-310.084 -55.884)" fill="#474656"/>
          <path id="Trazado_162208" data-name="Trazado 162208" d="M417.213,147.2a66.2,66.2,0,1,0,76.328,3.907A66.251,66.251,0,0,0,417.213,147.2Zm77.837,89.324a53.992,53.992,0,1,1,3.188-62.247A54.03,54.03,0,0,1,495.05,236.526Z" transform="translate(-386.442 -136.926)" fill="#474656"/>
        </g>
      </g>
    </g>
  </g>
</svg>
