<svg xmlns="http://www.w3.org/2000/svg" width="189" height="198" viewBox="0 0 189 198">
  <g id="Grupo_112870" data-name="Grupo 112870" transform="translate(2320 9271)">
    <g id="Trazado_168239" data-name="Trazado 168239" transform="translate(-2320 -9271)" fill="#fff">
      <path d="M 187.5 196.5 L 1.5 196.5 L 1.5 1.5 L 187.5 1.5 L 187.5 196.5 Z" stroke="none"/>
      <path d="M 3 3 L 3 195 L 186 195 L 186 3 L 3 3 M 0 0 L 189 0 L 189 198 L 0 198 L 0 0 Z" stroke="none" fill="#3ffee2"/>
    </g>
    <path id="Trazado_168240" data-name="Trazado 168240" d="M33.211,12.4H30.539V17H29.031V5.625H32.8a4.457,4.457,0,0,1,2.957.875,3.148,3.148,0,0,1,1.035,2.547,3.062,3.062,0,0,1-.574,1.852,3.428,3.428,0,0,1-1.6,1.18l2.672,4.828V17H35.68Zm-2.672-1.227h2.3a2.6,2.6,0,0,0,1.777-.579,1.959,1.959,0,0,0,.66-1.55,2.062,2.062,0,0,0-.629-1.62,2.663,2.663,0,0,0-1.816-.571h-2.3Zm11.633,5.984a3.693,3.693,0,0,1-2.8-1.129,4.19,4.19,0,0,1-1.078-3.02v-.266a5.073,5.073,0,0,1,.48-2.246,3.748,3.748,0,0,1,1.344-1.547,3.378,3.378,0,0,1,1.871-.559,3.166,3.166,0,0,1,2.563,1.086,4.7,4.7,0,0,1,.914,3.109v.6H39.742a3,3,0,0,0,.73,2.02,2.3,2.3,0,0,0,1.777.77,2.517,2.517,0,0,0,1.3-.312,3.259,3.259,0,0,0,.93-.828l.883.688A3.55,3.55,0,0,1,42.172,17.156Zm-.18-7.578a1.928,1.928,0,0,0-1.469.637A3.1,3.1,0,0,0,39.789,12h4.234v-.109a2.753,2.753,0,0,0-.594-1.707A1.815,1.815,0,0,0,41.992,9.578ZM48.711,17H47.266V8.547h1.445ZM47.148,6.3a.863.863,0,0,1,.215-.594A.807.807,0,0,1,48,5.469a.819.819,0,0,1,.641.242.854.854,0,0,1,.219.594.826.826,0,0,1-.219.586A.834.834,0,0,1,48,7.125a.821.821,0,0,1-.637-.234A.834.834,0,0,1,47.148,6.3Zm5.242,2.242.047,1.063a3.08,3.08,0,0,1,2.531-1.219q2.68,0,2.7,3.023V17H56.227V11.406a1.946,1.946,0,0,0-.418-1.352,1.675,1.675,0,0,0-1.277-.437,2.086,2.086,0,0,0-1.234.375,2.546,2.546,0,0,0-.828.984V17H51.023V8.547ZM61.813,6.5V8.547h1.578V9.664H61.813v5.249a1.173,1.173,0,0,0,.211.763.888.888,0,0,0,.719.254,3.5,3.5,0,0,0,.688-.094V17a4.215,4.215,0,0,1-1.109.155,1.8,1.8,0,0,1-1.461-.586,2.517,2.517,0,0,1-.492-1.664V9.664H58.828V8.547h1.539V6.5Zm6.773,10.656a3.693,3.693,0,0,1-2.8-1.129,4.19,4.19,0,0,1-1.078-3.02v-.266a5.073,5.073,0,0,1,.48-2.246,3.748,3.748,0,0,1,1.344-1.547,3.378,3.378,0,0,1,1.871-.559,3.166,3.166,0,0,1,2.563,1.086,4.7,4.7,0,0,1,.914,3.109v.6H66.156a3,3,0,0,0,.73,2.02,2.3,2.3,0,0,0,1.777.77,2.517,2.517,0,0,0,1.3-.312,3.259,3.259,0,0,0,.93-.828l.883.688A3.55,3.55,0,0,1,68.586,17.156Zm-.18-7.578a1.928,1.928,0,0,0-1.469.637A3.1,3.1,0,0,0,66.2,12h4.234v-.109a2.753,2.753,0,0,0-.594-1.707A1.815,1.815,0,0,0,68.406,9.578Zm4.8,3.125a4.968,4.968,0,0,1,.914-3.145,3.151,3.151,0,0,1,4.836-.074l.07-.937h1.32V16.8a3.439,3.439,0,0,1-.973,2.586,3.589,3.589,0,0,1-2.613.945,4.348,4.348,0,0,1-1.789-.391,3.08,3.08,0,0,1-1.336-1.07l.75-.867a2.826,2.826,0,0,0,2.273,1.148,2.214,2.214,0,0,0,1.645-.594,2.269,2.269,0,0,0,.59-1.672v-.727a2.971,2.971,0,0,1-2.367,1,2.887,2.887,0,0,1-2.4-1.2A5.224,5.224,0,0,1,73.211,12.7Zm1.453.164a3.79,3.79,0,0,0,.586,2.246,1.9,1.9,0,0,0,1.641.816A2.117,2.117,0,0,0,78.9,14.688V10.828a2.142,2.142,0,0,0-1.992-1.211,1.921,1.921,0,0,0-1.648.82A4.128,4.128,0,0,0,74.664,12.867ZM86.617,9.844a4.331,4.331,0,0,0-.711-.055A1.9,1.9,0,0,0,83.977,11v6H82.531V8.547h1.406l.023.977a2.251,2.251,0,0,1,2.016-1.133,1.477,1.477,0,0,1,.641.109Zm.789,2.852a4.993,4.993,0,0,1,.488-2.234A3.643,3.643,0,0,1,89.254,8.93a3.7,3.7,0,0,1,1.988-.539,3.565,3.565,0,0,1,2.793,1.2,4.6,4.6,0,0,1,1.066,3.18v.1a5.036,5.036,0,0,1-.473,2.215,3.589,3.589,0,0,1-1.352,1.527,3.743,3.743,0,0,1-2.02.547,3.556,3.556,0,0,1-2.785-1.2A4.575,4.575,0,0,1,87.406,12.8Zm1.453.172a3.616,3.616,0,0,0,.652,2.258,2.211,2.211,0,0,0,3.5-.012,3.955,3.955,0,0,0,.648-2.418A3.61,3.61,0,0,0,93,10.441a2.1,2.1,0,0,0-1.754-.863,2.075,2.075,0,0,0-1.727.852A3.925,3.925,0,0,0,88.859,12.867Zm11.664-.164a4.952,4.952,0,0,1,.922-3.129,3.137,3.137,0,0,1,4.766-.168V5h1.445V17h-1.328l-.07-.906a2.943,2.943,0,0,1-2.414,1.063,2.887,2.887,0,0,1-2.395-1.2,5.008,5.008,0,0,1-.926-3.141Zm1.445.164a3.749,3.749,0,0,0,.594,2.25,1.92,1.92,0,0,0,1.641.813,2.108,2.108,0,0,0,2.008-1.234V10.813a2.125,2.125,0,0,0-1.992-1.2,1.929,1.929,0,0,0-1.656.82A4.128,4.128,0,0,0,101.969,12.867Zm11.438,4.289a3.693,3.693,0,0,1-2.8-1.129,4.19,4.19,0,0,1-1.078-3.02v-.266a5.073,5.073,0,0,1,.48-2.246,3.748,3.748,0,0,1,1.344-1.547,3.378,3.378,0,0,1,1.871-.559,3.166,3.166,0,0,1,2.563,1.086,4.7,4.7,0,0,1,.914,3.109v.6h-5.727a3,3,0,0,0,.73,2.02,2.3,2.3,0,0,0,1.777.77,2.517,2.517,0,0,0,1.3-.312,3.259,3.259,0,0,0,.93-.828l.883.688A3.55,3.55,0,0,1,113.406,17.156Zm-.18-7.578a1.928,1.928,0,0,0-1.469.637A3.1,3.1,0,0,0,111.023,12h4.234v-.109a2.753,2.753,0,0,0-.594-1.707A1.815,1.815,0,0,0,113.227,9.578ZM26.512,41.156a3.693,3.693,0,0,1-2.8-1.129,4.19,4.19,0,0,1-1.078-3.02v-.266a5.073,5.073,0,0,1,.48-2.246,3.748,3.748,0,0,1,1.344-1.547,3.378,3.378,0,0,1,1.871-.559,3.166,3.166,0,0,1,2.563,1.086,4.7,4.7,0,0,1,.914,3.109v.6H24.082a3,3,0,0,0,.73,2.02,2.3,2.3,0,0,0,1.777.77,2.517,2.517,0,0,0,1.3-.312,3.259,3.259,0,0,0,.93-.828l.883.688A3.55,3.55,0,0,1,26.512,41.156Zm-.18-7.578a1.928,1.928,0,0,0-1.469.637A3.1,3.1,0,0,0,24.129,36h4.234v-.109a2.753,2.753,0,0,0-.594-1.707A1.815,1.815,0,0,0,26.332,33.578Zm7.984,2.055,1.875-3.086h1.688l-2.766,4.18L37.965,41H36.293L34.34,37.836,32.387,41h-1.68l2.852-4.273-2.766-4.18h1.672Zm12.234,1.234a5.062,5.062,0,0,1-.883,3.109,2.829,2.829,0,0,1-2.391,1.18,3.1,3.1,0,0,1-2.422-.977v4.07H39.41v-11.7h1.32l.07.938a2.977,2.977,0,0,1,2.453-1.094,2.882,2.882,0,0,1,2.41,1.148,5.117,5.117,0,0,1,.887,3.2ZM45.105,36.7a3.735,3.735,0,0,0-.609-2.258,1.963,1.963,0,0,0-1.672-.828,2.125,2.125,0,0,0-1.969,1.164V38.82a2.129,2.129,0,0,0,1.984,1.156,1.954,1.954,0,0,0,1.652-.824A4.077,4.077,0,0,0,45.105,36.7ZM48,36.7a4.993,4.993,0,0,1,.488-2.234,3.643,3.643,0,0,1,1.359-1.531,3.7,3.7,0,0,1,1.988-.539,3.565,3.565,0,0,1,2.793,1.2,4.6,4.6,0,0,1,1.066,3.18v.1a5.036,5.036,0,0,1-.473,2.215,3.589,3.589,0,0,1-1.352,1.527,3.743,3.743,0,0,1-2.02.547,3.556,3.556,0,0,1-2.785-1.2A4.575,4.575,0,0,1,48,36.8Zm1.453.172a3.616,3.616,0,0,0,.652,2.258,2.211,2.211,0,0,0,3.5-.012,3.955,3.955,0,0,0,.648-2.418,3.61,3.61,0,0,0-.66-2.254,2.1,2.1,0,0,0-1.754-.863,2.075,2.075,0,0,0-1.727.852A3.925,3.925,0,0,0,49.457,36.867ZM61.6,33.844a4.331,4.331,0,0,0-.711-.055A1.9,1.9,0,0,0,58.957,35v6H57.512V32.547h1.406l.023.977a2.251,2.251,0,0,1,2.016-1.133,1.477,1.477,0,0,1,.641.109Zm3.68-3.344v2.047h1.578v1.117H65.277v5.249a1.173,1.173,0,0,0,.211.763.888.888,0,0,0,.719.254,3.5,3.5,0,0,0,.688-.094V41a4.215,4.215,0,0,1-1.109.155,1.8,1.8,0,0,1-1.461-.586,2.517,2.517,0,0,1-.492-1.664V33.664H62.293V32.547h1.539V30.5ZM73.762,41a3.036,3.036,0,0,1-.2-.891,3.225,3.225,0,0,1-2.406,1.047,2.984,2.984,0,0,1-2.051-.707,2.288,2.288,0,0,1-.8-1.793,2.39,2.39,0,0,1,1-2.051,4.733,4.733,0,0,1,2.824-.73h1.406v-.664A1.623,1.623,0,0,0,73.082,34a1.821,1.821,0,0,0-1.336-.449,2.107,2.107,0,0,0-1.3.391,1.151,1.151,0,0,0-.523.945H68.473a2,2,0,0,1,.449-1.223,3.066,3.066,0,0,1,1.219-.934,4.1,4.1,0,0,1,1.691-.344,3.342,3.342,0,0,1,2.289.73,2.635,2.635,0,0,1,.859,2.012v3.891a4.757,4.757,0,0,0,.3,1.852V41Zm-2.4-1.1a2.54,2.54,0,0,0,1.289-.352,2.127,2.127,0,0,0,.883-.914V36.9H72.4q-2.656,0-2.656,1.555a1.316,1.316,0,0,0,.453,1.063A1.742,1.742,0,0,0,71.363,39.9Zm9.273.078a2.082,2.082,0,0,0,1.352-.469,1.649,1.649,0,0,0,.641-1.172H84a2.621,2.621,0,0,1-.5,1.383,3.293,3.293,0,0,1-1.23,1.047,3.55,3.55,0,0,1-1.629.391A3.482,3.482,0,0,1,77.891,40a4.59,4.59,0,0,1-1.02-3.152v-.242a5.089,5.089,0,0,1,.453-2.2,3.451,3.451,0,0,1,1.3-1.492,3.7,3.7,0,0,1,2-.531,3.39,3.39,0,0,1,2.363.852,3.043,3.043,0,0,1,1,2.211H82.629a1.992,1.992,0,0,0-.621-1.348,1.932,1.932,0,0,0-1.379-.527,2.023,2.023,0,0,0-1.707.793,3.724,3.724,0,0,0-.605,2.293v.273a3.65,3.65,0,0,0,.6,2.25A2.033,2.033,0,0,0,80.637,39.977ZM87.191,41H85.746V32.547h1.445ZM85.629,30.3a.863.863,0,0,1,.215-.594.807.807,0,0,1,.637-.242.819.819,0,0,1,.641.242.854.854,0,0,1,.219.594.826.826,0,0,1-.219.586.834.834,0,0,1-.641.234.821.821,0,0,1-.637-.234A.834.834,0,0,1,85.629,30.3ZM89.121,36.7a4.993,4.993,0,0,1,.488-2.234,3.643,3.643,0,0,1,1.359-1.531,3.7,3.7,0,0,1,1.988-.539,3.565,3.565,0,0,1,2.793,1.2,4.6,4.6,0,0,1,1.066,3.18v.1a5.036,5.036,0,0,1-.473,2.215,3.589,3.589,0,0,1-1.352,1.527,3.743,3.743,0,0,1-2.02.547,3.556,3.556,0,0,1-2.785-1.2A4.575,4.575,0,0,1,89.121,36.8Zm1.453.172a3.616,3.616,0,0,0,.652,2.258,2.211,2.211,0,0,0,3.5-.012,3.955,3.955,0,0,0,.648-2.418,3.61,3.61,0,0,0-.66-2.254,2.1,2.1,0,0,0-1.754-.863,2.075,2.075,0,0,0-1.727.852A3.925,3.925,0,0,0,90.574,36.867ZM100,32.547l.047,1.063a3.08,3.08,0,0,1,2.531-1.219q2.68,0,2.7,3.023V41h-1.445V35.406a1.946,1.946,0,0,0-.418-1.352,1.675,1.675,0,0,0-1.277-.437,2.086,2.086,0,0,0-1.234.375,2.546,2.546,0,0,0-.828.984V41H98.629V32.547Zm10.969,8.609a3.693,3.693,0,0,1-2.8-1.129,4.19,4.19,0,0,1-1.078-3.02v-.266a5.073,5.073,0,0,1,.48-2.246,3.748,3.748,0,0,1,1.344-1.547,3.378,3.378,0,0,1,1.871-.559,3.166,3.166,0,0,1,2.563,1.086,4.7,4.7,0,0,1,.914,3.109v.6h-5.727a3,3,0,0,0,.73,2.02,2.3,2.3,0,0,0,1.777.77,2.517,2.517,0,0,0,1.3-.312,3.259,3.259,0,0,0,.93-.828l.883.688A3.55,3.55,0,0,1,110.965,41.156Zm-.18-7.578a1.928,1.928,0,0,0-1.469.637A3.1,3.1,0,0,0,108.582,36h4.234v-.109a2.753,2.753,0,0,0-.594-1.707A1.815,1.815,0,0,0,110.785,33.578Zm10.07,5.18a1.064,1.064,0,0,0-.441-.91,4.249,4.249,0,0,0-1.539-.559,7.277,7.277,0,0,1-1.742-.562,2.479,2.479,0,0,1-.953-.781,1.869,1.869,0,0,1-.309-1.078,2.193,2.193,0,0,1,.879-1.758A3.432,3.432,0,0,1,119,32.391a3.532,3.532,0,0,1,2.332.742,2.357,2.357,0,0,1,.895,1.9H120.77a1.3,1.3,0,0,0-.5-1.023,1.888,1.888,0,0,0-1.27-.43,1.976,1.976,0,0,0-1.234.344,1.082,1.082,0,0,0-.445.9.877.877,0,0,0,.414.789,5.1,5.1,0,0,0,1.5.508,7.8,7.8,0,0,1,1.754.578,2.558,2.558,0,0,1,1,.809,1.988,1.988,0,0,1,.324,1.152,2.163,2.163,0,0,1-.906,1.816,3.8,3.8,0,0,1-2.352.684,4.257,4.257,0,0,1-1.8-.359,2.922,2.922,0,0,1-1.223-1,2.42,2.42,0,0,1-.441-1.395h1.445a1.5,1.5,0,0,0,.582,1.152,2.258,2.258,0,0,0,1.434.426,2.331,2.331,0,0,0,1.316-.332A1.02,1.02,0,0,0,120.855,38.758Z" transform="translate(-2303 -9166)" fill="#12263f"/>
    <g id="Grupo_106378" data-name="Grupo 106378" transform="translate(-2281.938 -9372.932)">
      <g id="Grupo_106377" data-name="Grupo 106377">
        <rect id="Rectángulo_33907" data-name="Rectángulo 33907" width="19.35" height="39.367" transform="translate(47.93 180.578) rotate(-67.199)" fill="#75bd38"/>
        <path id="Trazado_162143" data-name="Trazado 162143" d="M54.94,169.243l-2.816,6.7c1.25.687,3.389,1.773,2.346,5.542L78.759,191.7c2.083-3.6,4.554-2.578,5.843-2.125l2.807-6.678c-1.25-.615-3.779-1.721-2.5-5.917L61.416,167.1C58.986,171.543,55.859,169.688,54.94,169.243Z" fill="#ffffd0"/>
        <path id="Trazado_162144" data-name="Trazado 162144" d="M61.974,175.988a2.377,2.377,0,1,1-1.272-3.114A2.377,2.377,0,0,1,61.974,175.988Z" fill="#75bd38"/>
        <path id="Trazado_162145" data-name="Trazado 162145" d="M81.1,184.029a2.376,2.376,0,1,1-1.266-3.112A2.375,2.375,0,0,1,81.1,184.029Z" fill="#75bd38"/>
        <path id="Trazado_162146" data-name="Trazado 162146" d="M75.364,181.617a5.967,5.967,0,1,1-3.189-7.812A5.966,5.966,0,0,1,75.364,181.617Z" fill="#75bd38"/>
      </g>
      <path id="Trazado_162147" data-name="Trazado 162147" d="M71.935,181.781a1.951,1.951,0,0,0-.9-2.346c-.219-.1-.415-.194-.59-.291l.95-2.259a.871.871,0,0,1,.123,1.306l1.365.574s1.45-1.885-.918-3.236l.078-.186a.518.518,0,0,0-.955-.4l-.068.161c-2.25-.792-2.885.628-3.2,1.454-.306.806-.568,1.873,1.272,3.13l-.949,2.257c-.7-.649-.038-1.651-.038-1.651l-1.571-.661c-.369.7-.9,2.09,1.229,3.217l-.16.381a.518.518,0,0,0,.955.4l.154-.366C70.315,183.837,71.25,183.466,71.935,181.781ZM69.2,177.215a1.161,1.161,0,0,1,1.245-.738l-.855,2.034C68.894,177.794,69.2,177.215,69.2,177.215Zm-.1,5.139.872-2.075A1.14,1.14,0,0,1,69.1,182.354Z" fill="#ffffd0"/>
    </g>
    <path id="Trazado_168241" data-name="Trazado 168241" d="M0,0H19.35V39.367H0Z" transform="matrix(0.388, -0.922, 0.922, 0.388, -2234.008, -9192.354)" fill="#b1c0c0" style="mix-blend-mode: multiply;isolation: isolate"/>
    <g id="Grupo_106381" data-name="Grupo 106381" transform="translate(-2281.938 -9372.932)">
      <g id="Grupo_106380" data-name="Grupo 106380">
        <rect id="Rectángulo_33909" data-name="Rectángulo 33909" width="39.366" height="19.35" transform="matrix(1, -0.014, 0.014, 1, 18.039, 175.961)" fill="#75bd38"/>
        <path id="Trazado_162148" data-name="Trazado 162148" d="M20.195,182.116l.1,7.267c1.421.129,3.815.268,4.368,4.139l26.346-.368c.469-4.131,3.141-4.186,4.5-4.286l-.1-7.244c-1.392-.062-4.152-.063-4.662-4.42l-25.481.356C24.824,182.6,21.216,182.156,20.195,182.116Z" fill="#ffffd0"/>
        <path id="Trazado_162149" data-name="Trazado 162149" d="M29.341,185.481a2.377,2.377,0,1,1-2.412-2.345A2.378,2.378,0,0,1,29.341,185.481Z" fill="#75bd38"/>
        <path id="Trazado_162150" data-name="Trazado 162150" d="M50.087,185.191a2.376,2.376,0,1,1-2.406-2.344A2.374,2.374,0,0,1,50.087,185.191Z" fill="#75bd38"/>
        <path id="Trazado_162151" data-name="Trazado 162151" d="M43.864,185.278a5.967,5.967,0,1,1-6.049-5.882A5.965,5.965,0,0,1,43.864,185.278Z" fill="#75bd38"/>
      </g>
      <path id="Trazado_162152" data-name="Trazado 162152" d="M40.788,186.8c-.038-1.591-1.764-1.789-1.764-1.789-.24,0-.458-.011-.657-.03l-.034-2.451a.871.871,0,0,1,.636,1.148l1.48-.021s.574-2.307-2.137-2.6l0-.2a.519.519,0,0,0-1.037.014l0,.174c-2.378.175-2.392,1.731-2.349,2.614.042.861.23,1.944,2.419,2.358l.034,2.449c-.9-.315-.7-1.5-.7-1.5l-1.7.023c-.057.79.015,2.275,2.415,2.457l0,.413a.519.519,0,0,0,1.037-.015l-.006-.4C40.127,189.334,40.835,188.619,40.788,186.8Zm-4.337-3.087a1.162,1.162,0,0,1,.845-1.175l.031,2.206C36.4,184.365,36.451,183.714,36.451,183.714Zm1.965,4.749-.032-2.25A1.14,1.14,0,0,1,38.416,188.463Z" fill="#ffffd0"/>
    </g>
    <path id="Trazado_168242" data-name="Trazado 168242" d="M0,0H39.366V19.35H0Z" transform="translate(-2263.899 -9196.971) rotate(-0.799)" fill="#c5d6d6" style="mix-blend-mode: multiply;isolation: isolate"/>
    <g id="Grupo_106385" data-name="Grupo 106385" transform="translate(-2281.938 -9372.932)">
      <rect id="Rectángulo_33911" data-name="Rectángulo 33911" width="59.057" height="34.734" transform="translate(22.54 144.552)" fill="#ccc"/>
      <rect id="Rectángulo_33912" data-name="Rectángulo 33912" width="52.585" height="28.377" transform="translate(25.775 147.731)" fill="#e4e4e4"/>
      <g id="Grupo_106384" data-name="Grupo 106384">
        <rect id="Rectángulo_33913" data-name="Rectángulo 33913" width="44.094" height="8.819" rx="2.246" transform="translate(30.021 155.707)" fill="#fff"/>
        <g id="Grupo_106383" data-name="Grupo 106383">
          <rect id="Rectángulo_33914" data-name="Rectángulo 33914" width="8.723" height="4.073" transform="translate(31.799 158.08)" fill="#1db2cc"/>
          <rect id="Rectángulo_33915" data-name="Rectángulo 33915" width="8.723" height="4.073" transform="translate(42.268 158.08)" fill="#1db2cc"/>
          <rect id="Rectángulo_33916" data-name="Rectángulo 33916" width="8.723" height="4.073" transform="translate(52.736 158.08)" fill="#1db2cc"/>
          <rect id="Rectángulo_33917" data-name="Rectángulo 33917" width="8.723" height="4.073" transform="translate(63.203 158.08)" fill="#1db2cc"/>
        </g>
      </g>
      <rect id="Rectángulo_33918" data-name="Rectángulo 33918" width="13.503" height="1.796" transform="translate(30.021 167.553)" fill="#fff"/>
      <rect id="Rectángulo_33919" data-name="Rectángulo 33919" width="26.53" height="3.144" transform="translate(30.021 150.174)" fill="#f65138"/>
      <rect id="Rectángulo_33920" data-name="Rectángulo 33920" width="17.074" height="1.796" transform="translate(46.289 167.553)" fill="#fff"/>
      <rect id="Rectángulo_33921" data-name="Rectángulo 33921" width="9.902" height="1.796" transform="translate(65.51 167.553)" fill="#fff"/>
      <rect id="Rectángulo_33922" data-name="Rectángulo 33922" width="10.144" height="1.796" transform="translate(30.021 171.384)" fill="#fff"/>
      <rect id="Rectángulo_33923" data-name="Rectángulo 33923" width="8.978" height="1.796" transform="translate(42.268 171.384)" fill="#fff"/>
      <rect id="Rectángulo_33924" data-name="Rectángulo 33924" width="5.708" height="1.796" transform="translate(53.191 171.384)" fill="#fff"/>
      <rect id="Rectángulo_33925" data-name="Rectángulo 33925" width="14.441" height="1.796" transform="translate(60.971 171.384)" fill="#fff"/>
    </g>
    <path id="Trazado_162153" data-name="Trazado 162153" d="M70.55,153.078s10.166,10.6,11.046,11.606v-9.429L70.55,151.747C72.313,153.866,68.818,150.913,70.55,153.078Z" transform="translate(-2281.938 -9372.932)" fill="#c4c4c4" style="mix-blend-mode: multiply;isolation: isolate"/>
    <g id="Grupo_106388" data-name="Grupo 106388" transform="translate(-2281.938 -9372.932)">
      <path id="Trazado_162154" data-name="Trazado 162154" d="M52.611,131.225v15a1.137,1.137,0,0,0,1.136,1.136H64.66l5.89,5.718,5.89-5.718H87.352a1.137,1.137,0,0,0,1.136-1.136v-15a1.136,1.136,0,0,0-1.136-1.136h-33.6A1.136,1.136,0,0,0,52.611,131.225Z" fill="#474656"/>
      <g id="Grupo_106387" data-name="Grupo 106387">
        <g id="Grupo_106386" data-name="Grupo 106386">
          <path id="Trazado_162155" data-name="Trazado 162155" d="M62.012,140.294h1.35v1.324H58.9v-1.324h1.4v-2.676H58.9v-1a6.049,6.049,0,0,0,2.537-.929h.576Z" fill="#fff"/>
          <path id="Trazado_162156" data-name="Trazado 162156" d="M69.118,138.659c0,1.832-.551,3.062-2.512,3.062s-2.52-1.23-2.52-3.062.559-3.062,2.52-3.062S69.118,136.827,69.118,138.659Zm-3.337-.43v.852c0,1.04.223,1.479.825,1.479s.809-.439.809-1.479v-.852c0-1.041-.207-1.471-.809-1.471S65.781,137.188,65.781,138.229Z" fill="#fff"/>
          <path id="Trazado_162157" data-name="Trazado 162157" d="M74.856,138.659c0,1.832-.551,3.062-2.512,3.062s-2.52-1.23-2.52-3.062.559-3.062,2.52-3.062S74.856,136.827,74.856,138.659Zm-3.337-.43v.852c0,1.04.223,1.479.825,1.479s.809-.439.809-1.479v-.852c0-1.041-.207-1.471-.809-1.471S71.519,137.188,71.519,138.229Z" fill="#fff"/>
          <path id="Trazado_162158" data-name="Trazado 162158" d="M78.762,137.146a1.579,1.579,0,1,1-1.574-1.549A1.388,1.388,0,0,1,78.762,137.146ZM76.672,137v.276c0,.43.146.748.516.748s.507-.318.507-.748V137c0-.43-.129-.748-.507-.748S76.672,136.569,76.672,137Zm1.479,4.619H77.2l3.6-5.909h.937Zm5.186-1.428a1.578,1.578,0,1,1-1.574-1.548A1.388,1.388,0,0,1,83.337,140.19Zm-2.09-.146v.275c0,.43.147.749.516.749s.508-.319.508-.749v-.275c0-.43-.129-.748-.508-.748S81.247,139.614,81.247,140.044Z" fill="#fff"/>
        </g>
      </g>
    </g>
    <path id="Trazado_162159" data-name="Trazado 162159" d="M51.538,163.786s-13.068,4.549-16.445,6.221c-4.29,2.125-6.2,7.267-10.544,9.279H57.874Z" transform="translate(-2281.938 -9372.932)" fill="#d0d0d0" style="mix-blend-mode: multiply;isolation: isolate"/>
    <g id="Grupo_106390" data-name="Grupo 106390" transform="translate(-2281.938 -9372.932)">
      <rect id="Rectángulo_33926" data-name="Rectángulo 33926" width="39.366" height="19.35" transform="matrix(0.929, -0.37, 0.37, 0.929, 12.157, 177.308)" fill="#75bd38"/>
      <path id="Trazado_162160" data-name="Trazado 162160" d="M16.367,182.288l2.688,6.753c1.373-.387,3.66-1.111,5.557,2.307L49.093,181.6c-1.037-4.026,1.441-5.03,2.677-5.611l-2.679-6.73c-1.322.438-3.9,1.422-5.931-2.466l-23.677,9.424C20.865,181.092,17.335,181.962,16.367,182.288Z" fill="#e8f2de"/>
      <path id="Trazado_162161" data-name="Trazado 162161" d="M26.111,182.169a2.376,2.376,0,1,1-3.089-1.33A2.377,2.377,0,0,1,26.111,182.169Z" fill="#75bd38"/>
      <path id="Trazado_162162" data-name="Trazado 162162" d="M45.39,174.495a2.377,2.377,0,1,1-3.085-1.332A2.376,2.376,0,0,1,45.39,174.495Z" fill="#75bd38"/>
      <path id="Trazado_162163" data-name="Trazado 162163" d="M39.607,176.8a5.967,5.967,0,1,1-7.75-3.336A5.967,5.967,0,0,1,39.607,176.8Z" fill="#75bd38"/>
    </g>
    <path id="Trazado_162164" data-name="Trazado 162164" d="M37.471,179.228a1.954,1.954,0,0,0-2.305-1c-.222.089-.429.16-.62.217l-.947-2.261a.872.872,0,0,1,1.018.828l1.366-.572s-.329-2.355-2.951-1.612l-.078-.187a.519.519,0,0,0-.957.4l.068.161c-2.142,1.049-1.574,2.5-1.2,3.3.361.783.938,1.718,3.124,1.285l.946,2.259c-.952.044-1.205-1.13-1.205-1.13l-1.573.658c.242.754.862,2.1,3.157,1.378l.159.381a.519.519,0,0,0,.957-.4l-.154-.367C37.8,181.824,38.193,180.9,37.471,179.228Zm-5.176-1.246a1.163,1.163,0,0,1,.345-1.406l.852,2.036C32.495,178.6,32.295,177.982,32.295,177.982Zm3.6,3.673-.869-2.076A1.14,1.14,0,0,1,35.89,181.655Z" transform="translate(-2281.938 -9372.932)" fill="#e8f2de"/>
  </g>
</svg>
