<svg xmlns="http://www.w3.org/2000/svg" width="525" height="269.973" viewBox="0 0 525 269.973">
  <g id="Grupo_112857" data-name="Grupo 112857" transform="translate(-178.131 -296.578)">
    <rect id="Rectángulo_34062" data-name="Rectángulo 34062" width="34.603" height="267.84" transform="translate(540.18 296.578)" fill="#9bc1f9" opacity="0.6"/>
    <rect id="Rectángulo_34063" data-name="Rectángulo 34063" width="34.603" height="186.142" transform="translate(491.855 378.275)" fill="#9bc1f9" opacity="0.6"/>
    <rect id="Rectángulo_34064" data-name="Rectángulo 34064" width="34.603" height="209.81" transform="translate(589.201 354.608)" fill="#9bc1f9" opacity="0.6"/>
    <rect id="Rectángulo_34065" data-name="Rectángulo 34065" width="34.603" height="218.061" transform="translate(443.53 346.357)" fill="#9bc1f9" opacity="0.6"/>
    <rect id="Rectángulo_34066" data-name="Rectángulo 34066" width="34.603" height="153.407" transform="translate(395.204 411.011)" fill="#9bc1f9" opacity="0.6"/>
    <g id="Grupo_112824" data-name="Grupo 112824" transform="translate(395.204 358.308)">
      <rect id="Rectángulo_34067" data-name="Rectángulo 34067" width="34.603" height="206.11" transform="translate(144.976 0)" fill="#9bc1f9" opacity="0.3" style="mix-blend-mode: multiply;isolation: isolate"/>
      <rect id="Rectángulo_34068" data-name="Rectángulo 34068" width="34.603" height="143.242" transform="translate(96.651 62.868)" fill="#9bc1f9" opacity="0.3" style="mix-blend-mode: multiply;isolation: isolate"/>
      <rect id="Rectángulo_34069" data-name="Rectángulo 34069" width="34.603" height="161.454" transform="translate(193.997 44.656)" fill="#9bc1f9" opacity="0.3" style="mix-blend-mode: multiply;isolation: isolate"/>
      <rect id="Rectángulo_34070" data-name="Rectángulo 34070" width="34.603" height="167.804" transform="translate(48.325 38.306)" fill="#9bc1f9" opacity="0.3" style="mix-blend-mode: multiply;isolation: isolate"/>
      <rect id="Rectángulo_34071" data-name="Rectángulo 34071" width="34.603" height="118.051" transform="translate(0 88.059)" fill="#9bc1f9" opacity="0.3" style="mix-blend-mode: multiply;isolation: isolate"/>
    </g>
    <path id="Trazado_168071" data-name="Trazado 168071" d="M1680.924,308.447,1653.351,329.3l10.518.671-65.821,115.844L1561.6,391.175,1510.05,511.429l-33.161-47.1-41.331,58.424,2.6,10.457,38.713-54.458,35.053,49.787,51.365-119.812,35.36,53.014,72.871-128.252,6.765,7.276Z" transform="translate(-1040.3 -9.819)" fill="#5183bf"/>
    <g id="Grupo_112826" data-name="Grupo 112826" transform="translate(211.322 366.854)">
      <path id="Trazado_168072" data-name="Trazado 168072" d="M522.755,823.681c-39.568-31.509-72.815-72.264-97.988-120.117l-54.423,43.718c29.105,55.329,67.546,102.451,113.3,138.882Z" transform="translate(-370.344 -703.564)" fill="#3c8f7c"/>
      <path id="Trazado_168073" data-name="Trazado 168073" d="M463.233,769.735l-33.806,27.591c2.684,5,1.71,11.752-2.288,15.176,25.586,45.241,57.652,84.549,94.992,116.445a8.66,8.66,0,0,1,12.942-2.116l24.665-38.8c-3.8-3.088-4.349-9.4-1.3-13.978-32.79-28.01-60.949-62.528-83.417-102.256C471.028,775.222,465.7,774.339,463.233,769.735Z" transform="translate(-417.332 -758.309)" fill="#96d9c9"/>
      <g id="Grupo_112825" data-name="Grupo 112825" transform="translate(53.148 70.823)">
        <path id="Trazado_168074" data-name="Trazado 168074" d="M716.428,1157.742c8.448-10.9,8.367-26.988.4-36.61-7.991-9.6-21.643-10.049-31.088-.347-9.43,9.682-10.331,26.894-1.348,37.7S708,1168.627,716.428,1157.742Z" transform="translate(-678.134 -1113.719)" fill="#50bfa5"/>
        <path id="Trazado_168075" data-name="Trazado 168075" d="M761.344,1170.691l-3.185,3.535c2.54,4.656,2,9.466-.736,12.609-2.764,3.165-5.86,3.458-10.578.662-3.427-1.936-5.074-2.507-6.118-1.376-.884.955-1.176,2.689.7,5.056a12.913,12.913,0,0,0,2.934,2.746,3.173,3.173,0,0,1,.839,4.029h0a2.278,2.278,0,0,1-3.38.98,18.037,18.037,0,0,1-3.09-2.868l-2.756,3.04q-1.443-1.809-2.869-3.638l3-3.251c-2.426-4.685-1.944-9.342.872-12.3,3.108-3.264,6.7-2.261,10.821.322,2.857,1.783,4.512,2.064,5.7.747,1.247-1.39.841-3.509-.73-5.512a14.01,14.01,0,0,0-3.564-3.2,3.039,3.039,0,0,1-.727-4.027l.089-.153a2.288,2.288,0,0,1,3.23-.993,19,19,0,0,1,3.909,3.478l2.991-3.261Q760.008,1169.014,761.344,1170.691Z" transform="translate(-723.61 -1157.607)" fill="#3c8f7c"/>
        <path id="Trazado_168076" data-name="Trazado 168076" d="M935.1,1413.658q-13.525-11.581-26.047-24.521l-4.288,5.576q12.687,13.109,26.411,24.865Z" transform="translate(-865.628 -1341.579)" fill="#50bfa5"/>
      </g>
    </g>
    <g id="Grupo_112828" data-name="Grupo 112828" transform="translate(186.218 425.257)">
      <path id="Trazado_168077" data-name="Trazado 168077" d="M394.412,1090.8c-49.7-6.3-98.442-22.932-143.658-49.01l-25.788,60.42c52.28,30.153,108.637,49.379,166.1,56.667Z" transform="translate(-224.966 -1041.788)" fill="#3c8f7c"/>
      <path id="Trazado_168078" data-name="Trazado 168078" d="M288.164,1098.782l-15.807,37.876c4.772,2.7,7.229,8.519,5.438,13.126a441.449,441.449,0,0,0,139.266,47.512c.406-5.079,4.957-8.505,10.182-7.8q1.2-21.224,2.4-42.448c-4.808-.652-8.365-5.4-7.959-10.48a387.649,387.649,0,0,1-122.3-41.722A7.663,7.663,0,0,1,288.164,1098.782Z" transform="translate(-264.174 -1085.686)" fill="#96d9c9"/>
      <g id="Grupo_112827" data-name="Grupo 112827" transform="translate(68.538 43.262)">
        <path id="Trazado_168079" data-name="Trazado 168079" d="M667.378,1322.71c1.99-12.646-5.945-25.373-17.557-29.242a20.861,20.861,0,0,0-27.112,14.419c-3.437,12.141,4.2,26.226,17.267,30.555S665.395,1335.334,667.378,1322.71Z" transform="translate(-621.886 -1292.325)" fill="#50bfa5"/>
        <path id="Trazado_168080" data-name="Trazado 168080" d="M714.083,1320.825q-.515,2.156-1.032,4.311c4.478,2.494,6.364,6.566,5.528,10.355-.848,3.818-3.388,5.514-8.844,5.526-3.917.083-5.624.408-5.975,1.8-.3,1.175.3,2.69,3.076,3.684a13.5,13.5,0,0,0,3.885.793,2.936,2.936,0,0,1,2.7,2.8h0a2.243,2.243,0,0,1-2.45,2.376,18.872,18.872,0,0,1-4.08-.815q-.45,1.858-.9,3.716-2.136-.754-4.265-1.531.505-2,1.01-4c-4.393-2.571-6.253-6.5-5.258-10.171,1.1-4.06,4.7-4.963,9.536-4.859,3.347.064,4.92-.495,5.3-2.1.4-1.693-.987-3.182-3.328-4.03a14.686,14.686,0,0,0-4.654-.856,2.8,2.8,0,0,1-2.6-2.852q0-.081,0-.163a2.25,2.25,0,0,1,2.314-2.315,19.936,19.936,0,0,1,5.089.912q.5-2,1-4Q712.105,1320.126,714.083,1320.825Z" transform="translate(-684.206 -1314.73)" fill="#3c8f7c"/>
      </g>
    </g>
    <path id="Trazado_168081" data-name="Trazado 168081" d="M967.445,730.13a30.708,30.708,0,0,1-3.538-1.412,17.793,17.793,0,0,0-4.034-1.514c-2.232-.344-6.066-.115-8.184,2.175-2.638,2.852-7.325.515-6.381,15.452,1.069,16.907,10.5,15.051,10.73,14.765s8.413-10.816,8.413-10.816,2.862,6.238,2.862,6.009S981.923,734.989,967.445,730.13Z" transform="translate(-634.602 -356.161)" fill="#0e2e35"/>
    <g id="Grupo_112830" data-name="Grupo 112830" transform="translate(215.626 485.426)">
      <path id="Trazado_168082" data-name="Trazado 168082" d="M522.428,1390.24c-39.1,15.449-82.247,22.512-127.159,20.815l8.942,57.333c51.929,1.962,101.813-6.2,147.024-24.067Z" transform="translate(-395.269 -1390.24)" fill="#3c8f7c"/>
      <path id="Trazado_168083" data-name="Trazado 168083" d="M422.492,1452.27l5.867,35.793c4.717.14,9.176,3.639,9.986,7.939,43.2.316,84.814-6.5,123.271-20.179a7.2,7.2,0,0,1,3.84-10.2l-17.73-33.852c-3.8,1.462-8.575-.763-10.609-4.859-33.772,12.016-70.314,18-108.251,17.72C429.676,1448.928,426.833,1452.4,422.492,1452.27Z" transform="translate(-417.791 -1420.579)" fill="#96d9c9"/>
      <g id="Grupo_112829" data-name="Grupo 112829" transform="translate(57.936 26.002)">
        <path id="Trazado_168084" data-name="Trazado 168084" d="M770.943,1556.567c-4.354-10.606-15.977-17.215-26.212-15.461-10.227,1.78-16.211,11.429-13.135,22.255,3.068,10.807,15.1,18.59,26.6,16.6S775.292,1567.154,770.943,1556.567Z" transform="translate(-730.787 -1540.826)" fill="#50bfa5"/>
        <path id="Trazado_168085" data-name="Trazado 168085" d="M797.012,1560.059q.614,1.88,1.227,3.76c4.407.1,7.65,2.481,8.78,5.757,1.135,3.3.063,5.655-3.907,7.9-2.815,1.667-3.91,2.616-3.527,3.838.322,1.033,1.45,1.962,3.931,1.594a10.726,10.726,0,0,0,3.195-.975,2.637,2.637,0,0,1,3.251,1.065h0a1.893,1.893,0,0,1-.695,2.842,15,15,0,0,1-3.347,1.038l1.048,3.245q-1.9.29-3.81.559l-1.1-3.509c-4.381-.194-7.537-2.472-8.5-5.725-1.064-3.592,1.148-5.766,4.717-7.663,2.468-1.319,3.357-2.4,2.9-3.794-.485-1.474-2.18-2.06-4.274-1.759a11.641,11.641,0,0,0-3.784,1.241,2.526,2.526,0,0,1-3.2-1.145l-.073-.128a1.9,1.9,0,0,1,.623-2.739,15.794,15.794,0,0,1,4.126-1.375q-.555-1.753-1.11-3.507Q795.25,1560.327,797.012,1560.059Z" transform="translate(-779.38 -1556.738)" fill="#3c8f7c"/>
        <path id="Trazado_168086" data-name="Trazado 168086" d="M1018.858,1569.26q-13.95,4.945-28.464,8.6l2.24,5.4q14.7-3.708,28.862-8.724Z" transform="translate(-945.566 -1564.35)" fill="#50bfa5"/>
      </g>
    </g>
    <g id="Grupo_112832" data-name="Grupo 112832" transform="translate(278.269 544.207)">
      <path id="Trazado_168087" data-name="Trazado 168087" d="M758.053,1755.244v14c0,2.263,25.249,4.1,56.394,4.1s56.395-1.835,56.395-4.1v-14Z" transform="translate(-758.053 -1750.997)" fill="#e59f39"/>
      <g id="Grupo_112831" data-name="Grupo 112831" transform="translate(0 4.247)">
        <path id="Trazado_168088" data-name="Trazado 168088" d="M798.865,1773.184v-17.94H758.053v14C758.053,1771.114,775.3,1772.692,798.865,1773.184Z" transform="translate(-758.053 -1755.244)" fill="#eab054"/>
        <path id="Trazado_168089" data-name="Trazado 168089" d="M1005.4,1773.22c4.381.079,8.964.122,13.683.122,7.032,0,13.763-.094,19.971-.265v-17.833H1005.4Z" transform="translate(-962.692 -1755.244)" fill="#eab054"/>
        <path id="Trazado_168090" data-name="Trazado 168090" d="M1213.385,1773.011c20.092-.627,34.165-2.078,34.165-3.768v-14h-34.165Z" transform="translate(-1134.76 -1755.244)" fill="#eab054"/>
      </g>
      <ellipse id="Elipse_550" data-name="Elipse 550" cx="56.395" cy="4.098" rx="56.395" ry="4.098" transform="translate(0 0)" fill="#e59f39"/>
      <path id="Trazado_168091" data-name="Trazado 168091" d="M908.583,1740.77c0,1.569-20.792,2.841-46.44,2.841s-46.44-1.272-46.44-2.841,20.792-2.841,46.44-2.841S908.583,1739.2,908.583,1740.77Z" transform="translate(-805.749 -1736.672)" fill="#f7cc7f"/>
    </g>
    <g id="Grupo_112834" data-name="Grupo 112834" transform="translate(268.621 529.392)">
      <path id="Trazado_168092" data-name="Trazado 168092" d="M702.176,1669.449v14c0,2.263,25.249,4.1,56.395,4.1s56.394-1.835,56.394-4.1v-14Z" transform="translate(-702.176 -1665.202)" fill="#e59f39"/>
      <g id="Grupo_112833" data-name="Grupo 112833" transform="translate(0 4.247)">
        <path id="Trazado_168093" data-name="Trazado 168093" d="M742.988,1687.388v-17.939H702.176v14C702.176,1685.319,719.421,1686.9,742.988,1687.388Z" transform="translate(-702.176 -1669.449)" fill="#eab054"/>
        <path id="Trazado_168094" data-name="Trazado 168094" d="M949.526,1687.426c4.381.079,8.964.121,13.683.121,7.032,0,13.763-.094,19.97-.264v-17.834H949.526Z" transform="translate(-906.815 -1669.449)" fill="#eab054"/>
        <path id="Trazado_168095" data-name="Trazado 168095" d="M1157.508,1687.216c20.092-.627,34.165-2.078,34.165-3.767v-14h-34.165Z" transform="translate(-1078.884 -1669.449)" fill="#eab054"/>
      </g>
      <ellipse id="Elipse_551" data-name="Elipse 551" cx="56.395" cy="4.098" rx="56.395" ry="4.098" transform="translate(0)" fill="#e59f39"/>
      <path id="Trazado_168096" data-name="Trazado 168096" d="M852.706,1654.975c0,1.569-20.792,2.841-46.439,2.841s-46.44-1.272-46.44-2.841,20.792-2.841,46.44-2.841S852.706,1653.406,852.706,1654.975Z" transform="translate(-749.872 -1650.877)" fill="#f7cc7f"/>
    </g>
    <g id="Grupo_112836" data-name="Grupo 112836" transform="translate(275.049 514.184)">
      <path id="Trazado_168097" data-name="Trazado 168097" d="M739.405,1581.375v14c0,2.263,25.249,4.1,56.394,4.1s56.395-1.835,56.395-4.1v-14Z" transform="translate(-739.405 -1577.128)" fill="#e59f39"/>
      <g id="Grupo_112835" data-name="Grupo 112835" transform="translate(0 4.247)">
        <path id="Trazado_168098" data-name="Trazado 168098" d="M780.217,1599.314v-17.939H739.405v14C739.405,1597.245,756.65,1598.823,780.217,1599.314Z" transform="translate(-739.405 -1581.375)" fill="#eab054"/>
        <path id="Trazado_168099" data-name="Trazado 168099" d="M986.755,1599.351c4.381.079,8.964.122,13.683.122,7.032,0,13.763-.094,19.97-.265v-17.833H986.755Z" transform="translate(-944.044 -1581.375)" fill="#eab054"/>
        <path id="Trazado_168100" data-name="Trazado 168100" d="M1194.737,1599.142c20.092-.627,34.165-2.078,34.165-3.767v-14h-34.165Z" transform="translate(-1116.113 -1581.375)" fill="#eab054"/>
      </g>
      <ellipse id="Elipse_552" data-name="Elipse 552" cx="56.394" cy="4.098" rx="56.394" ry="4.098" transform="translate(0)" fill="#e59f39"/>
      <path id="Trazado_168101" data-name="Trazado 168101" d="M889.935,1566.9c0,1.569-20.792,2.841-46.44,2.841s-46.44-1.272-46.44-2.841,20.792-2.841,46.44-2.841S889.935,1565.331,889.935,1566.9Z" transform="translate(-787.101 -1562.802)" fill="#f7cc7f"/>
    </g>
    <g id="Grupo_112838" data-name="Grupo 112838" transform="translate(268.621 499.184)">
      <path id="Trazado_168102" data-name="Trazado 168102" d="M702.176,1494.507v14c0,2.263,25.249,4.1,56.395,4.1s56.394-1.835,56.394-4.1v-14Z" transform="translate(-702.176 -1490.26)" fill="#e59f39"/>
      <g id="Grupo_112837" data-name="Grupo 112837" transform="translate(0 4.247)">
        <path id="Trazado_168103" data-name="Trazado 168103" d="M742.988,1512.446v-17.939H702.176v14C702.176,1510.377,719.421,1511.955,742.988,1512.446Z" transform="translate(-702.176 -1494.507)" fill="#eab054"/>
        <path id="Trazado_168104" data-name="Trazado 168104" d="M949.526,1512.483c4.381.079,8.964.122,13.683.122,7.032,0,13.763-.094,19.97-.265v-17.833H949.526Z" transform="translate(-906.815 -1494.507)" fill="#eab054"/>
        <path id="Trazado_168105" data-name="Trazado 168105" d="M1157.508,1512.274c20.092-.627,34.165-2.078,34.165-3.767v-14h-34.165Z" transform="translate(-1078.884 -1494.507)" fill="#eab054"/>
      </g>
      <ellipse id="Elipse_553" data-name="Elipse 553" cx="56.395" cy="4.098" rx="56.395" ry="4.098" transform="translate(0)" fill="#e59f39"/>
      <path id="Trazado_168106" data-name="Trazado 168106" d="M852.706,1480.032c0,1.569-20.792,2.841-46.439,2.841s-46.44-1.272-46.44-2.841,20.792-2.842,46.44-2.842S852.706,1478.463,852.706,1480.032Z" transform="translate(-749.872 -1475.934)" fill="#f7cc7f"/>
    </g>
    <g id="Grupo_112840" data-name="Grupo 112840" transform="translate(555.002 543.173)">
      <path id="Trazado_168107" data-name="Trazado 168107" d="M2469.139,1748.316v13.463c0,2.177-24.281,3.941-54.232,3.941s-54.232-1.764-54.232-3.941v-13.463Z" transform="translate(-2360.675 -1744.232)" fill="#e59f39"/>
      <g id="Grupo_112839" data-name="Grupo 112839" transform="translate(0 4.084)">
        <path id="Trazado_168108" data-name="Trazado 168108" d="M2761.529,1765.568v-17.252h39.247v13.463C2800.776,1763.578,2784.192,1765.1,2761.529,1765.568Z" transform="translate(-2692.311 -1748.316)" fill="#eab054"/>
        <path id="Trazado_168109" data-name="Trazado 168109" d="M2595.89,1765.6c-4.213.076-8.621.117-13.158.117-6.762,0-13.235-.09-19.2-.254v-17.15h32.363Z" transform="translate(-2528.5 -1748.316)" fill="#eab054"/>
        <path id="Trazado_168110" data-name="Trazado 168110" d="M2393.53,1765.4c-19.322-.6-32.854-2-32.854-3.623v-13.463h32.854Z" transform="translate(-2360.675 -1748.316)" fill="#eab054"/>
      </g>
      <ellipse id="Elipse_554" data-name="Elipse 554" cx="54.232" cy="3.941" rx="54.232" ry="3.941" transform="translate(0)" fill="#e59f39"/>
      <path id="Trazado_168111" data-name="Trazado 168111" d="M2416.115,1734.4c0,1.509,19.995,2.733,44.659,2.733s44.659-1.223,44.659-2.733-19.994-2.732-44.659-2.732S2416.115,1732.888,2416.115,1734.4Z" transform="translate(-2406.542 -1730.457)" fill="#f7cc7f"/>
    </g>
    <g id="Grupo_112842" data-name="Grupo 112842" transform="translate(564.281 528.927)">
      <path id="Trazado_168112" data-name="Trazado 168112" d="M2522.874,1665.811v13.463c0,2.177-24.281,3.941-54.233,3.941s-54.232-1.765-54.232-3.941v-13.463Z" transform="translate(-2414.409 -1661.727)" fill="#e59f39"/>
      <g id="Grupo_112841" data-name="Grupo 112841" transform="translate(0 4.084)">
        <path id="Trazado_168113" data-name="Trazado 168113" d="M2815.264,1683.063v-17.252h39.247v13.463C2854.511,1681.073,2837.927,1682.59,2815.264,1683.063Z" transform="translate(-2746.046 -1665.811)" fill="#eab054"/>
        <path id="Trazado_168114" data-name="Trazado 168114" d="M2649.625,1683.1c-4.213.076-8.62.117-13.159.117-6.762,0-13.235-.09-19.2-.254v-17.15h32.363Z" transform="translate(-2582.234 -1665.811)" fill="#eab054"/>
        <path id="Trazado_168115" data-name="Trazado 168115" d="M2447.264,1682.9c-19.322-.6-32.855-2-32.855-3.623v-13.463h32.855Z" transform="translate(-2414.409 -1665.811)" fill="#eab054"/>
      </g>
      <ellipse id="Elipse_555" data-name="Elipse 555" cx="54.232" cy="3.941" rx="54.232" ry="3.941" transform="translate(0)" fill="#e59f39"/>
      <ellipse id="Elipse_556" data-name="Elipse 556" cx="44.659" cy="2.732" rx="44.659" ry="2.732" transform="translate(9.573 1.209)" fill="#f7cc7f"/>
    </g>
    <g id="Grupo_112844" data-name="Grupo 112844" transform="translate(558.098 514.301)">
      <path id="Trazado_168116" data-name="Trazado 168116" d="M2487.072,1581.113v13.463c0,2.177-24.281,3.941-54.232,3.941s-54.232-1.764-54.232-3.941v-13.463Z" transform="translate(-2378.607 -1577.029)" fill="#e59f39"/>
      <g id="Grupo_112843" data-name="Grupo 112843" transform="translate(0 4.084)">
        <path id="Trazado_168117" data-name="Trazado 168117" d="M2779.463,1598.365v-17.252h39.247v13.463C2818.71,1596.375,2802.126,1597.892,2779.463,1598.365Z" transform="translate(-2710.245 -1581.113)" fill="#eab054"/>
        <path id="Trazado_168118" data-name="Trazado 168118" d="M2613.823,1598.4c-4.213.076-8.621.117-13.159.117-6.762,0-13.235-.09-19.2-.254v-17.15h32.364Z" transform="translate(-2546.432 -1581.113)" fill="#eab054"/>
        <path id="Trazado_168119" data-name="Trazado 168119" d="M2411.462,1598.2c-19.322-.6-32.855-2-32.855-3.623v-13.463h32.855Z" transform="translate(-2378.607 -1581.113)" fill="#eab054"/>
      </g>
      <ellipse id="Elipse_557" data-name="Elipse 557" cx="54.232" cy="3.941" rx="54.232" ry="3.941" transform="translate(0 0)" fill="#e59f39"/>
      <ellipse id="Elipse_558" data-name="Elipse 558" cx="44.659" cy="2.732" rx="44.659" ry="2.732" transform="translate(9.573 1.209)" fill="#f7cc7f"/>
    </g>
    <g id="Grupo_112846" data-name="Grupo 112846" transform="translate(564.281 499.877)">
      <path id="Trazado_168120" data-name="Trazado 168120" d="M2522.874,1497.576v13.463c0,2.177-24.281,3.941-54.233,3.941s-54.232-1.765-54.232-3.941v-13.463Z" transform="translate(-2414.409 -1493.492)" fill="#e59f39"/>
      <g id="Grupo_112845" data-name="Grupo 112845" transform="translate(0 4.084)">
        <path id="Trazado_168121" data-name="Trazado 168121" d="M2815.264,1514.828v-17.252h39.247v13.463C2854.511,1512.838,2837.927,1514.355,2815.264,1514.828Z" transform="translate(-2746.046 -1497.576)" fill="#eab054"/>
        <path id="Trazado_168122" data-name="Trazado 168122" d="M2649.625,1514.863c-4.213.076-8.62.117-13.159.117-6.762,0-13.235-.09-19.2-.254v-17.15h32.363Z" transform="translate(-2582.234 -1497.576)" fill="#eab054"/>
        <path id="Trazado_168123" data-name="Trazado 168123" d="M2447.264,1514.662c-19.322-.6-32.855-2-32.855-3.623v-13.463h32.855Z" transform="translate(-2414.409 -1497.576)" fill="#eab054"/>
      </g>
      <ellipse id="Elipse_559" data-name="Elipse 559" cx="54.232" cy="3.941" rx="54.232" ry="3.941" transform="translate(0)" fill="#e59f39"/>
      <ellipse id="Elipse_560" data-name="Elipse 560" cx="44.659" cy="2.732" rx="44.659" ry="2.732" transform="translate(9.573 1.209)" fill="#f7cc7f"/>
    </g>
    <g id="Grupo_112848" data-name="Grupo 112848" transform="translate(603.081 460.815)">
      <path id="Trazado_168124" data-name="Trazado 168124" d="M2734.009,1277.082l-3.258,11.373c-.527,1.839-21.466-2.546-46.769-9.794s-45.388-14.613-44.861-16.452l3.258-11.373Z" transform="translate(-2639.111 -1250.296)" fill="#e59f39"/>
      <g id="Grupo_112847" data-name="Grupo 112847" transform="translate(0 0.54)">
        <path id="Trazado_168125" data-name="Trazado 168125" d="M2972.5,1362.407l4.174-14.574,33.156,9.5-3.258,11.373C3006.136,1370.223,2991.759,1367.492,2972.5,1362.407Z" transform="translate(-2914.931 -1331.084)" fill="#eab054"/>
        <path id="Trazado_168126" data-name="Trazado 168126" d="M2832.678,1322.356c-3.577-.955-7.311-1.987-11.145-3.085-5.712-1.636-11.159-3.279-16.163-4.862l4.15-14.488,27.34,7.831Z" transform="translate(-2776.662 -1291.445)" fill="#eab054"/>
        <path id="Trazado_168127" data-name="Trazado 168127" d="M2666,1273.22c-16.177-5.185-27.272-9.638-26.878-11.011l3.258-11.373,27.755,7.95Z" transform="translate(-2639.111 -1250.836)" fill="#eab054"/>
      </g>
      <path id="Trazado_168128" data-name="Trazado 168128" d="M2658.188,1248.129c-.526,1.839,19.559,9.2,44.862,16.452s46.241,11.632,46.768,9.794-19.558-9.2-44.861-16.452S2658.714,1246.29,2658.188,1248.129Z" transform="translate(-2654.885 -1247.71)" fill="#e59f39"/>
      <path id="Trazado_168129" data-name="Trazado 168129" d="M2705.044,1262.372c-.365,1.275,16.23,7.147,37.066,13.115s38.024,9.773,38.389,8.5-16.23-7.147-37.066-13.115S2705.409,1261.1,2705.044,1262.372Z" transform="translate(-2693.654 -1259.637)" fill="#f7cc7f"/>
    </g>
    <g id="Grupo_112850" data-name="Grupo 112850" transform="translate(577.173 408.812)">
      <path id="Trazado_168130" data-name="Trazado 168130" d="M2580.478,949.5l3.469,11.311c.561,1.829-19.384,9.567-44.547,17.284s-46.017,12.491-46.578,10.662l-3.469-11.311Z" transform="translate(-2489.304 -948.994)" fill="#e59f39"/>
      <g id="Grupo_112849" data-name="Grupo 112849" transform="translate(0.048 0.51)">
        <path id="Trazado_168131" data-name="Trazado 168131" d="M2830.571,974.11l-4.445-14.494L2859.1,949.5l3.469,11.311C2863.031,962.326,2849.489,967.874,2830.571,974.11Z" transform="translate(-2767.974 -949.504)" fill="#eab054"/>
        <path id="Trazado_168132" data-name="Trazado 168132" d="M2691.42,1025.314c-3.52,1.15-7.213,2.319-11.025,3.489-5.682,1.742-11.143,3.334-16.2,4.734l-4.418-14.408,27.19-8.338Z" transform="translate(-2630.348 -1000.207)" fill="#eab054"/>
        <path id="Trazado_168133" data-name="Trazado 168133" d="M2521.357,1076.677c-16.389,4.472-28.117,6.786-28.536,5.421l-3.469-11.311,27.6-8.465Z" transform="translate(-2489.352 -1042.841)" fill="#eab054"/>
      </g>
      <path id="Trazado_168134" data-name="Trazado 168134" d="M2489.083,974.885c.561,1.829,21.415-2.945,46.578-10.662s45.108-15.455,44.547-17.284-21.415,2.945-46.578,10.662S2488.522,973.056,2489.083,974.885Z" transform="translate(-2489.072 -946.549)" fill="#e59f39"/>
      <path id="Trazado_168135" data-name="Trazado 168135" d="M2535.684,985.008c.389,1.268,17.5-2.856,38.224-9.211s37.2-12.534,36.816-13.8-17.5,2.856-38.224,9.211S2535.295,983.74,2535.684,985.008Z" transform="translate(-2527.629 -959.138)" fill="#f7cc7f"/>
    </g>
    <path id="Trazado_168136" data-name="Trazado 168136" d="M1295.066,1756.514s1.34,7.113,1.342,7.128c.075.927.047,3.27.247,4.079.753,3.042,13.546-4.351,10.19-4.945a13.924,13.924,0,0,1-3.01-3.225,28.235,28.235,0,0,1-1.684-4.7Z" transform="translate(-924.068 -1206.467)" fill="#f7a491"/>
    <path id="Trazado_168137" data-name="Trazado 168137" d="M1301.745,1793.256a50.041,50.041,0,0,1-4.983.985c-1.681.168-3.838-2.443-5.043-1.949-1.327.543-2.049,8.827-2.049,8.827s21.1.961,26.09-.417C1317.735,1800.158,1308.311,1795.772,1301.745,1793.256Z" transform="translate(-919.603 -1237.391)" fill="#f47458"/>
    <path id="Trazado_168138" data-name="Trazado 168138" d="M1465.474,1754.635s1.341,7.113,1.342,7.128c.075.927.047,3.27.247,4.079.753,3.042,13.311-3.865,9.954-4.459a18.961,18.961,0,0,1-2.774-3.711,28.255,28.255,0,0,1-1.684-4.7Z" transform="translate(-1065.051 -1204.912)" fill="#f7a491"/>
    <path id="Trazado_168139" data-name="Trazado 168139" d="M1470.274,1793.256a50.041,50.041,0,0,1-4.984.985c-1.681.168-3.838-2.443-5.043-1.949-1.327.543-2.049,8.827-2.049,8.827s21.1.961,26.09-.417C1486.264,1800.158,1476.84,1795.772,1470.274,1793.256Z" transform="translate(-1059.031 -1237.391)" fill="#f47458"/>
    <path id="Trazado_168140" data-name="Trazado 168140" d="M1038.478,1298.9l38.391-8.905s17.216-4.551,21.372.792,21.8,79.083,21.8,79.083-9.1.791-9.7.4l-21.308-37.821a32.99,32.99,0,0,1-3.931-11.633l-1.511-10.83-15.633,4.552s-18.008,3.958-25.33-.594S1038.478,1298.9,1038.478,1298.9Z" transform="translate(-711.223 -820.385)" fill="#0e2e35"/>
    <path id="Trazado_168141" data-name="Trazado 168141" d="M1099.309,966.929c.606.025,2.268.579,4.7,5.156,3.1,5.844,7.638,23.5,7.638,23.5l-13.537,5.024-1.739-3.685-2.864-28.369S1099.141,966.922,1099.309,966.929Z" transform="translate(-757.311 -554.598)" fill="#eab054"/>
    <path id="Trazado_168142" data-name="Trazado 168142" d="M908.455,952.191c3.871.005,13.449,1.131,17.895,2.546,0,0,3.266,27.974-2.94,49.23-1.389,4.758,1.149,19.725,1.149,19.725l-40.112-.527s4.752-36.182,2.962-42.027-1.833-26.213-1.833-26.213.275-.043,9.012-1.548A91.112,91.112,0,0,1,908.455,952.191Z" transform="translate(-584.352 -542.405)" fill="#f7cc7f"/>
    <path id="Trazado_168143" data-name="Trazado 168143" d="M858.487,985.83c3.751-1.4,5.585,32.276,6.091,46.138,6.641.637,18.218,0,21.1-.211,1.356-.1,4.481-1.242,5.83-1.418a13.554,13.554,0,0,1,3.313-.156c.249.043,7.172,2.865,7.765,3.484.734.767,2.72,2.7,2.385,3.54s-3.818-2.332-3.818-2.332l-1.7-.952c2.119,2.063,6.162,4.781,5.579,5.77-.568.965-4.214-1.793-6.813-3.672,2.229,2.007,5,5.6,4.36,6.157-.573.5-3.723-3.654-7.09-4.851-1.248-.444-2.491.785-3.472.933a7.081,7.081,0,0,1-2.542.141l-3.381-.326a17.636,17.636,0,0,0-2.791.406c-1.456.309-3.844.634-5.7,1.085-10.675,2.6-14.236,3.807-17.5,3.8C850.2,1043.364,849.623,989.144,858.487,985.83Z" transform="translate(-557.7 -570.201)" fill="#f7a491"/>
    <path id="Trazado_168144" data-name="Trazado 168144" d="M845.937,1002.371c-.7-14.2-.6-31.7,7.387-34.686,3.151-1.178,8.706,5.906,7.707,34.974C856.767,1003.01,850.508,1003.292,845.937,1002.371Z" transform="translate(-552.268 -555.123)" fill="#eab054"/>
    <path id="Trazado_168145" data-name="Trazado 168145" d="M1019.457,1118.861l-37.792,2.469a2.469,2.469,0,0,0-2.18,1.678l-9.783,29.141-20.835,1.361a1.057,1.057,0,0,0-.986,1.123h0a1.057,1.057,0,0,0,1.124.985l59.3-3.874a4.148,4.148,0,0,0,3.617-2.691l10.012-26.866A2.469,2.469,0,0,0,1019.457,1118.861Z" transform="translate(-636.832 -680.29)" fill="#f47458"/>
    <path id="Trazado_168146" data-name="Trazado 168146" d="M1233.564,1211.3a2.084,2.084,0,1,1-1.927-2.474A2.228,2.228,0,0,1,1233.564,1211.3Z" transform="translate(-869.769 -754.726)" fill="#fff"/>
    <path id="Trazado_168147" data-name="Trazado 168147" d="M882.92,1319.915l41.835-7.223s18.088-2.756,22.243,2.587,16.227,74.6,16.227,74.6-9.1.792-9.7.4c-.46-.307-11.481-23.4-16.431-33.8a39.545,39.545,0,0,1-3.284-10.41l-1.591-9.427-5.265,1.812a64.257,64.257,0,0,1-28.818,3.084c-4.065-.5-7.859-1.373-10.212-2.836C880.606,1334.151,882.92,1319.915,882.92,1319.915Z" transform="translate(-582.802 -840.069)" fill="#184655"/>
    <path id="Trazado_168148" data-name="Trazado 168148" d="M986.211,877.047l.814,6.041s1.824,8.7-.523,10.381-9.98-10.629-9.98-10.629l.806-15.308Z" transform="translate(-660.529 -472.364)" fill="#f7a491"/>
    <path id="Trazado_168149" data-name="Trazado 168149" d="M979.684,872.493a17.365,17.365,0,0,0,9.833,9.675l-.69-5.122-8.882-9.515Z" transform="translate(-663.145 -472.364)" fill="#f47458"/>
    <path id="Trazado_168150" data-name="Trazado 168150" d="M980.733,770.57a8.073,8.073,0,0,1,9.309,8.147,61,61,0,0,1-.681,7.748c-1.081,6.974-5.855,13.114-9.012,12.566s-11.1-6.564-9.7-16.488C971.511,776.416,975.515,771.41,980.733,770.57Z" transform="translate(-655.533 -392.06)" fill="#f7a491"/>
    <path id="Trazado_168151" data-name="Trazado 168151" d="M962.113,831.932a2.351,2.351,0,1,1-1.788-3.171A2.6,2.6,0,0,1,962.113,831.932Z" transform="translate(-644.808 -440.265)" fill="#f7a491"/>
    <path id="Trazado_168152" data-name="Trazado 168152" d="M967.986,769.468s3.817.945,5.233-1.5,6.481-7.726,12.919-5.537-5.666-5.322-6.181-5.322-6.7-.043-6.7-.043-4.764,3.906-4.936,4.335-1.545,5.108-1.545,5.108Z" transform="translate(-652.47 -380.972)" fill="#0e2e35"/>
    <g id="Grupo_112852" data-name="Grupo 112852" transform="translate(502.541 529.469)">
      <rect id="Rectángulo_34072" data-name="Rectángulo 34072" width="95.007" height="34.579" transform="translate(95.007 34.579) rotate(180)" fill="#50bfa5"/>
      <g id="Grupo_112851" data-name="Grupo 112851" transform="translate(0 0)">
        <rect id="Rectángulo_34073" data-name="Rectángulo 34073" width="95.007" height="4.448" transform="translate(95.007 9.488) rotate(180)" fill="#96d9c9"/>
        <rect id="Rectángulo_34074" data-name="Rectángulo 34074" width="95.007" height="4.448" transform="translate(95.007 18.177) rotate(180)" fill="#96d9c9"/>
        <rect id="Rectángulo_34075" data-name="Rectángulo 34075" width="95.007" height="4.448" transform="translate(95.007 26.866) rotate(180)" fill="#96d9c9"/>
        <rect id="Rectángulo_34076" data-name="Rectángulo 34076" width="95.007" height="4.448" transform="translate(95.007 34.579) rotate(180)" fill="#96d9c9"/>
        <rect id="Rectángulo_34077" data-name="Rectángulo 34077" width="19.759" height="34.579" transform="translate(55.127 34.579) rotate(180)" fill="#f7cc7f"/>
      </g>
      <rect id="Rectángulo_34078" data-name="Rectángulo 34078" width="14.348" height="34.579" transform="translate(108.202 34.579) rotate(180)" fill="#3c8f7c"/>
    </g>
    <rect id="Rectángulo_34079" data-name="Rectángulo 34079" width="525" height="2.996" transform="translate(178.131 563.556)" fill="#0e2e35"/>
    <g id="Grupo_112853" data-name="Grupo 112853" transform="translate(374.317 373.654)">
      <path id="Trazado_168153" data-name="Trazado 168153" d="M1354.678,752.712l.673,8.193,4.759-5.36L1375.5,742.94l-13.125,4.135s-6.462,3.139-6.758,3.554A16.954,16.954,0,0,0,1354.678,752.712Z" transform="translate(-1347.703 -742.94)" fill="#50bfa5"/>
      <path id="Trazado_168154" data-name="Trazado 168154" d="M1314.287,749.192l27.8-6.252-20.824,9.772Z" transform="translate(-1314.287 -742.94)" fill="#96d9c9"/>
      <path id="Trazado_168155" data-name="Trazado 168155" d="M1375.538,758.779l-8.568-4.275,18.7-11.564Z" transform="translate(-1357.872 -742.94)" fill="#96d9c9"/>
    </g>
    <g id="Grupo_112856" data-name="Grupo 112856" transform="translate(364.327 386.791)">
      <g id="Grupo_112854" data-name="Grupo 112854" transform="translate(13.508 0)">
        <path id="Trazado_168156" data-name="Trazado 168156" d="M1334.875,820.207a10.139,10.139,0,0,1,2.239-.588l-.063-.6a10.622,10.622,0,0,0-2.387.623Z" transform="translate(-1334.664 -819.023)" fill="#3c8f7c"/>
      </g>
      <g id="Grupo_112855" data-name="Grupo 112855" transform="translate(0 3.048)">
        <path id="Trazado_168157" data-name="Trazado 168157" d="M1256.435,883.237a24.356,24.356,0,0,0,3.014-3.3l.478.361a24.907,24.907,0,0,1-3.088,3.377Zm5.329-7.108c.293-.617.564-1.259.8-1.909.271-.737.511-1.507.713-2.289l.58.15c-.207.8-.453,1.59-.731,2.346-.246.668-.523,1.327-.824,1.96Zm2.419-13.1.6-.013a38.7,38.7,0,0,1-.148,4.559l-.6-.056A38.07,38.07,0,0,0,1264.183,863.031Zm-.852-8.978.593-.085c.251,1.753.43,3.185.564,4.507l-.6.06C1263.759,857.221,1263.58,855.8,1263.331,854.053Zm-.67-4.51a22.041,22.041,0,0,1-.227-4.547l.6.037a21.473,21.473,0,0,0,.221,4.42l.005.035-.593.082Zm.753-9.047a10.877,10.877,0,0,1,2.6-3.82l.411.435a10.281,10.281,0,0,0-2.457,3.611Z" transform="translate(-1256.435 -836.676)" fill="#3c8f7c"/>
      </g>
    </g>
  </g>
</svg>
