<svg xmlns="http://www.w3.org/2000/svg" width="189" height="198" viewBox="0 0 189 198">
  <g id="Grupo_112868" data-name="Grupo 112868" transform="translate(3125 8946)">
    <g id="Trazado_168230" data-name="Trazado 168230" transform="translate(-3125 -8946)" fill="#fff">
      <path d="M 187.5 196.5 L 1.5 196.5 L 1.5 1.5 L 187.5 1.5 L 187.5 196.5 Z" stroke="none"/>
      <path d="M 3 3 L 3 195 L 186 195 L 186 3 L 3 3 M 0 0 L 189 0 L 189 198 L 0 198 L 0 0 Z" stroke="none" fill="#f440a7"/>
    </g>
    <path id="Trazado_168231" data-name="Trazado 168231" d="M34.613,17h-1.5V5.625h1.5ZM38.5,8.547l.047,1.063a3.08,3.08,0,0,1,2.531-1.219q2.68,0,2.7,3.023V17H42.332V11.406a1.946,1.946,0,0,0-.418-1.352,1.675,1.675,0,0,0-1.277-.437,2.086,2.086,0,0,0-1.234.375,2.546,2.546,0,0,0-.828.984V17H37.129V8.547Zm10.25,6.492L50.84,8.547h1.477L49.285,17h-1.1L45.121,8.547H46.6Zm8.469,2.117a3.693,3.693,0,0,1-2.8-1.129,4.19,4.19,0,0,1-1.078-3.02v-.266a5.073,5.073,0,0,1,.48-2.246,3.748,3.748,0,0,1,1.344-1.547,3.378,3.378,0,0,1,1.871-.559A3.166,3.166,0,0,1,59.6,9.477a4.7,4.7,0,0,1,.914,3.109v.6H54.785a3,3,0,0,0,.73,2.02,2.3,2.3,0,0,0,1.777.77,2.517,2.517,0,0,0,1.3-.312,3.259,3.259,0,0,0,.93-.828l.883.688A3.55,3.55,0,0,1,57.215,17.156Zm-.18-7.578a1.928,1.928,0,0,0-1.469.637A3.1,3.1,0,0,0,54.832,12h4.234v-.109a2.753,2.753,0,0,0-.594-1.707A1.815,1.815,0,0,0,57.035,9.578Zm9.234.266a4.331,4.331,0,0,0-.711-.055A1.9,1.9,0,0,0,63.629,11v6H62.184V8.547H63.59l.023.977a2.251,2.251,0,0,1,2.016-1.133,1.477,1.477,0,0,1,.641.109Zm6.25,4.914a1.064,1.064,0,0,0-.441-.91,4.249,4.249,0,0,0-1.539-.559,7.277,7.277,0,0,1-1.742-.562,2.479,2.479,0,0,1-.953-.781,1.869,1.869,0,0,1-.309-1.078,2.193,2.193,0,0,1,.879-1.758,3.432,3.432,0,0,1,2.246-.719,3.532,3.532,0,0,1,2.332.742,2.357,2.357,0,0,1,.895,1.9H72.434a1.3,1.3,0,0,0-.5-1.023,1.888,1.888,0,0,0-1.27-.43,1.976,1.976,0,0,0-1.234.344,1.082,1.082,0,0,0-.445.9.877.877,0,0,0,.414.789,5.1,5.1,0,0,0,1.5.508,7.8,7.8,0,0,1,1.754.578,2.558,2.558,0,0,1,1,.809,1.988,1.988,0,0,1,.324,1.152,2.163,2.163,0,0,1-.906,1.816,3.8,3.8,0,0,1-2.352.684,4.257,4.257,0,0,1-1.8-.359,2.922,2.922,0,0,1-1.223-1,2.42,2.42,0,0,1-.441-1.395h1.445a1.5,1.5,0,0,0,.582,1.152,2.258,2.258,0,0,0,1.434.426,2.331,2.331,0,0,0,1.316-.332A1.02,1.02,0,0,0,72.52,14.758ZM77.418,17H75.973V8.547h1.445ZM75.855,6.3a.863.863,0,0,1,.215-.594.807.807,0,0,1,.637-.242.819.819,0,0,1,.641.242.854.854,0,0,1,.219.594.826.826,0,0,1-.219.586.834.834,0,0,1-.641.234.821.821,0,0,1-.637-.234A.834.834,0,0,1,75.855,6.3ZM79.348,12.7a4.993,4.993,0,0,1,.488-2.234A3.643,3.643,0,0,1,81.2,8.93a3.7,3.7,0,0,1,1.988-.539,3.565,3.565,0,0,1,2.793,1.2,4.6,4.6,0,0,1,1.066,3.18v.1a5.036,5.036,0,0,1-.473,2.215,3.589,3.589,0,0,1-1.352,1.527,3.743,3.743,0,0,1-2.02.547,3.556,3.556,0,0,1-2.785-1.2A4.575,4.575,0,0,1,79.348,12.8Zm1.453.172a3.616,3.616,0,0,0,.652,2.258,2.211,2.211,0,0,0,3.5-.012A3.955,3.955,0,0,0,85.6,12.7a3.61,3.61,0,0,0-.66-2.254,2.1,2.1,0,0,0-1.754-.863,2.075,2.075,0,0,0-1.727.852A3.925,3.925,0,0,0,80.8,12.867Zm9.422-4.32.047,1.063A3.08,3.08,0,0,1,92.8,8.391q2.68,0,2.7,3.023V17H94.059V11.406a1.946,1.946,0,0,0-.418-1.352,1.675,1.675,0,0,0-1.277-.437,2.086,2.086,0,0,0-1.234.375,2.546,2.546,0,0,0-.828.984V17H88.855V8.547Zm10.969,8.609a3.693,3.693,0,0,1-2.8-1.129,4.19,4.19,0,0,1-1.078-3.02v-.266A5.073,5.073,0,0,1,97.8,10.5a3.748,3.748,0,0,1,1.344-1.547,3.378,3.378,0,0,1,1.871-.559,3.166,3.166,0,0,1,2.563,1.086,4.7,4.7,0,0,1,.914,3.109v.6H98.762a3,3,0,0,0,.73,2.02,2.3,2.3,0,0,0,1.777.77,2.517,2.517,0,0,0,1.3-.312,3.259,3.259,0,0,0,.93-.828l.883.688A3.55,3.55,0,0,1,101.191,17.156Zm-.18-7.578a1.928,1.928,0,0,0-1.469.637A3.1,3.1,0,0,0,98.809,12h4.234v-.109a2.753,2.753,0,0,0-.594-1.707A1.815,1.815,0,0,0,101.012,9.578Zm10.07,5.18a1.064,1.064,0,0,0-.441-.91,4.249,4.249,0,0,0-1.539-.559,7.277,7.277,0,0,1-1.742-.562,2.479,2.479,0,0,1-.953-.781,1.869,1.869,0,0,1-.309-1.078,2.193,2.193,0,0,1,.879-1.758,3.432,3.432,0,0,1,2.246-.719,3.532,3.532,0,0,1,2.332.742,2.357,2.357,0,0,1,.895,1.9H111a1.3,1.3,0,0,0-.5-1.023,1.888,1.888,0,0,0-1.27-.43,1.976,1.976,0,0,0-1.234.344,1.082,1.082,0,0,0-.445.9.877.877,0,0,0,.414.789,5.1,5.1,0,0,0,1.5.508,7.8,7.8,0,0,1,1.754.578,2.558,2.558,0,0,1,1,.809,1.988,1.988,0,0,1,.324,1.152,2.163,2.163,0,0,1-.906,1.816,3.8,3.8,0,0,1-2.352.684,4.257,4.257,0,0,1-1.8-.359,2.922,2.922,0,0,1-1.223-1,2.42,2.42,0,0,1-.441-1.395h1.445a1.5,1.5,0,0,0,.582,1.152,2.258,2.258,0,0,0,1.434.426,2.331,2.331,0,0,0,1.316-.332A1.02,1.02,0,0,0,111.082,14.758ZM8.613,41.156a3.693,3.693,0,0,1-2.8-1.129,4.19,4.19,0,0,1-1.078-3.02v-.266a5.073,5.073,0,0,1,.48-2.246,3.748,3.748,0,0,1,1.344-1.547,3.378,3.378,0,0,1,1.871-.559A3.166,3.166,0,0,1,11,33.477a4.7,4.7,0,0,1,.914,3.109v.6H6.184a3,3,0,0,0,.73,2.02,2.3,2.3,0,0,0,1.777.77,2.517,2.517,0,0,0,1.3-.312,3.258,3.258,0,0,0,.93-.828l.883.688A3.55,3.55,0,0,1,8.613,41.156Zm-.18-7.578a1.928,1.928,0,0,0-1.469.637A3.1,3.1,0,0,0,6.23,36h4.234v-.109a2.753,2.753,0,0,0-.594-1.707A1.815,1.815,0,0,0,8.434,33.578Zm7.984,2.055,1.875-3.086H19.98l-2.766,4.18L20.066,41H18.395l-1.953-3.164L14.488,41h-1.68l2.852-4.273-2.766-4.18h1.672ZM23.473,30.5v2.047h1.578v1.117H23.473v5.249a1.173,1.173,0,0,0,.211.763.888.888,0,0,0,.719.254,3.5,3.5,0,0,0,.688-.094V41a4.215,4.215,0,0,1-1.109.155,1.8,1.8,0,0,1-1.461-.586,2.517,2.517,0,0,1-.492-1.664V33.664H20.488V32.547h1.539V30.5Zm7.352,3.344a4.331,4.331,0,0,0-.711-.055A1.9,1.9,0,0,0,28.184,35v6H26.738V32.547h1.406l.023.977a2.251,2.251,0,0,1,2.016-1.133,1.477,1.477,0,0,1,.641.109ZM37.059,41a3.036,3.036,0,0,1-.2-.891,3.225,3.225,0,0,1-2.406,1.047,2.984,2.984,0,0,1-2.051-.707,2.287,2.287,0,0,1-.8-1.793,2.39,2.39,0,0,1,1-2.051,4.733,4.733,0,0,1,2.824-.73h1.406v-.664A1.623,1.623,0,0,0,36.379,34a1.821,1.821,0,0,0-1.336-.449,2.107,2.107,0,0,0-1.3.391,1.151,1.151,0,0,0-.523.945H31.77a2,2,0,0,1,.449-1.223,3.066,3.066,0,0,1,1.219-.934,4.1,4.1,0,0,1,1.691-.344,3.342,3.342,0,0,1,2.289.73,2.635,2.635,0,0,1,.859,2.012v3.891a4.757,4.757,0,0,0,.3,1.852V41Zm-2.4-1.1a2.54,2.54,0,0,0,1.289-.352,2.127,2.127,0,0,0,.883-.914V36.9H35.7q-2.656,0-2.656,1.555a1.316,1.316,0,0,0,.453,1.063A1.742,1.742,0,0,0,34.66,39.9Zm7.25-7.352.047,1.063a3.08,3.08,0,0,1,2.531-1.219q2.68,0,2.7,3.023V41H45.746V35.406a1.946,1.946,0,0,0-.418-1.352,1.675,1.675,0,0,0-1.277-.437,2.086,2.086,0,0,0-1.234.375,2.546,2.546,0,0,0-.828.984V41H40.543V32.547Zm8.953,0v9.43q0,2.438-2.211,2.438a2.7,2.7,0,0,1-.883-.14V43.125a2.794,2.794,0,0,0,.656.063.982.982,0,0,0,.738-.262,1.3,1.3,0,0,0,.254-.911V32.547ZM49.27,30.3a.867.867,0,0,1,.215-.59.79.79,0,0,1,.629-.246.819.819,0,0,1,.641.242.854.854,0,0,1,.219.594.826.826,0,0,1-.219.586.834.834,0,0,1-.641.234.808.808,0,0,1-.633-.234A.843.843,0,0,1,49.27,30.3ZM56.7,41.156a3.693,3.693,0,0,1-2.8-1.129,4.19,4.19,0,0,1-1.078-3.02v-.266A5.073,5.073,0,0,1,53.3,34.5a3.748,3.748,0,0,1,1.344-1.547,3.378,3.378,0,0,1,1.871-.559,3.166,3.166,0,0,1,2.563,1.086A4.7,4.7,0,0,1,60,36.586v.6H54.27a3,3,0,0,0,.73,2.02,2.3,2.3,0,0,0,1.777.77,2.517,2.517,0,0,0,1.3-.312,3.258,3.258,0,0,0,.93-.828l.883.688A3.55,3.55,0,0,1,56.7,41.156Zm-.18-7.578a1.928,1.928,0,0,0-1.469.637A3.1,3.1,0,0,0,54.316,36h4.234v-.109a2.753,2.753,0,0,0-.594-1.707A1.815,1.815,0,0,0,56.52,33.578Zm9.234.266a4.331,4.331,0,0,0-.711-.055A1.9,1.9,0,0,0,63.113,35v6H61.668V32.547h1.406l.023.977a2.251,2.251,0,0,1,2.016-1.133,1.477,1.477,0,0,1,.641.109ZM71.988,41a3.036,3.036,0,0,1-.2-.891,3.225,3.225,0,0,1-2.406,1.047,2.984,2.984,0,0,1-2.051-.707,2.288,2.288,0,0,1-.8-1.793,2.39,2.39,0,0,1,1-2.051,4.733,4.733,0,0,1,2.824-.73h1.406v-.664A1.623,1.623,0,0,0,71.309,34a1.821,1.821,0,0,0-1.336-.449,2.107,2.107,0,0,0-1.3.391,1.151,1.151,0,0,0-.523.945H66.7a2,2,0,0,1,.449-1.223,3.066,3.066,0,0,1,1.219-.934,4.1,4.1,0,0,1,1.691-.344,3.342,3.342,0,0,1,2.289.73,2.635,2.635,0,0,1,.859,2.012v3.891a4.757,4.757,0,0,0,.3,1.852V41Zm-2.4-1.1a2.54,2.54,0,0,0,1.289-.352,2.127,2.127,0,0,0,.883-.914V36.9H70.629q-2.656,0-2.656,1.555a1.316,1.316,0,0,0,.453,1.063A1.742,1.742,0,0,0,69.59,39.9Zm10.8-1.141a1.064,1.064,0,0,0-.441-.91,4.249,4.249,0,0,0-1.539-.559,7.277,7.277,0,0,1-1.742-.562,2.479,2.479,0,0,1-.953-.781,1.869,1.869,0,0,1-.309-1.078,2.193,2.193,0,0,1,.879-1.758,3.432,3.432,0,0,1,2.246-.719,3.532,3.532,0,0,1,2.332.742,2.357,2.357,0,0,1,.895,1.9H80.309a1.3,1.3,0,0,0-.5-1.023,1.888,1.888,0,0,0-1.27-.43,1.976,1.976,0,0,0-1.234.344,1.082,1.082,0,0,0-.445.9.877.877,0,0,0,.414.789,5.1,5.1,0,0,0,1.5.508,7.8,7.8,0,0,1,1.754.578,2.558,2.558,0,0,1,1,.809,1.988,1.988,0,0,1,.324,1.152,2.163,2.163,0,0,1-.906,1.816,3.8,3.8,0,0,1-2.352.684,4.257,4.257,0,0,1-1.8-.359,2.922,2.922,0,0,1-1.223-1,2.42,2.42,0,0,1-.441-1.395h1.445a1.5,1.5,0,0,0,.582,1.152,2.258,2.258,0,0,0,1.434.426,2.331,2.331,0,0,0,1.316-.332A1.02,1.02,0,0,0,80.395,38.758Zm14.43-1.891a5.062,5.062,0,0,1-.883,3.109,2.829,2.829,0,0,1-2.391,1.18,3.1,3.1,0,0,1-2.422-.977v4.07H87.684v-11.7H89l.07.938a2.977,2.977,0,0,1,2.453-1.094,2.882,2.882,0,0,1,2.41,1.148,5.117,5.117,0,0,1,.887,3.2ZM93.379,36.7a3.735,3.735,0,0,0-.609-2.258,1.963,1.963,0,0,0-1.672-.828,2.125,2.125,0,0,0-1.969,1.164V38.82a2.129,2.129,0,0,0,1.984,1.156,1.954,1.954,0,0,0,1.652-.824A4.077,4.077,0,0,0,93.379,36.7Zm8.5,4.3a3.036,3.036,0,0,1-.2-.891,3.225,3.225,0,0,1-2.406,1.047,2.984,2.984,0,0,1-2.051-.707,2.288,2.288,0,0,1-.8-1.793,2.39,2.39,0,0,1,1-2.051,4.733,4.733,0,0,1,2.824-.73h1.406v-.664A1.623,1.623,0,0,0,101.2,34a1.821,1.821,0,0,0-1.336-.449,2.107,2.107,0,0,0-1.3.391,1.151,1.151,0,0,0-.523.945H96.59a2,2,0,0,1,.449-1.223,3.066,3.066,0,0,1,1.219-.934,4.1,4.1,0,0,1,1.691-.344,3.342,3.342,0,0,1,2.289.73,2.635,2.635,0,0,1,.859,2.012v3.891a4.757,4.757,0,0,0,.3,1.852V41Zm-2.4-1.1a2.54,2.54,0,0,0,1.289-.352,2.127,2.127,0,0,0,.883-.914V36.9H100.52q-2.656,0-2.656,1.555a1.316,1.316,0,0,0,.453,1.063A1.742,1.742,0,0,0,99.48,39.9Zm10.8-1.141a1.064,1.064,0,0,0-.441-.91,4.249,4.249,0,0,0-1.539-.559,7.277,7.277,0,0,1-1.742-.562,2.479,2.479,0,0,1-.953-.781,1.869,1.869,0,0,1-.309-1.078,2.193,2.193,0,0,1,.879-1.758,3.432,3.432,0,0,1,2.246-.719,3.532,3.532,0,0,1,2.332.742,2.357,2.357,0,0,1,.895,1.9H110.2a1.3,1.3,0,0,0-.5-1.023,1.888,1.888,0,0,0-1.27-.43,1.976,1.976,0,0,0-1.234.344,1.082,1.082,0,0,0-.445.9.877.877,0,0,0,.414.789,5.1,5.1,0,0,0,1.5.508,7.8,7.8,0,0,1,1.754.578,2.558,2.558,0,0,1,1,.809,1.988,1.988,0,0,1,.324,1.152,2.163,2.163,0,0,1-.906,1.816,3.8,3.8,0,0,1-2.352.684,4.257,4.257,0,0,1-1.8-.359,2.922,2.922,0,0,1-1.223-1,2.42,2.42,0,0,1-.441-1.395h1.445a1.5,1.5,0,0,0,.582,1.152,2.258,2.258,0,0,0,1.434.426,2.331,2.331,0,0,0,1.316-.332A1.02,1.02,0,0,0,110.285,38.758Zm4.9,2.242h-1.445V32.547h1.445Zm-1.562-10.7a.863.863,0,0,1,.215-.594.807.807,0,0,1,.637-.242.819.819,0,0,1,.641.242.854.854,0,0,1,.219.594.826.826,0,0,1-.219.586.834.834,0,0,1-.641.234.821.821,0,0,1-.637-.234A.834.834,0,0,1,113.621,30.3Zm6.664,8.734,2.094-6.492h1.477L120.824,41h-1.1l-3.062-8.453h1.477ZM130.348,41a3.036,3.036,0,0,1-.2-.891,3.225,3.225,0,0,1-2.406,1.047,2.984,2.984,0,0,1-2.051-.707,2.288,2.288,0,0,1-.8-1.793,2.39,2.39,0,0,1,1-2.051,4.733,4.733,0,0,1,2.824-.73h1.406v-.664A1.623,1.623,0,0,0,129.668,34a1.821,1.821,0,0,0-1.336-.449,2.107,2.107,0,0,0-1.3.391,1.151,1.151,0,0,0-.523.945h-1.453a2,2,0,0,1,.449-1.223,3.066,3.066,0,0,1,1.219-.934,4.1,4.1,0,0,1,1.691-.344,3.342,3.342,0,0,1,2.289.73,2.635,2.635,0,0,1,.859,2.012v3.891a4.757,4.757,0,0,0,.3,1.852V41Zm-2.4-1.1a2.54,2.54,0,0,0,1.289-.352,2.127,2.127,0,0,0,.883-.914V36.9h-1.133q-2.656,0-2.656,1.555a1.316,1.316,0,0,0,.453,1.063A1.742,1.742,0,0,0,127.949,39.9Zm10.8-1.141a1.064,1.064,0,0,0-.441-.91,4.249,4.249,0,0,0-1.539-.559,7.277,7.277,0,0,1-1.742-.562,2.479,2.479,0,0,1-.953-.781,1.869,1.869,0,0,1-.309-1.078,2.193,2.193,0,0,1,.879-1.758,3.432,3.432,0,0,1,2.246-.719,3.532,3.532,0,0,1,2.332.742,2.357,2.357,0,0,1,.895,1.9h-1.453a1.3,1.3,0,0,0-.5-1.023,1.888,1.888,0,0,0-1.27-.43,1.976,1.976,0,0,0-1.234.344,1.082,1.082,0,0,0-.445.9.877.877,0,0,0,.414.789,5.1,5.1,0,0,0,1.5.508,7.8,7.8,0,0,1,1.754.578,2.558,2.558,0,0,1,1,.809,1.988,1.988,0,0,1,.324,1.152,2.163,2.163,0,0,1-.906,1.816,3.8,3.8,0,0,1-2.352.684,4.257,4.257,0,0,1-1.8-.359,2.922,2.922,0,0,1-1.223-1,2.42,2.42,0,0,1-.441-1.395h1.445a1.5,1.5,0,0,0,.582,1.152,2.258,2.258,0,0,0,1.434.426,2.331,2.331,0,0,0,1.316-.332A1.02,1.02,0,0,0,138.754,38.758ZM41.281,60.7a4.993,4.993,0,0,1,.488-2.234,3.643,3.643,0,0,1,1.359-1.531,3.7,3.7,0,0,1,1.988-.539,3.565,3.565,0,0,1,2.793,1.2,4.6,4.6,0,0,1,1.066,3.18v.1a5.036,5.036,0,0,1-.473,2.215,3.589,3.589,0,0,1-1.352,1.527,3.743,3.743,0,0,1-2.02.547,3.556,3.556,0,0,1-2.785-1.2A4.575,4.575,0,0,1,41.281,60.8Zm1.453.172a3.616,3.616,0,0,0,.652,2.258,2.211,2.211,0,0,0,3.5-.012,3.955,3.955,0,0,0,.648-2.418,3.61,3.61,0,0,0-.66-2.254,2.1,2.1,0,0,0-1.754-.863,2.075,2.075,0,0,0-1.727.852A3.925,3.925,0,0,0,42.734,60.867ZM59.969,65a3.036,3.036,0,0,1-.2-.891,3.225,3.225,0,0,1-2.406,1.047,2.984,2.984,0,0,1-2.051-.707,2.287,2.287,0,0,1-.8-1.793,2.39,2.39,0,0,1,1-2.051,4.733,4.733,0,0,1,2.824-.73h1.406v-.664A1.623,1.623,0,0,0,59.289,58a1.821,1.821,0,0,0-1.336-.449,2.107,2.107,0,0,0-1.3.391,1.151,1.151,0,0,0-.523.945H54.68a2,2,0,0,1,.449-1.223,3.066,3.066,0,0,1,1.219-.934,4.1,4.1,0,0,1,1.691-.344,3.342,3.342,0,0,1,2.289.73,2.635,2.635,0,0,1,.859,2.012v3.891a4.757,4.757,0,0,0,.3,1.852V65Zm-2.4-1.1a2.54,2.54,0,0,0,1.289-.352,2.127,2.127,0,0,0,.883-.914V60.9H58.609q-2.656,0-2.656,1.555a1.316,1.316,0,0,0,.453,1.063A1.742,1.742,0,0,0,57.57,63.9Zm9.273.078a2.082,2.082,0,0,0,1.352-.469,1.649,1.649,0,0,0,.641-1.172H70.2a2.621,2.621,0,0,1-.5,1.383,3.293,3.293,0,0,1-1.23,1.047,3.55,3.55,0,0,1-1.629.391A3.482,3.482,0,0,1,64.1,64a4.59,4.59,0,0,1-1.02-3.152v-.242a5.089,5.089,0,0,1,.453-2.2,3.451,3.451,0,0,1,1.3-1.492,3.7,3.7,0,0,1,2-.531,3.39,3.39,0,0,1,2.363.852,3.043,3.043,0,0,1,1,2.211H68.836a1.992,1.992,0,0,0-.621-1.348,1.932,1.932,0,0,0-1.379-.527,2.023,2.023,0,0,0-1.707.793,3.724,3.724,0,0,0-.605,2.293v.273a3.65,3.65,0,0,0,.6,2.25A2.033,2.033,0,0,0,66.844,63.977ZM73.789,54.5v2.047h1.578v1.117H73.789v5.249a1.173,1.173,0,0,0,.211.763.888.888,0,0,0,.719.254,3.5,3.5,0,0,0,.688-.094V65a4.215,4.215,0,0,1-1.109.155,1.8,1.8,0,0,1-1.461-.586,2.517,2.517,0,0,1-.492-1.664V57.664H70.8V56.547h1.539V54.5ZM78.625,65H77.18V56.547h1.445ZM77.063,54.3a.863.863,0,0,1,.215-.594.807.807,0,0,1,.637-.242.819.819,0,0,1,.641.242.854.854,0,0,1,.219.594.826.826,0,0,1-.219.586.834.834,0,0,1-.641.234.821.821,0,0,1-.637-.234A.834.834,0,0,1,77.063,54.3Zm6.664,8.734,2.094-6.492H87.3L84.266,65h-1.1L80.1,56.547h1.477ZM93.789,65a3.036,3.036,0,0,1-.2-.891,3.225,3.225,0,0,1-2.406,1.047,2.984,2.984,0,0,1-2.051-.707,2.288,2.288,0,0,1-.8-1.793,2.39,2.39,0,0,1,1-2.051,4.733,4.733,0,0,1,2.824-.73h1.406v-.664A1.623,1.623,0,0,0,93.109,58a1.821,1.821,0,0,0-1.336-.449,2.107,2.107,0,0,0-1.3.391,1.151,1.151,0,0,0-.523.945H88.5a2,2,0,0,1,.449-1.223,3.066,3.066,0,0,1,1.219-.934,4.1,4.1,0,0,1,1.691-.344,3.342,3.342,0,0,1,2.289.73,2.635,2.635,0,0,1,.859,2.012v3.891a4.757,4.757,0,0,0,.3,1.852V65Zm-2.4-1.1a2.54,2.54,0,0,0,1.289-.352,2.127,2.127,0,0,0,.883-.914V60.9H92.43q-2.656,0-2.656,1.555a1.316,1.316,0,0,0,.453,1.063A1.742,1.742,0,0,0,91.391,63.9Zm10.8-1.141a1.064,1.064,0,0,0-.441-.91,4.249,4.249,0,0,0-1.539-.559,7.277,7.277,0,0,1-1.742-.562,2.479,2.479,0,0,1-.953-.781,1.869,1.869,0,0,1-.309-1.078,2.193,2.193,0,0,1,.879-1.758,3.432,3.432,0,0,1,2.246-.719,3.532,3.532,0,0,1,2.332.742,2.357,2.357,0,0,1,.895,1.9h-1.453a1.3,1.3,0,0,0-.5-1.023,1.888,1.888,0,0,0-1.27-.43,1.976,1.976,0,0,0-1.234.344,1.082,1.082,0,0,0-.445.9.877.877,0,0,0,.414.789,5.1,5.1,0,0,0,1.5.508,7.8,7.8,0,0,1,1.754.578,2.558,2.558,0,0,1,1,.809,1.988,1.988,0,0,1,.324,1.152,2.163,2.163,0,0,1-.906,1.816,3.8,3.8,0,0,1-2.352.684,4.257,4.257,0,0,1-1.8-.359,2.922,2.922,0,0,1-1.223-1,2.42,2.42,0,0,1-.441-1.395h1.445a1.5,1.5,0,0,0,.582,1.152,2.258,2.258,0,0,0,1.434.426,2.331,2.331,0,0,0,1.316-.332A1.02,1.02,0,0,0,102.2,62.758Z" transform="translate(-3103 -8841)" fill="#12263f"/>
    <path id="Trazado_162165" data-name="Trazado 162165" d="M404.712,202.393h-22.4l2.184-15.056h18.028Z" transform="translate(-3424.014 -9052.706)" fill="#bbb"/>
    <path id="Trazado_162166" data-name="Trazado 162166" d="M403.62,194.865l-20.527,2.178,1.408-9.706h18.028Z" transform="translate(-3424.014 -9052.706)" fill="#bbb" opacity="0.5" style="mix-blend-mode: multiply;isolation: isolate"/>
    <path id="Trazado_168232" data-name="Trazado 168232" d="M1.794,0H74.839a1.794,1.794,0,0,1,1.794,1.794V55.547a1.794,1.794,0,0,1-1.794,1.794H1.794A1.794,1.794,0,0,1,0,55.547V1.794A1.794,1.794,0,0,1,1.794,0Z" transform="translate(-3068.816 -8920.03)" fill="#e5e5e5"/>
    <path id="Trazado_162167" data-name="Trazado 162167" d="M410.443,205.706l-33.866-.034c-.785,0-1.089-.433-.7-.942l1.765-2.287a2.412,2.412,0,0,1,1.729-.7l28.29.029a2.4,2.4,0,0,1,1.73.711l1.746,2.29C411.531,205.279,411.225,205.707,410.443,205.706Z" transform="translate(-3424.014 -9052.706)" fill="#474656"/>
    <path id="Trazado_168233" data-name="Trazado 168233" d="M0,0H67.317V41.971H0Z" transform="translate(-3064.403 -8916.072)" fill="#474656"/>
    <path id="Trazado_168234" data-name="Trazado 168234" d="M0,0H64.34V38.528H0Z" transform="translate(-3062.914 -8914.352)" fill="#ededed"/>
    <path id="Trazado_168235" data-name="Trazado 168235" d="M1.4,0A1.4,1.4,0,1,1,0,1.4,1.4,1.4,0,0,1,1.4,0Z" transform="translate(-3031.896 -8869.11)" fill="#bbb"/>
    <g id="Grupo_106393" data-name="Grupo 106393" transform="translate(-3424.014 -9052.706)">
      <path id="Trazado_162168" data-name="Trazado 162168" d="M368.932,176.862H383.2c.169-.716.236-1.8-.41-2.31-.575-.453-1.584-.636-1.942-1.323-.219-.42.137-.758.337-1.1a1.813,1.813,0,0,0,.089-1.779c-.416-.852-1.482-1.455-1.694-2.4-.238-1.065,1.073-2.018,1.717-2.643.486-.472.966-.952,1.42-1.455a4.438,4.438,0,0,0,.88-1.183c.114-.279-.066-.363-.325-.316a4.643,4.643,0,0,1-1.744.209,2.4,2.4,0,0,1-1.341-.719,11.352,11.352,0,0,0-.255-1.62.959.959,0,0,0-.292-.567c-.329-.225-.566-.229-.792-.628a4.6,4.6,0,0,0-.6-.994,3.638,3.638,0,0,0-.852-.614c-.543-.31-.984-.637-.886-1.33.168-1.192,1.035-2.193,1.3-3.372.078-.34.124-1.306-.44-.744a3.507,3.507,0,0,0-.652,1.045c-.1.211-.235.564-.467.669-.379.172-.1-1-.074-1.1.653-2.14,2.512-3.311,4.113-4.7.138-.119,1.129-.854.98-1.1a1.812,1.812,0,0,1-1.105-.354A25.827,25.827,0,0,0,368.1,173.858,24.529,24.529,0,0,0,368.932,176.862Z" fill="#8cd8e5"/>
      <path id="Trazado_162169" data-name="Trazado 162169" d="M380.827,156.413a1.374,1.374,0,0,1,.843.187c-.426.4-.889.747-1.321,1.134-.2.179-.332.359,0,.452s.85.038,1.093.316c.209.24-.024.677-.11.921-.2.571-.578,1.889,0,2.379.424.36,1.469-.107,1.918-.206,2.215-.487,4.647-.4,5.963,1.721a3.818,3.818,0,0,0,.634.979,4.09,4.09,0,0,0,1.124.6,1.573,1.573,0,0,1,.784.516c.246.415-.18.938-.363,1.283-.3.565-.933,1.511-.811,2.205a.2.2,0,0,0,.291.167,9.472,9.472,0,0,1,5,1.544,2,2,0,0,1,1.013,1.6c-.048.96-1.049,1.553-1.687,2.118a6.743,6.743,0,0,0-1.934,2.532h18.129c.188-.273.493-.467.681-.753a2.183,2.183,0,0,0,.162-2.566c-.226-.257-.727-.4-.826-.753-.073-.26.219-.477.391-.615.552-.442,1.23-.911,1-1.72-.194-.678-.81.12-1.2.088-.527-.044-.371-1.133-.453-1.489-.092-.4-1.436.168-1.631.222-.809.223-2.009.613-2.714-.07-.6-.577-.68-1.537-.986-2.268a14.54,14.54,0,0,0-1.7-2.431c-.445-.657.579-.453.967-.605.761-.3.887-1.2.894-1.917.007-.654-.1-1.3-.142-1.948a2.41,2.41,0,0,1,.123-1.2c.265-.518,1.013-.331,1.461-.527.354-.154.352-.519.4-.848.071-.508.4-.6.847-.706a11.786,11.786,0,0,1,2.631-.8.674.674,0,0,1,.714.521c.062.244-.038.8.152,1,.074.077.317.062.42.116a4.418,4.418,0,0,1,1.255,1.285c.119.149.351.573.578.589.2.013.48-.305.634-.4.412-.26,1.021-.383,1.308-.8.267-.392-.264-.656-.565-.758-.6-.2-1.233-.124-1.829-.295-.354-.1-.341-.318-.34-.629,0-.415-.334-.634-.687-.775a2.511,2.511,0,0,1-1.262-1.065c-.209-.348-.99-1.506-1.367-.71-.362.765-.7,1.44-1.7,1.4a1.625,1.625,0,0,1-1.464-1.6c-.015-.963,1.29-.909,1.185-1.933-.116-1.124-1.412-1.76-2.283-2.245-.039-.022-.623-.343-.541-.4.285-.185,1.035.125,1.29.258.532.278,1.294,1.42,2.005.979s-.8-1.658-1.134-1.824c-.354-.176-.885-.137-1.149-.459-.225-.276-.214-.7-.352-1.019a3.376,3.376,0,0,0-2.411-1.611c-.662-.118-1.557-.512-1.622-1.263-.219-.082-.44-.157-.661-.23-.793.369-1.532.843-2.331,1.2-.359.161-1.044.515-1.439.255-.632-.415.121-1.668-.384-2.211-.37-.4-1.206-.061-1.667-.062-.117,0-.554-.145-.618.015-.057.143.085.37.139.495.215.5.175.954-.518.855a2.051,2.051,0,0,1-1.261-.9l-1.139.494c.633,1.526-3.324-.1-3.529.679-.067.251.4.553.613.547.14,0,.411-.282.525-.181.252.225.266.866.292,1.181,0,.05-.024.463.07.376.638-.6,1.445-.921,2.092-1.5a1.916,1.916,0,0,1,.7-.519c.359-.092.7.25.934.474.837.817,1.785,2.023,1.653,3.278-.019.188-.105.575-.373.53-.366-.063-.573-.713-.808-.951-.5-.508-1.838-1.089-2.237-.14-.268.637.65.957,1.08,1.161.15.071.469.18.515.366.064.259-.55.409-.7.43-.815.112-1.422-.563-1.985-1.036-.522-.439-.251.448-.056.672.054.062.262.228.2.329-.132.209-.749.186-.947.205a6.455,6.455,0,0,0-3.3,1.162,9.6,9.6,0,0,0-1.759,1.611c-.034.04-.068.081-.1.123a15.2,15.2,0,0,1-.859,2.734c-.222.467-.33.195-.345-.192-.033-.881.223-1.953-.339-2.724-1.012-1.388-3.293.591-4.049,1.333-.61.6-1.623,1.819-.9,2.7C379.352,157.735,380.1,156.487,380.827,156.413Z" fill="#8cd8e5"/>
      <path id="Trazado_162170" data-name="Trazado 162170" d="M376.719,153.023c.991-2.163,1.882-1.371.3,1.7s.833,2.078,1.651,3.958,1.12-.4,1.514,3.168a2.551,2.551,0,0,0,2.773.593c1.781-.593-.3,1.582-2.178,3.365s-1.287,2.373-.3,3.463,1.387,1.979.5,3.169,1.385,1.581,1.979,2.274a2.694,2.694,0,0,1,.234,2.151h10.017c.253-.725.843-1.622,2.711-3.139,3.165-2.575-2.178-4.554-5.045-4.653,0,0-1.052.429.792-2.871.8-1.441-1.584-1.087-2.177-2.373a4.335,4.335,0,0,0-4.751-2.476c-2.771.3-3.566,1.289-3.661-.394s1.185-2.473-.2-2.672-.693-.3.8-1.684a1.405,1.405,0,0,0-1.783.3c-.892.892-2.476-.493-.6-2.472s4.849-3.467,4.652.295,1.188-1.7,1.188-1.7,2.078-2.657,4.653-2.853.988-.3.988-1.19,1.186,1.485,2.624.892-1.537-.792-1.239-1.78,1.982-.7,2.672.593,1.485-.692-.295-2.773-1.485-.79-3.169.1-.988,1.385-1.286-.1-.395.1-1.187-.69,1.412-.427,2.572-.3.793-.693.793-.693l1.139-.494s.743,1.088,1.632.889-.594-1.584.3-1.385,2.078-.594,2.177.6-.692,2.771,2.575.988c.659-.358,1.1-.592,1.4-.732a25.78,25.78,0,0,0-21.305,2.36,1.812,1.812,0,0,0,1.1.351s.5,0-2.67,2.473S375.729,155.183,376.719,153.023Z" fill="#75bd38"/>
      <path id="Trazado_162171" data-name="Trazado 162171" d="M402.648,145.122c1.287.79.892.1,2.572,1.087s.594,2.079,1.88,2.277,2.475,1.979,1.488,2.078-1.091-1.087-2.572-1.288.593.494,1.581,1.388.991,1.944,0,2.359-.258,2.689,1.356,2.391,1.017-1.979,1.909-1.582.593,1.383,2.078,1.979-.2,1.383,1.584,1.482,2.671.792,1.088,1.485-.79,1.286-2.178-.4-1.248-.07-1.386-1.68-2.373-.1-3.56.1-.2,1.386-1.288,1.581-1.585-.1-1.287,2.476-.395,3.166-1.584,3.166.994,1.385,1.584,3.168.7,2.871,3.268,2.178,1.78-.693,2.078.693,1.386-.793,1.582.593-2.473,1.683-.991,2.572.4,2.97-.3,3.464a.712.712,0,0,0-.145.172h6.464a25.814,25.814,0,0,0-15.737-32.536A.971.971,0,0,0,402.648,145.122Z" fill="#75bd38"/>
      <path id="Trazado_162172" data-name="Trazado 162172" d="M401.7,144.169c.147.049.29.1.435.157v0C401.992,144.267,401.847,144.219,401.7,144.169Z" fill="#fff"/>
    </g>
    <path id="Trazado_162173" data-name="Trazado 162173" d="M402.138,144.326c9.96,3.585,0,0,0,0Z" transform="translate(-3424.014 -9052.706)" fill="#b9cece"/>
    <g id="Grupo_106395" data-name="Grupo 106395" transform="translate(-3424.014 -9052.706)">
      <path id="Trazado_162174" data-name="Trazado 162174" d="M401.476,176.862h16.391a25.988,25.988,0,0,0,1.2-11.124h0l-.028-.246.028.245a26.075,26.075,0,0,0-16.927-21.411v0c-.111-.042-.237-.074-.35-.121a25.163,25.163,0,0,0-5.532-1.218,26.716,26.716,0,0,0-3.815.184c-3.248,2.118-3.608,5.81-4.554,10.08-.529,2.384,1.6,10.579,1.6,10.579Z" fill="#b9cece"/>
      <path id="Trazado_162175" data-name="Trazado 162175" d="M419.037,165.492c-.021-.188-.042-.382-.064-.576C418.992,165.087,419.014,165.282,419.037,165.492Z" fill="#b9cece"/>
    </g>
    <path id="Trazado_168236" data-name="Trazado 168236" d="M16.646,0A16.646,16.646,0,1,1,0,16.646,16.646,16.646,0,0,1,16.646,0Z" transform="translate(-3036.785 -8915.959)" fill="#fff"/>
    <g id="Grupo_106454" data-name="Grupo 106454" transform="translate(-3424.014 -9052.706)">
      <g id="Grupo_106453" data-name="Grupo 106453">
        <g id="Grupo_106399" data-name="Grupo 106399">
          <g id="Grupo_106397" data-name="Grupo 106397">
            <path id="Trazado_162176" data-name="Trazado 162176" d="M402.972,142.446a1.021,1.021,0,1,0-1.021-1.021A1.022,1.022,0,0,0,402.972,142.446Z" fill="#8e8d97"/>
          </g>
          <g id="Grupo_106398" data-name="Grupo 106398">
            <path id="Trazado_162177" data-name="Trazado 162177" d="M405.091,143.234c0-.328-.362-.594-.809-.594h-2.62c-.447,0-.809.266-.809.594v2.279c0,.349.156.49.349.49h.007c.193,0,.349-.141.349-.49v-1.756a.106.106,0,0,1,.109-.106h0a.106.106,0,0,1,.1.106v5.411c0,.492.224.891.5.891h.01c.276,0,.5-.4.5-.891v-2.22a.108.108,0,0,1,.108-.107h.16a.107.107,0,0,1,.108.107v2.22c0,.492.224.891.5.891h.01c.276,0,.5-.4.5-.891v-5.411a.106.106,0,0,1,.1-.106h0a.106.106,0,0,1,.109.106v1.756c0,.349.157.49.349.49h.007c.193,0,.349-.141.349-.49v-2.279Z" fill="#8e8d97"/>
          </g>
        </g>
        <g id="Grupo_106402" data-name="Grupo 106402">
          <g id="Grupo_106400" data-name="Grupo 106400">
            <path id="Trazado_162178" data-name="Trazado 162178" d="M408.105,142.446a1.021,1.021,0,1,0-1.021-1.021A1.021,1.021,0,0,0,408.105,142.446Z" fill="#8e8d97"/>
          </g>
          <g id="Grupo_106401" data-name="Grupo 106401">
            <path id="Trazado_162179" data-name="Trazado 162179" d="M410.224,143.234c0-.328-.362-.594-.809-.594H406.8c-.446,0-.808.266-.808.594v2.279c0,.349.156.49.348.49h.007c.193,0,.349-.141.349-.49v-1.756a.106.106,0,0,1,.109-.106h0a.106.106,0,0,1,.1.106v5.411c0,.492.223.891.5.891h.011c.276,0,.5-.4.5-.891v-2.22a.108.108,0,0,1,.108-.107h.16a.107.107,0,0,1,.108.107v2.22c0,.492.224.891.5.891h.01c.276,0,.5-.4.5-.891v-5.411a.106.106,0,0,1,.1-.106h0a.107.107,0,0,1,.109.106v1.756c0,.349.156.49.348.49h.007c.193,0,.349-.141.349-.49v-2.279Z" fill="#8e8d97"/>
          </g>
        </g>
        <g id="Grupo_106405" data-name="Grupo 106405">
          <g id="Grupo_106403" data-name="Grupo 106403">
            <path id="Trazado_162180" data-name="Trazado 162180" d="M413.238,142.446a1.021,1.021,0,1,0-1.021-1.021A1.021,1.021,0,0,0,413.238,142.446Z" fill="#8e8d97"/>
          </g>
          <g id="Grupo_106404" data-name="Grupo 106404">
            <path id="Trazado_162181" data-name="Trazado 162181" d="M415.357,143.234c0-.328-.362-.594-.808-.594h-2.621c-.446,0-.808.266-.808.594v2.279c0,.349.156.49.348.49h.007c.193,0,.349-.141.349-.49v-1.756a.106.106,0,0,1,.109-.106h0a.106.106,0,0,1,.1.106v5.411c0,.492.224.891.5.891h.01c.276,0,.5-.4.5-.891v-2.22a.107.107,0,0,1,.107-.107h.161a.107.107,0,0,1,.107.107v2.22c0,.492.224.891.5.891h.01c.276,0,.5-.4.5-.891v-5.411a.106.106,0,0,1,.1-.106h0a.106.106,0,0,1,.109.106v1.756c0,.349.156.49.348.49h.008c.192,0,.348-.141.348-.49v-2.279Z" fill="#8e8d97"/>
          </g>
        </g>
        <g id="Grupo_106407" data-name="Grupo 106407">
          <g id="Grupo_106406" data-name="Grupo 106406">
            <path id="Trazado_162182" data-name="Trazado 162182" d="M417.674,150.059h.01c.276,0,.5-.4.5-.891v-2.22a.107.107,0,0,1,.108-.107h.052c-.049-.071-.093-.146-.146-.214-.343-.443-.682-.963-1.024-1.512v4.053C417.174,149.66,417.4,150.059,417.674,150.059Z" fill="#8e8d97"/>
            <path id="Trazado_162183" data-name="Trazado 162183" d="M416.6,146h.007c.192,0,.348-.142.348-.49v-.747c-.231-.376-.465-.761-.7-1.144v1.891C416.253,145.861,416.409,146,416.6,146Z" fill="#8e8d97"/>
            <path id="Trazado_162184" data-name="Trazado 162184" d="M419.059,150.059h.01a.353.353,0,0,0,.255-.129,7.233,7.233,0,0,0-.764-2.74v1.978C418.56,149.66,418.783,150.059,419.059,150.059Z" fill="#8e8d97"/>
          </g>
        </g>
        <g id="Grupo_106409" data-name="Grupo 106409">
          <g id="Grupo_106408" data-name="Grupo 106408">
            <path id="Trazado_162185" data-name="Trazado 162185" d="M388.26,150.059h.01c.277,0,.5-.4.5-.891v-3.206a11.862,11.862,0,0,0-1.009,2.411v.795C387.761,149.66,387.984,150.059,388.26,150.059Z" fill="#8e8d97"/>
          </g>
        </g>
        <g id="Grupo_106412" data-name="Grupo 106412">
          <g id="Grupo_106410" data-name="Grupo 106410">
            <path id="Trazado_162186" data-name="Trazado 162186" d="M392.706,142.446a1.019,1.019,0,0,0,.531-1.89c-.421.517-.871,1.016-1.325,1.505A1.018,1.018,0,0,0,392.706,142.446Z" fill="#8e8d97"/>
          </g>
          <g id="Grupo_106411" data-name="Grupo 106411">
            <path id="Trazado_162187" data-name="Trazado 162187" d="M390.587,145.513c0,.348.156.49.349.49h.007c.192,0,.349-.142.349-.49v-1.756a.106.106,0,0,1,.108-.106h0a.106.106,0,0,1,.1.106v5.411c0,.492.224.891.5.891h.01c.276,0,.5-.4.5-.891v-2.22a.107.107,0,0,1,.108-.107h.16a.108.108,0,0,1,.108.107v2.22c0,.492.223.891.5.891h.01c.276,0,.5-.4.5-.891v-5.411a.106.106,0,0,1,.1-.106h0a.106.106,0,0,1,.109.106v1.756c0,.348.156.49.349.49h.007c.192,0,.349-.142.349-.49v-2.279c0-.328-.362-.594-.809-.594H391.4l-.025,0c-.267.286-.53.57-.784.853Z" fill="#8e8d97"/>
          </g>
        </g>
        <g id="Grupo_106415" data-name="Grupo 106415">
          <g id="Grupo_106413" data-name="Grupo 106413">
            <path id="Trazado_162188" data-name="Trazado 162188" d="M397.839,142.446a1.021,1.021,0,1,0-1.022-1.021A1.022,1.022,0,0,0,397.839,142.446Z" fill="#8e8d97"/>
          </g>
          <g id="Grupo_106414" data-name="Grupo 106414">
            <path id="Trazado_162189" data-name="Trazado 162189" d="M399.958,143.234c0-.328-.362-.594-.809-.594h-2.62c-.447,0-.809.266-.809.594v2.279c0,.349.156.49.349.49h.007c.193,0,.349-.141.349-.49v-1.756a.106.106,0,0,1,.109-.106h0a.106.106,0,0,1,.1.106v5.411c0,.492.224.891.5.891h.01c.276,0,.5-.4.5-.891v-2.22a.107.107,0,0,1,.108-.107h.16a.108.108,0,0,1,.108.107v2.22c0,.492.224.891.5.891h.01c.276,0,.5-.4.5-.891v-5.411a.106.106,0,0,1,.1-.106h0a.106.106,0,0,1,.109.106v1.756c0,.349.156.49.349.49h.007c.193,0,.349-.141.349-.49v-2.279Z" fill="#8e8d97"/>
          </g>
        </g>
        <g id="Grupo_106418" data-name="Grupo 106418">
          <g id="Grupo_106416" data-name="Grupo 106416">
            <circle id="Elipse_507" data-name="Elipse 507" cx="1.022" cy="1.022" r="1.022" transform="translate(394.308 150.393)" fill="#8e8d97"/>
          </g>
          <g id="Grupo_106417" data-name="Grupo 106417">
            <path id="Trazado_162190" data-name="Trazado 162190" d="M397.448,153.224c0-.328-.362-.594-.809-.594h-2.62c-.446,0-.808.266-.808.594V155.5c0,.348.156.49.348.49h.007c.193,0,.349-.142.349-.49v-1.756a.105.105,0,0,1,.109-.106h0a.106.106,0,0,1,.1.106v5.411c0,.492.223.891.5.891h.011c.276,0,.5-.4.5-.891v-2.22a.107.107,0,0,1,.108-.107c.051,0,.11,0,.16,0a.106.106,0,0,1,.108.107v2.22c0,.492.224.891.5.891h.01c.276,0,.5-.4.5-.891v-5.411a.106.106,0,0,1,.1-.106h0a.106.106,0,0,1,.109.106V155.5c0,.348.156.49.348.49h.007c.193,0,.349-.142.349-.49v-2.279Z" fill="#8e8d97"/>
          </g>
        </g>
        <g id="Grupo_106421" data-name="Grupo 106421">
          <g id="Grupo_106419" data-name="Grupo 106419">
            <circle id="Elipse_508" data-name="Elipse 508" cx="1.022" cy="1.022" r="1.022" transform="translate(399.441 150.393)" fill="#8e8d97"/>
          </g>
          <g id="Grupo_106420" data-name="Grupo 106420">
            <path id="Trazado_162191" data-name="Trazado 162191" d="M402.581,153.224c0-.328-.362-.594-.808-.594h-2.621c-.446,0-.808.266-.808.594V155.5c0,.348.156.49.348.49h.007c.193,0,.349-.142.349-.49v-1.756a.105.105,0,0,1,.109-.106h0a.107.107,0,0,1,.105.106v5.411c0,.492.224.891.5.891h.01c.276,0,.5-.4.5-.891v-2.22a.106.106,0,0,1,.107-.107c.051,0,.11,0,.161,0a.106.106,0,0,1,.107.107v2.22c0,.492.224.891.5.891h.01c.276,0,.5-.4.5-.891v-5.411a.106.106,0,0,1,.105-.106h0a.105.105,0,0,1,.109.106V155.5c0,.348.156.49.348.49h.008c.192,0,.348-.142.348-.49v-2.279Z" fill="#8e8d97"/>
          </g>
        </g>
        <g id="Grupo_106424" data-name="Grupo 106424">
          <g id="Grupo_106422" data-name="Grupo 106422">
            <circle id="Elipse_509" data-name="Elipse 509" cx="1.022" cy="1.022" r="1.022" transform="translate(404.574 150.393)" fill="#8e8d97"/>
          </g>
          <g id="Grupo_106423" data-name="Grupo 106423">
            <path id="Trazado_162192" data-name="Trazado 162192" d="M407.714,153.224c0-.328-.362-.594-.808-.594h-2.62c-.447,0-.809.266-.809.594V155.5c0,.348.156.49.349.49h.007c.192,0,.348-.142.348-.49v-1.756a.106.106,0,0,1,.109-.106h0a.106.106,0,0,1,.105.106v5.411c0,.492.224.891.5.891h.01c.276,0,.5-.4.5-.891v-2.22a.106.106,0,0,1,.108-.107c.05,0,.109,0,.16,0a.107.107,0,0,1,.108.107v2.22c0,.492.223.891.5.891h.01c.277,0,.5-.4.5-.891v-5.411a.106.106,0,0,1,.105-.106h0a.105.105,0,0,1,.109.106V155.5c0,.348.156.49.349.49h.007c.192,0,.348-.142.348-.49v-2.279Z" fill="#8e8d97"/>
          </g>
        </g>
        <g id="Grupo_106427" data-name="Grupo 106427">
          <g id="Grupo_106425" data-name="Grupo 106425">
            <circle id="Elipse_510" data-name="Elipse 510" cx="1.022" cy="1.022" r="1.022" transform="translate(409.707 150.393)" fill="#8e8d97"/>
          </g>
          <g id="Grupo_106426" data-name="Grupo 106426">
            <path id="Trazado_162193" data-name="Trazado 162193" d="M412.848,153.224c0-.328-.362-.594-.809-.594h-2.62c-.447,0-.809.266-.809.594V155.5c0,.348.156.49.349.49h.007c.192,0,.349-.142.349-.49v-1.756a.105.105,0,0,1,.108-.106h0a.106.106,0,0,1,.1.106v5.411c0,.492.224.891.5.891h.01c.276,0,.5-.4.5-.891v-2.22a.106.106,0,0,1,.108-.107c.05,0,.109,0,.16,0a.107.107,0,0,1,.108.107v2.22c0,.492.223.891.5.891h.01c.276,0,.5-.4.5-.891v-5.411a.106.106,0,0,1,.1-.106h0a.105.105,0,0,1,.109.106V155.5c0,.348.156.49.349.49h.007c.192,0,.349-.142.349-.49v-2.279Z" fill="#8e8d97"/>
          </g>
        </g>
        <g id="Grupo_106430" data-name="Grupo 106430">
          <g id="Grupo_106428" data-name="Grupo 106428">
            <path id="Trazado_162194" data-name="Trazado 162194" d="M415.862,152.436a1.021,1.021,0,1,0-1.022-1.022A1.022,1.022,0,0,0,415.862,152.436Z" fill="#8e8d97"/>
          </g>
          <g id="Grupo_106429" data-name="Grupo 106429">
            <path id="Trazado_162195" data-name="Trazado 162195" d="M417.981,153.224c0-.328-.362-.594-.809-.594h-2.62c-.447,0-.809.266-.809.594V155.5c0,.348.156.49.349.49h.007c.193,0,.349-.142.349-.49v-1.756a.105.105,0,0,1,.109-.106h0a.106.106,0,0,1,.1.106v5.411c0,.492.224.891.5.891h.01c.276,0,.5-.4.5-.891v-2.22a.106.106,0,0,1,.108-.107c.05,0,.109,0,.16,0a.107.107,0,0,1,.108.107v2.22c0,.492.224.891.5.891h.01c.276,0,.5-.4.5-.891v-5.411a.106.106,0,0,1,.1-.106h0a.105.105,0,0,1,.109.106V155.5c0,.348.156.49.349.49h.007c.193,0,.349-.142.349-.49v-2.279Z" fill="#8e8d97"/>
          </g>
        </g>
        <g id="Grupo_106432" data-name="Grupo 106432">
          <g id="Grupo_106431" data-name="Grupo 106431">
            <path id="Trazado_162196" data-name="Trazado 162196" d="M419.392,152.672a.629.629,0,0,0-.516.552V155.5c0,.348.156.49.349.49h.007a.2.2,0,0,0,.035-.008c.011-.2.03-.4.032-.6C419.3,154.569,419.363,153.637,419.392,152.672Z" fill="#8e8d97"/>
          </g>
        </g>
        <g id="Grupo_106434" data-name="Grupo 106434">
          <g id="Grupo_106433" data-name="Grupo 106433">
            <path id="Trazado_162197" data-name="Trazado 162197" d="M386.826,155.993h.007c.193,0,.349-.142.349-.49v-2.279a.573.573,0,0,0-.358-.493,17.492,17.492,0,0,0-.259,3.118A.3.3,0,0,0,386.826,155.993Z" fill="#8e8d97"/>
          </g>
        </g>
        <g id="Grupo_106437" data-name="Grupo 106437">
          <g id="Grupo_106435" data-name="Grupo 106435">
            <circle id="Elipse_511" data-name="Elipse 511" cx="1.022" cy="1.022" r="1.022" transform="translate(389.175 150.393)" fill="#8e8d97"/>
          </g>
          <g id="Grupo_106436" data-name="Grupo 106436">
            <path id="Trazado_162198" data-name="Trazado 162198" d="M392.315,153.224c0-.328-.362-.594-.809-.594h-2.62c-.447,0-.809.266-.809.594V155.5c0,.348.156.49.349.49h.007c.193,0,.349-.142.349-.49v-1.756a.105.105,0,0,1,.109-.106h0a.106.106,0,0,1,.1.106v5.411c0,.492.224.891.5.891h.01c.276,0,.5-.4.5-.891v-2.22a.107.107,0,0,1,.108-.107c.051,0,.11,0,.16,0a.106.106,0,0,1,.108.107v2.22c0,.492.224.891.5.891h.01c.276,0,.5-.4.5-.891v-5.411a.106.106,0,0,1,.1-.106h0a.105.105,0,0,1,.109.106V155.5c0,.348.156.49.349.49h.007c.193,0,.349-.142.349-.49v-2.279Z" fill="#8e8d97"/>
          </g>
        </g>
        <g id="Grupo_106440" data-name="Grupo 106440">
          <g id="Grupo_106438" data-name="Grupo 106438">
            <path id="Trazado_162199" data-name="Trazado 162199" d="M392.82,162.426A1.021,1.021,0,1,0,391.8,161.4,1.021,1.021,0,0,0,392.82,162.426Z" fill="#8e8d97"/>
          </g>
          <g id="Grupo_106439" data-name="Grupo 106439">
            <path id="Trazado_162200" data-name="Trazado 162200" d="M394.122,163.63h0a.107.107,0,0,1,.109.107v1.756c0,.348.156.49.349.49h.007c.192,0,.348-.142.348-.49v-2.279c0-.328-.362-.594-.808-.594h-2.62c-.447,0-.809.266-.809.594v1.455q.329.406.7.789v-1.721a.108.108,0,0,1,.109-.107h0a.108.108,0,0,1,.105.107v1.93a14.5,14.5,0,0,0,2.395,1.834v-3.764A.108.108,0,0,1,394.122,163.63Z" fill="#8e8d97"/>
          </g>
        </g>
        <g id="Grupo_106443" data-name="Grupo 106443">
          <g id="Grupo_106441" data-name="Grupo 106441">
            <circle id="Elipse_512" data-name="Elipse 512" cx="1.022" cy="1.022" r="1.022" transform="translate(396.931 160.383)" fill="#8e8d97"/>
          </g>
          <g id="Grupo_106442" data-name="Grupo 106442">
            <path id="Trazado_162201" data-name="Trazado 162201" d="M396.183,165.983h.007c.192,0,.349-.142.349-.49v-1.756a.107.107,0,0,1,.108-.107h0a.107.107,0,0,1,.105.107v5.173c.33.141.662.277,1,.4a1.515,1.515,0,0,0,.01-.166v-2.22a.106.106,0,0,1,.108-.107c.05,0,.109,0,.16,0a.107.107,0,0,1,.108.107v2.22a1.575,1.575,0,0,0,.033.315c.28.1.561.194.844.283a1.317,1.317,0,0,0,.133-.6v-5.411a.107.107,0,0,1,.1-.107h0a.107.107,0,0,1,.109.107v1.756c0,.348.156.49.349.49h.007c.192,0,.349-.142.349-.49v-2.279c0-.328-.363-.594-.809-.594h-2.62c-.447,0-.809.266-.809.594v2.279C395.834,165.841,395.99,165.983,396.183,165.983Z" fill="#8e8d97"/>
          </g>
        </g>
        <g id="Grupo_106446" data-name="Grupo 106446">
          <g id="Grupo_106444" data-name="Grupo 106444">
            <path id="Trazado_162202" data-name="Trazado 162202" d="M403.086,162.426a1.021,1.021,0,1,0-1.022-1.022A1.022,1.022,0,0,0,403.086,162.426Z" fill="#8e8d97"/>
          </g>
          <g id="Grupo_106445" data-name="Grupo 106445">
            <path id="Trazado_162203" data-name="Trazado 162203" d="M405.2,163.214c0-.328-.362-.594-.809-.594h-2.62c-.447,0-.809.266-.809.594v2.279c0,.348.156.49.349.49h.007c.193,0,.349-.142.349-.49v-1.756a.107.107,0,0,1,.109-.107h0a.106.106,0,0,1,.1.106v5.411c0,.492.224.89.5.89h.01c.276,0,.5-.4.5-.89v-2.22a.106.106,0,0,1,.108-.107c.05,0,.109,0,.16,0a.107.107,0,0,1,.108.107v2.22c0,.492.224.89.5.89h.01c.276,0,.5-.4.5-.89v-5.411a.106.106,0,0,1,.1-.106h0a.107.107,0,0,1,.109.107v1.756c0,.348.156.49.349.49h.007c.193,0,.349-.142.349-.49v-2.279Z" fill="#8e8d97"/>
          </g>
        </g>
        <g id="Grupo_106449" data-name="Grupo 106449">
          <g id="Grupo_106447" data-name="Grupo 106447">
            <path id="Trazado_162204" data-name="Trazado 162204" d="M408.219,162.426A1.021,1.021,0,1,0,407.2,161.4,1.022,1.022,0,0,0,408.219,162.426Z" fill="#8e8d97"/>
          </g>
          <g id="Grupo_106448" data-name="Grupo 106448">
            <path id="Trazado_162205" data-name="Trazado 162205" d="M406.917,163.63a.107.107,0,0,1,.1.107v5.411c0,.492.224.89.5.89h.01c.276,0,.5-.4.5-.89v-2.22a.107.107,0,0,1,.108-.107c.051,0,.11,0,.16,0a.106.106,0,0,1,.108.107v2.22a1.368,1.368,0,0,0,.111.553,6.871,6.871,0,0,1,.9-.785v-5.179a.107.107,0,0,1,.1-.107h0a.107.107,0,0,1,.109.107v1.756c0,.348.156.49.349.49h.007c.193,0,.349-.142.349-.49v-2.279c0-.328-.362-.594-.809-.594h-2.62c-.447,0-.809.266-.809.594v2.279c0,.348.156.49.349.49h.007c.193,0,.349-.142.349-.49v-1.756a.107.107,0,0,1,.109-.107Z" fill="#8e8d97"/>
          </g>
        </g>
        <g id="Grupo_106452" data-name="Grupo 106452">
          <g id="Grupo_106450" data-name="Grupo 106450">
            <circle id="Elipse_513" data-name="Elipse 513" cx="1.022" cy="1.022" r="1.022" transform="translate(412.331 160.383)" fill="#8e8d97"/>
          </g>
          <g id="Grupo_106451" data-name="Grupo 106451">
            <path id="Trazado_162206" data-name="Trazado 162206" d="M414.55,165.91v-2.173a.107.107,0,0,1,.105-.107h0a.107.107,0,0,1,.108.107v1.756a.818.818,0,0,0,.032.233,7.919,7.919,0,0,0,.673-.574v-1.938c0-.328-.362-.594-.809-.594h-2.62c-.446,0-.809.266-.809.594v2.279c0,.348.157.49.349.49h.007c.193,0,.349-.142.349-.49v-1.756a.107.107,0,0,1,.109-.107h0a.108.108,0,0,1,.105.107v3.584A20.444,20.444,0,0,0,414.55,165.91Z" fill="#8e8d97"/>
          </g>
        </g>
      </g>
    </g>
    <g id="Grupo_106455" data-name="Grupo 106455" transform="translate(-3424.014 -9052.706)">
      <path id="Trazado_162207" data-name="Trazado 162207" d="M428.75,182.247l-.048.044c-1.29,1.163-3.368.643-4.788-1.2l-10.676-13.179,2.821-2.546,12.225,11.781C429.973,178.748,430.039,181.083,428.75,182.247Z" fill="#474656"/>
      <path id="Trazado_162208" data-name="Trazado 162208" d="M394.435,139.6a17.2,17.2,0,1,0,19.828,1.015A17.21,17.21,0,0,0,394.435,139.6Zm20.22,23.2a14.026,14.026,0,1,1,.828-16.17A14.036,14.036,0,0,1,414.655,162.8Z" fill="#474656"/>
    </g>
  </g>
</svg>
